<svg xmlns="http://www.w3.org/2000/svg" xmlns:xlink="http://www.w3.org/1999/xlink" width="1067.476" height="809" viewBox="0 0 1067.476 809">
  <defs>
    <clipPath id="clip-path">
      <rect width="1067.476" height="809" fill="none"/>
    </clipPath>
    <clipPath id="clip-path-2">
      <rect id="Rectangle_297" data-name="Rectangle 297" width="978" height="809" transform="translate(388)" fill="#fff"/>
    </clipPath>
    <linearGradient id="linear-gradient" x1="0.5" x2="0.5" y2="1" gradientUnits="objectBoundingBox">
      <stop offset="0" stop-color="#6b73ff"/>
      <stop offset="1" stop-color="#9b4efe"/>
    </linearGradient>
    <filter id="Rectangle_62" x="508.558" y="229.183" width="334.43" height="376.651" filterUnits="userSpaceOnUse">
      <feOffset dy="3" input="SourceAlpha"/>
      <feGaussianBlur stdDeviation="25" result="blur"/>
      <feFlood flood-opacity="0.161"/>
      <feComposite operator="in" in2="blur"/>
      <feComposite in="SourceGraphic"/>
    </filter>
    <linearGradient id="linear-gradient-4" x1="0.5" x2="0.5" y2="1" gradientUnits="objectBoundingBox">
      <stop offset="0" stop-color="#fedba1"/>
      <stop offset="1" stop-color="#ffc564"/>
    </linearGradient>
    <filter id="Rectangle_69" x="791.131" y="226.075" width="346.007" height="382.893" filterUnits="userSpaceOnUse">
      <feOffset dy="3" input="SourceAlpha"/>
      <feGaussianBlur stdDeviation="25" result="blur-2"/>
      <feFlood flood-opacity="0.161"/>
      <feComposite operator="in" in2="blur-2"/>
      <feComposite in="SourceGraphic"/>
    </filter>
    <filter id="Rectangle_77" x="664.891" y="191.388" width="355.018" height="406.702" filterUnits="userSpaceOnUse">
      <feOffset dy="3" input="SourceAlpha"/>
      <feGaussianBlur stdDeviation="25" result="blur-3"/>
      <feFlood flood-opacity="0.161"/>
      <feComposite operator="in" in2="blur-3"/>
      <feComposite in="SourceGraphic"/>
    </filter>
    <clipPath id="clip-path-3">
      <circle id="Ellipse_7" data-name="Ellipse 7" cx="68.005" cy="68.005" r="68.005" transform="translate(0 96.173) rotate(-45)" fill="none"/>
    </clipPath>
    <linearGradient id="linear-gradient-7" x1="0.203" y1="-2.926" xlink:href="#linear-gradient-4"/>
    <filter id="Path_102" x="796.603" y="376.998" width="345.379" height="383.003" filterUnits="userSpaceOnUse">
      <feOffset dy="3" input="SourceAlpha"/>
      <feGaussianBlur stdDeviation="25" result="blur-4"/>
      <feFlood flood-opacity="0.161"/>
      <feComposite operator="in" in2="blur-4"/>
      <feComposite in="SourceGraphic"/>
    </filter>
    <linearGradient id="linear-gradient-11" x1="1.272" y1="0.932" x2="-0.174" y2="0.259" xlink:href="#linear-gradient-4"/>
    <filter id="Path_113" x="382.138" y="47.996" width="465.323" height="410.177" filterUnits="userSpaceOnUse">
      <feOffset dy="3" input="SourceAlpha"/>
      <feGaussianBlur stdDeviation="25" result="blur-5"/>
      <feFlood flood-opacity="0.161"/>
      <feComposite operator="in" in2="blur-5"/>
      <feComposite in="SourceGraphic"/>
    </filter>
  </defs>
  <g id="Group_258" data-name="Group 258" clip-path="url(#clip-path)">
    <g id="Group_231" data-name="Group 231" transform="translate(-388)">
      <g id="Mask_Group_2" data-name="Mask Group 2" transform="translate(89 1)" clip-path="url(#clip-path-2)">
        <g id="Group_228" data-name="Group 228">
          <path id="Union_3" data-name="Union 3" d="M21.786,777.245h-8.1V171.868s92.219,54.4,231.669-82.785c75.69-74.464,174.681-16.593,283,41.278,91.239,48.749,189.094,97.5,285.209,67.146C1023.773,131.125,1071.644,22.7,1238.15,2.786S1419.226-99,1419.226-99l-7.9,474.935h26V889.617S1344,843.452,1202.89,959.862c-76.6,63.185-176.769,14.08-286.377-35.026C824.184,883.472,725.16,842.107,627.9,867.862c-212.726,56.327-261.168,148.328-429.665,165.227S15,1119.456,15,1119.456Z" transform="translate(1251.041 901.52) rotate(-133)" fill="url(#linear-gradient)"/>
          <path id="Union_4" data-name="Union 4" d="M21.725,770.618h-8.04l-35-587.936S105.206,223.813,243.6,87.66c75.118-73.9,173.361-16.467,280.855,40.966,90.55,48.38,187.664,96.76,283.052,66.639,208.625-65.88,256.134-173.485,421.381-193.249S1408.6-99,1408.6-99l-7.837,471.344h25.8v509.8s-92.615-45.815-232.663,69.714c-76.015,62.707-175.432,13.973-284.21-34.762-91.631-41.052-189.905-82.1-286.431-56.544-211.117,55.9-259.193,147.207-426.415,163.977S14.99,1110.24,14.99,1110.24Z" transform="matrix(-0.643, -0.766, 0.766, -0.643, 1231.953, 915.758)" opacity="0.5" fill="url(#linear-gradient)"/>
          <path id="Union_5" data-name="Union 5" d="M21.725,770.618h-8.04l-35-587.936S105.206,223.813,243.6,87.66c75.118-73.9,173.361-16.467,280.855,40.966,90.55,48.38,187.664,96.76,283.052,66.639,208.625-65.88,256.134-173.485,421.381-193.249S1408.6-99,1408.6-99l-7.837,471.344h25.8v509.8s-92.615-45.815-232.663,69.714c-76.015,62.707-175.432,13.973-284.21-34.762-91.631-41.052-189.905-82.1-286.431-56.544-211.117,55.9-259.193,147.207-426.415,163.977S14.99,1110.24,14.99,1110.24Z" transform="matrix(-0.643, -0.766, 0.766, -0.643, 1231.953, 928.759)" opacity="0.5" fill="url(#linear-gradient)"/>
        </g>
      </g>
      <g id="Group_136" data-name="Group 136" transform="translate(971.558 301.195)">
        <g transform="matrix(1, 0, 0, 1, -583.56, -301.2)" filter="url(#Rectangle_62)">
          <rect id="Rectangle_62-2" data-name="Rectangle 62" width="141.994" height="199.067" transform="matrix(0.97, -0.23, 0.23, 0.97, 583.56, 334.23)" fill="#fff"/>
        </g>
        <path id="Rectangle_63" data-name="Rectangle 63" d="M26,0h1.933A26,26,0,0,1,53.922,25.994v22.3a26,26,0,0,1-26,26H25.994A25.994,25.994,0,0,1,0,48.3V26A26,26,0,0,1,26,0Z" transform="translate(15.852 42.727) rotate(-13.459)" fill="#ae9ad9"/>
        <g id="Group_135" data-name="Group 135" transform="translate(30.219 40.983)">
          <path id="Path_77" data-name="Path 77" d="M655.916,191.2c-17.227,4.122-13.693,19.02-10.314,30.649l3.622,1.368,13.576-3.249,13.576-3.249,2.612-2.858C676.735,201.966,673.143,187.082,655.916,191.2Z" transform="translate(-642.81 -190.503)" fill="#5546c5"/>
          <path id="Path_78" data-name="Path 78" d="M676.732,237.349l-18.271,4.372,2.025,8.464h0a.273.273,0,0,1,0,.03c.815,3.406,5.566,5.189,10.611,3.982s8.475-4.948,7.659-8.354a.274.274,0,0,0-.012-.028h0Z" transform="translate(-643.213 -191.71)" fill="url(#linear-gradient-4)"/>
          <path id="Path_79" data-name="Path 79" d="M679.043,214.1a20.141,20.141,0,0,0-2.23,1.319c-3.735-15.61-9.906-17.075-18.619-14.99-10.144,2.428-13.747,5.821-9.917,21.83a20.5,20.5,0,0,0-2.619-.169c-.486.076-1.5,1.693.517,7.012s4.226,5.284,5.377,4.831h0c3.931,8.239,10.943,13.22,17.449,11.663s10.5-9.168,10.279-18.292c1.234-.173,3.068-1.253,2.475-6.717C681.144,214.934,679.512,213.95,679.043,214.1Z" transform="translate(-642.865 -190.739)" fill="url(#linear-gradient-4)"/>
        </g>
        <path id="Rectangle_64" data-name="Rectangle 64" d="M2.1,0H45.152a2.1,2.1,0,0,1,2.1,2.1v.022a2.106,2.106,0,0,1-2.106,2.106H2.1A2.1,2.1,0,0,1,0,2.128V2.1A2.1,2.1,0,0,1,2.1,0Z" transform="translate(84.218 32.65) rotate(-13.467)" fill="#ae9ad9"/>
        <rect id="Rectangle_65" data-name="Rectangle 65" width="47.257" height="4.232" rx="2.105" transform="translate(87.14 44.859) rotate(-13.458)" fill="#ae9ad9"/>
        <path id="Rectangle_66" data-name="Rectangle 66" d="M2.106,0H45.152a2.105,2.105,0,0,1,2.105,2.105v.022a2.1,2.1,0,0,1-2.1,2.1H2.1A2.1,2.1,0,0,1,0,2.129V2.106A2.106,2.106,0,0,1,2.106,0Z" transform="translate(90.062 57.068) rotate(-13.458)" fill="#ae9ad9"/>
        <path id="Rectangle_67" data-name="Rectangle 67" d="M2.1,0H111.266a2.105,2.105,0,0,1,2.105,2.105v.023a2.1,2.1,0,0,1-2.1,2.1H2.105A2.105,2.105,0,0,1,0,2.127V2.1A2.1,2.1,0,0,1,2.1,0Z" transform="translate(37.519 125.893) rotate(-13.458)" fill="#c9c3cc"/>
        <path id="Path_80" data-name="Path 80" d="M762.912,269.173,656.641,294.6a2.056,2.056,0,0,1-2.471-1.517l-.031-.128a2.057,2.057,0,0,1,1.517-2.472l106.27-25.431a2.058,2.058,0,0,1,2.472,1.517l.03.129a2.055,2.055,0,0,1-1.516,2.475Z" transform="translate(-612.881 -151.44)" fill="#c9c3cc"/>
        <path id="Rectangle_68" data-name="Rectangle 68" d="M2.1,0H65.878a2.105,2.105,0,0,1,2.105,2.105v.023a2.1,2.1,0,0,1-2.1,2.1H2.105A2.105,2.105,0,0,1,0,2.127V2.1A2.1,2.1,0,0,1,2.1,0Z" transform="translate(44.044 153.158) rotate(-13.467)" fill="#c9c3cc"/>
      </g>
      <g id="Group_139" data-name="Group 139" transform="translate(1254.131 298.073)">
        <g transform="matrix(1, 0, 0, 1, -866.13, -298.07)" filter="url(#Rectangle_69)">
          <rect id="Rectangle_69-2" data-name="Rectangle 69" width="141.962" height="199.022" transform="translate(866.13 341.47) rotate(-17.8)" fill="#fff"/>
        </g>
        <path id="Rectangle_70" data-name="Rectangle 70" d="M26,0h1.92A25.993,25.993,0,0,1,53.91,25.99V48.279A26,26,0,0,1,27.916,74.273H26A26,26,0,0,1,0,48.279V26A26,26,0,0,1,26,0Z" transform="matrix(0.952, -0.306, 0.306, 0.952, 16.535, 51.85)" fill="#ae9ad9"/>
        <rect id="Rectangle_71" data-name="Rectangle 71" width="47.246" height="4.231" rx="2.104" transform="translate(83.927 36.627) rotate(-17.801)" fill="#ae9ad9"/>
        <rect id="Rectangle_72" data-name="Rectangle 72" width="47.246" height="4.231" rx="2.104" transform="translate(87.764 48.578) rotate(-17.801)" fill="#ae9ad9"/>
        <rect id="Rectangle_73" data-name="Rectangle 73" width="47.246" height="4.231" rx="2.104" transform="translate(91.601 60.528) rotate(-17.801)" fill="#ae9ad9"/>
        <path id="Path_81" data-name="Path 81" d="M1056.751,257.289l-104.016,33.4a2.056,2.056,0,0,1-2.579-1.325l-.04-.125a2.056,2.056,0,0,1,1.325-2.579l104.016-33.4a2.057,2.057,0,0,1,2.579,1.326l.04.125a2.056,2.056,0,0,1-1.325,2.578Z" transform="translate(-903.082 -148.012)" fill="#c9c3cc"/>
        <path id="Path_82" data-name="Path 82" d="M1061.148,270.985l-104.015,33.4a2.057,2.057,0,0,1-2.579-1.326l-.04-.125a2.056,2.056,0,0,1,1.325-2.579l104.016-33.4a2.055,2.055,0,0,1,2.578,1.325l.041.125A2.057,2.057,0,0,1,1061.148,270.985Z" transform="translate(-903.195 -148.365)" fill="#c9c3cc"/>
        <rect id="Rectangle_74" data-name="Rectangle 74" width="113.346" height="4.231" rx="2.104" transform="matrix(0.952, -0.306, 0.306, 0.952, 65.719, 199.415)" fill="#c9c3cc"/>
        <rect id="Rectangle_75" data-name="Rectangle 75" width="67.968" height="4.231" rx="2.104" transform="matrix(0.952, -0.306, 0.306, 0.952, 54.977, 165.959)" fill="#c9c3cc"/>
        <path id="Rectangle_76" data-name="Rectangle 76" d="M2.1,0H65.864a2.1,2.1,0,0,1,2.1,2.1v.023a2.1,2.1,0,0,1-2.1,2.1H2.1A2.1,2.1,0,0,1,0,2.128V2.1A2.1,2.1,0,0,1,2.1,0Z" transform="translate(61.137 185.142) rotate(-17.801)" fill="#c9c3cc"/>
        <g id="Group_138" data-name="Group 138" transform="translate(29.288 39.446)">
          <path id="Path_83" data-name="Path 83" d="M968.072,240.236l-17.883,5.742,2.661,8.285h0v.03c1.071,3.334,5.942,4.751,10.88,3.166s8.073-5.574,7-8.908c0-.01-.011-.018-.014-.027h0Z" transform="translate(-932.374 -187.125)" fill="#f0a79e"/>
          <g id="Group_137" data-name="Group 137">
            <path id="Path_84" data-name="Path 84" d="M941.18,197.6c-2.731-4.5.693-15.282,13.4-10.812s24.438,40.054,24.438,40.054-6.3,1.821-14.511-3.716S941.18,197.6,941.18,197.6Z" transform="translate(-932.119 -185.72)" fill="#4e40b5"/>
            <path id="Path_85" data-name="Path 85" d="M943.85,195.809c-16.862,5.414-12.21,20-7.961,31.335l3.715,1.089,13.287-4.267,13.288-4.266,2.386-3.048C965.419,204.961,960.712,190.394,943.85,195.809Z" transform="translate(-931.903 -185.95)" fill="#5546c5"/>
            <path id="Path_86" data-name="Path 86" d="M968.656,216.884a20.3,20.3,0,0,0-2.123,1.485c-4.906-15.279-11.168-16.272-19.7-13.534-9.929,3.188-13.264,6.843-8.233,22.513a20.565,20.565,0,0,0-2.624.028c-.479.113-1.364,1.8,1.046,6.953s4.614,4.947,5.726,4.408h0c4.543,7.916,11.911,12.351,18.278,10.306s9.774-9.935,8.863-19.014c1.218-.266,2.964-1.481,1.959-6.884C970.814,217.556,969.112,216.7,968.656,216.884Z" transform="translate(-931.993 -186.181)" fill="#f5b1a8"/>
            <path id="Path_87" data-name="Path 87" d="M946.807,204.8s5.308,17.119-8.233,22.513c-4.3-8.244-4.277-11.909-4.277-11.909l1.588-9,10.948-4.083Z" transform="translate(-931.964 -186.148)" fill="#5546c5"/>
            <path id="Path_88" data-name="Path 88" d="M946.816,204.823s5.823,16.942,19.973,13.445c-1.3-9.205-3.628-12.107-3.628-12.107l-6.528-6.39-11.279,3.054Z" transform="translate(-932.25 -186.082)" fill="#5546c5"/>
          </g>
        </g>
      </g>
      <g id="Group_141" data-name="Group 141" transform="translate(1127.911 263.388)">
        <g transform="matrix(1, 0, 0, 1, -739.91, -263.39)" filter="url(#Rectangle_77)">
          <rect id="Rectangle_77-2" data-name="Rectangle 77" width="163.533" height="229.263" transform="matrix(0.98, 0.19, -0.19, 0.98, 784.5, 263.39)" fill="#fff"/>
        </g>
        <rect id="Rectangle_78" data-name="Rectangle 78" width="62.102" height="85.559" rx="25.995" transform="matrix(0.981, 0.195, -0.195, 0.981, 56.528, 17.751)" fill="#ae9ad9"/>
        <g id="Group_140" data-name="Group 140" transform="translate(57.364 29.292)">
          <path id="Path_89" data-name="Path 89" d="M859.655,140.272c-20.011-3.968-23.473,13.323-25.53,27.118l3.134,3.172,15.77,3.127,15.77,3.127,4.107-1.737C876.269,161.544,879.666,144.24,859.655,140.272Z" transform="translate(-831.238 -139.694)" fill="#5546c5"/>
          <path id="Path_90" data-name="Path 90" d="M859.466,198.522l-21.223-4.209-1.949,9.832h.006c0,.012-.01.021-.013.033-.784,3.956,3.33,8.107,9.191,9.269s11.247-1.1,12.033-5.061v-.034h.006Z" transform="translate(-831.291 -141.102)" fill="#f0a79e"/>
          <path id="Path_91" data-name="Path 91" d="M872.83,175.35a23.236,23.236,0,0,0-2.968.308c3.595-18.131-2.159-22.631-12.28-24.638-11.782-2.337-17.182-.52-20.874,18.08a23.628,23.628,0,0,0-2.66-1.437c-.546-.154-2.38,1.053-2.83,7.588s1.883,7.562,3.3,7.641h0c.153,10.513,5.1,19.1,12.654,20.6s15.4-4.548,19.552-14.2c1.375.412,3.812.163,5.82-5.84C874.627,177.232,873.393,175.416,872.83,175.35Z" transform="translate(-831.162 -139.965)" fill="#f5b1a8"/>
          <path id="Path_92" data-name="Path 92" d="M865.988,154.011c-2.655,1.437-21.629,7.23-26.792,6.264,7.367-2.943,7.274-3.7,7.274-3.7l-7.274,2.638s1.9-9.987,8.121-11.117,20.067,1.275,20.067,1.275l.659,4.715Z" transform="translate(-831.369 -139.903)" fill="#5546c5"/>
        </g>
        <rect id="Rectangle_79" data-name="Rectangle 79" width="54.425" height="4.874" rx="2.424" transform="translate(132.92 40.073) rotate(11.186)" fill="#ae9ad9"/>
        <rect id="Rectangle_80" data-name="Rectangle 80" width="54.425" height="4.874" rx="2.424" transform="matrix(0.981, 0.194, -0.194, 0.981, 130.108, 54.256)" fill="#ae9ad9"/>
        <rect id="Rectangle_81" data-name="Rectangle 81" width="54.425" height="4.874" rx="2.424" transform="translate(127.295 68.438) rotate(11.186)" fill="#ae9ad9"/>
        <rect id="Rectangle_82" data-name="Rectangle 82" width="130.568" height="4.874" rx="2.424" transform="translate(39.219 115.205) rotate(11.186)" fill="#c9c3cc"/>
        <rect id="Rectangle_83" data-name="Rectangle 83" width="130.568" height="4.874" rx="2.424" transform="matrix(0.981, 0.194, -0.194, 0.981, 36.079, 131.04)" fill="#c9c3cc"/>
        <rect id="Rectangle_84" data-name="Rectangle 84" width="78.295" height="4.874" rx="2.424" transform="matrix(0.981, 0.194, -0.194, 0.981, 32.939, 146.875)" fill="#c9c3cc"/>
        <rect id="Rectangle_85" data-name="Rectangle 85" width="130.569" height="4.874" rx="2.424" transform="translate(28.997 165.52) rotate(11.186)" fill="#c9c3cc"/>
        <rect id="Rectangle_86" data-name="Rectangle 86" width="78.295" height="4.874" rx="2.424" transform="matrix(0.981, 0.194, -0.194, 0.981, 25.857, 181.356)" fill="#c9c3cc"/>
      </g>
      <g id="Group_145" data-name="Group 145" transform="translate(1114.813 239.905)">
        <g id="Group_144" data-name="Group 144" clip-path="url(#clip-path-3)">
          <g id="Group_143" data-name="Group 143" transform="translate(-40.131 -3.012)">
            <rect id="Rectangle_87" data-name="Rectangle 87" width="235.008" height="329.467" transform="matrix(0.981, 0.194, -0.194, 0.981, 64.081, 0)" fill="#f8f1fc"/>
            <rect id="Rectangle_88" data-name="Rectangle 88" width="89.244" height="122.955" rx="25.995" transform="matrix(0.981, 0.194, -0.194, 0.981, 81.234, 25.509)" fill="#ae9ad9"/>
            <g id="Group_142" data-name="Group 142" transform="translate(82.435 42.095)">
              <path id="Path_93" data-name="Path 93" d="M843.206,126.47c-28.756-5.7-33.733,19.145-36.687,38.969l4.5,4.559,22.661,4.493,22.662,4.494,5.9-2.5C867.083,157.038,871.964,132.172,843.206,126.47Z" transform="translate(-802.37 -125.64)" fill="#5546c5"/>
              <path id="Path_94" data-name="Path 94" d="M842.935,210.178l-30.5-6.047-2.8,14.129h.008c0,.017-.015.031-.018.048-1.127,5.686,4.785,11.649,13.208,13.32s16.163-1.586,17.292-7.273v-.05h.008Z" transform="translate(-802.447 -127.663)" fill="#f0a79e"/>
              <path id="Path_95" data-name="Path 95" d="M862.139,176.879a33.236,33.236,0,0,0-4.265.443c5.167-26.058-3.1-32.525-17.646-35.408-16.934-3.357-24.7-.744-30,25.981a34.027,34.027,0,0,0-3.822-2.066c-.783-.22-3.421,1.514-4.067,10.9s2.706,10.867,4.748,10.98h0c.22,15.107,7.325,27.444,18.185,29.6s22.128-6.534,28.1-20.408c1.976.592,5.478.235,8.364-8.392C864.723,179.584,862.949,176.975,862.139,176.879Z" transform="translate(-802.26 -126.03)" fill="#f5b1a8"/>
              <path id="Path_96" data-name="Path 96" d="M852.308,146.213c-3.816,2.065-31.082,10.39-38.5,9,10.587-4.229,10.451-5.312,10.451-5.312l-10.451,3.791s2.734-14.351,11.669-15.976,28.838,1.833,28.838,1.833l.948,6.777Z" transform="translate(-802.558 -125.94)" fill="#5546c5"/>
            </g>
            <path id="Rectangle_89" data-name="Rectangle 89" d="M2.582,0H75.631a2.581,2.581,0,0,1,2.581,2.581V4.423A2.582,2.582,0,0,1,75.631,7H2.581A2.581,2.581,0,0,1,0,4.423V2.582A2.582,2.582,0,0,1,2.582,0Z" transform="matrix(0.981, 0.194, -0.194, 0.981, 191.015, 57.588)" fill="#ae9ad9"/>
            <path id="Rectangle_90" data-name="Rectangle 90" d="M2.581,0h73.05a2.582,2.582,0,0,1,2.582,2.582V4.423A2.582,2.582,0,0,1,75.631,7H2.581A2.581,2.581,0,0,1,0,4.423V2.581A2.581,2.581,0,0,1,2.581,0Z" transform="matrix(0.981, 0.194, -0.194, 0.981, 186.974, 77.969)" fill="#ae9ad9"/>
            <path id="Rectangle_91" data-name="Rectangle 91" d="M2.582,0H75.631a2.581,2.581,0,0,1,2.581,2.581V4.423A2.581,2.581,0,0,1,75.631,7H2.581A2.581,2.581,0,0,1,0,4.423V2.582A2.582,2.582,0,0,1,2.582,0Z" transform="matrix(0.981, 0.194, -0.194, 0.981, 182.932, 98.35)" fill="#ae9ad9"/>
            <path id="Path_97" data-name="Path 97" d="M955.694,295.257,776.576,259.741a2.523,2.523,0,0,1-1.978-2.956l.385-1.938a2.522,2.522,0,0,1,2.956-1.978l179.119,35.517a2.522,2.522,0,0,1,1.978,2.956l-.384,1.937A2.523,2.523,0,0,1,955.694,295.257Z" transform="translate(-719.111 -86.824)" fill="#c9c3cc"/>
            <path id="Rectangle_92" data-name="Rectangle 92" d="M2.581,0H185.054a2.582,2.582,0,0,1,2.582,2.582V4.423A2.581,2.581,0,0,1,185.055,7H2.581A2.581,2.581,0,0,1,0,4.423V2.581A2.581,2.581,0,0,1,2.581,0Z" transform="matrix(0.981, 0.194, -0.194, 0.981, 51.848, 188.314)" fill="#c9c3cc"/>
            <path id="Rectangle_93" data-name="Rectangle 93" d="M2.582,0H109.935a2.581,2.581,0,0,1,2.581,2.581V4.423A2.581,2.581,0,0,1,109.935,7H2.581A2.581,2.581,0,0,1,0,4.423V2.582A2.582,2.582,0,0,1,2.582,0Z" transform="matrix(0.981, 0.194, -0.194, 0.981, 47.336, 211.07)" fill="#c9c3cc"/>
            <path id="Rectangle_94" data-name="Rectangle 94" d="M2.581,0H185.055a2.581,2.581,0,0,1,2.581,2.581V4.423A2.581,2.581,0,0,1,185.055,7H2.582A2.582,2.582,0,0,1,0,4.423V2.581A2.581,2.581,0,0,1,2.581,0Z" transform="matrix(0.981, 0.194, -0.194, 0.981, 41.67, 237.864)" fill="#c9c3cc"/>
            <path id="Rectangle_95" data-name="Rectangle 95" d="M2.581,0H109.935a2.581,2.581,0,0,1,2.581,2.581V4.423A2.581,2.581,0,0,1,109.935,7H2.582A2.582,2.582,0,0,1,0,4.423V2.581A2.581,2.581,0,0,1,2.581,0Z" transform="translate(37.158 260.621) rotate(11.186)" fill="#c9c3cc"/>
          </g>
        </g>
      </g>
      <path id="Path_98" data-name="Path 98" d="M921.413,369.256c1.011,4.174,6.427,13.389,13.171,18.967s14.279,9.863,16.443,7.259,5.436-8.139.186-14.8A155.846,155.846,0,0,0,937.9,366.5Z" transform="translate(351.787 147.139)" fill="url(#linear-gradient-4)"/>
      <path id="Path_99" data-name="Path 99" d="M921.413,369.256c.055.222.127.467.206.716,1.189,2.122,2.163,3.775,2.163,3.775s16.214,10.786,19.035,8.841,3.416-4.141,3.153-5.767a24.774,24.774,0,0,0-2.1-4.411c-3.278-3.4-5.964-5.912-5.964-5.912Z" transform="translate(351.787 147.139)" opacity="0.46" fill="url(#linear-gradient-7)"/>
      <path id="Path_100" data-name="Path 100" d="M915.283,342.914s-1.317,10.39-.328,13.4,6.283,11.994,6.283,11.994,16.214,10.786,19.035,8.84,3.416-4.141,3.152-5.767-5.969-11.01-9.545-18.221-9.063-23.471-9.063-23.471Z" transform="translate(351.963 148.088)" fill="url(#linear-gradient-4)"/>
      <path id="Path_101" data-name="Path 101" d="M933.89,353.16c-3.576-7.211-9.063-23.471-9.063-23.471l-9.367,12.994-.423,2.552h0c2.021,3.145,8.824,1.522,10.265-4.261,1.813,3.459,2.347,20.891,7.621,24.226a39.706,39.706,0,0,0,9.169,4.456l.266-.751C940.485,365.256,936.584,358.593,933.89,353.16Z" transform="translate(351.951 148.088)" opacity="0.46" fill="url(#linear-gradient-7)"/>
      <g transform="matrix(1, 0, 0, 1, 388, 0)" filter="url(#Path_102)">
        <path id="Path_102-2" data-name="Path 102" d="M1016.413,372.262s-31.6-39-37.6-48.2S970.376,309.08,956.23,306.2s-30.733-11.53-38.1-.909-14.079,19.135-8.774,28.7,6.207,14.092,10.116,11.456,4.9-5.8,4.293-13.126,7.91,11.73,6.756,18.506,17.939,37.046,39.533,45.721,132.778,136.6,132.778,136.6V431.037S1018.332,374.637,1016.413,372.262Z" transform="translate(-35.85 148.85)" fill="url(#linear-gradient-4)"/>
      </g>
      <path id="Path_103" data-name="Path 103" d="M958.822,336.3s-9.777-6.794-13.3-12.668-14.737-23.367-14.778-23.43c-5.142-.312-9.559.85-12.5,5.093-2.226,3.209-4.386,6.223-6.179,9.134-.371,2.062,11.217,20.991,11.973,21.788.016-1.153-.038-2.437-.159-3.891-.249-3.032,1.062-1.54,2.6,1.723Z" transform="translate(352.028 148.849)" fill="#ee8b7c" opacity="0.46"/>
      <path id="Path_104" data-name="Path 104" d="M953.59,367.442h0a12.683,12.683,0,0,1-17.069-5.333L880.873,255.89c-3.228-6.161,3.854-4.426,10.015-7.654l2.089-.654c6.161-3.228,7.071-9.59,10.3-3.429l55.648,106.218a12.683,12.683,0,0,1-5.335,17.071Z" transform="translate(352.853 150.359)" fill="#41ffe5"/>
      <g id="Group_147" data-name="Group 147" transform="translate(1256.556 434.086)">
        <path id="Path_105" data-name="Path 105" d="M943.56,322.175c-7.161-9.182-8.256-18.494-20.739-31.17-11.122-11.294-18.969-5.348-18.469,4.091s10.262,25.342,18.183,37.654c6.114,9.506,8.916,15.335,10.7,21.811l3.911,8.664a12.724,12.724,0,0,0,.678,1.141,39.741,39.741,0,0,0,8.508,5.446,12.55,12.55,0,0,0,7.883-1.254h0a12.683,12.683,0,0,0,5.333-17.07l-14.331-27.355C944.661,323.518,944.108,322.877,943.56,322.175Z" transform="translate(-904.329 -284.842)" fill="#ffdca2" opacity="0.41"/>
        <path id="Path_106" data-name="Path 106" d="M935.841,362.983c-3.487-8.981-2.977-15.783-10.9-28.1s-18.51-27.341-19.01-36.779,7.88-15.887,18.469-4.091,13.577,21.987,20.738,31.169,15.1,10.312,21.035,16.024,8.547,26.974.979,33.29S938.435,369.663,935.841,362.983Z" transform="translate(-904.37 -284.914)" fill="url(#linear-gradient-11)"/>
        <path id="Path_107" data-name="Path 107" d="M913.254,306.877c-4.043-7.435-5.82-12.883-2.329-15.388,4.855-3.484,11.313.834,16.377,9.939-2.537,4.416-11.778,8.6-12.308,8.176a15.405,15.405,0,0,1-1.74-2.727Z" transform="translate(-904.451 -284.982)" fill="#fff" opacity="0.2"/>
        <path id="Path_108" data-name="Path 108" d="M924.4,323.947s7.531-5.714,11.153-6.835C931.226,320.149,924.4,323.947,924.4,323.947Z" transform="translate(-904.846 -285.674)" fill="#ffdca2" opacity="0.46"/>
        <path id="Path_109" data-name="Path 109" d="M925.716,326.464s7.531-5.714,11.154-6.836C932.545,322.666,925.716,326.464,925.716,326.464Z" transform="translate(-904.88 -285.739)" fill="#ffdca2" opacity="0.46"/>
      </g>
      <circle id="Ellipse_8" data-name="Ellipse 8" cx="68.005" cy="68.005" r="68.005" transform="translate(1114.813 336.078) rotate(-45)" fill="#fff" opacity="0.67"/>
      <path id="Path_110" data-name="Path 110" d="M803.566,216.516a67.988,67.988,0,0,1,76.449-97.588,67.991,67.991,0,1,0-40.472,129.543,67.731,67.731,0,0,1-35.977-31.955Z" transform="translate(355.232 153.636)" fill="#e8e8e8" opacity="0.35"/>
      <path id="Path_111" data-name="Path 111" d="M819.084,112.7a78.425,78.425,0,1,0,105.864,33.075A78.425,78.425,0,0,0,819.084,112.7Zm67.954,129.7a68,68,0,1,1,28.679-91.8A68,68,0,0,1,887.038,242.4Z" transform="translate(355.508 153.912)" fill="#41ffe5"/>
      <path id="Path_112" data-name="Path 112" d="M910.466,257.9l-4.911-9.375a67.7,67.7,0,0,1-22.366,11.808l4.911,9.375A78.218,78.218,0,0,0,910.466,257.9Z" transform="translate(351.772 153.18)" fill="#41ebd4"/>
      <g id="Group_217" data-name="Group 217" transform="translate(845.135 120)">
        <g id="Group_151" data-name="Group 151">
          <g transform="matrix(1, 0, 0, 1, -457.14, -120)" filter="url(#Path_113)">
            <path id="Path_113-2" data-name="Path 113" d="M797.346,78.994,547.563,222.623l-65.54-119.084L727.4-37.554Z" transform="translate(-24.89 157.55)" fill="#fff"/>
          </g>
          <path id="Path_114" data-name="Path 114" d="M795.211,90.661,558.661,226.68l-9.365-.974L799.081,82.077Z" transform="translate(-483.757 34.47)" fill="#5546c5"/>
        </g>
        <g id="Group_216" data-name="Group 216" transform="translate(33.481 35.768)" opacity="0.1">
          <g id="Group_215" data-name="Group 215">
            <g id="Group_166" data-name="Group 166">
              <g id="tecla" transform="translate(0 114.288)">
                <g id="Group_152" data-name="Group 152">
                  <rect id="Rectangle_96" data-name="Rectangle 96" width="11.431" height="11.431" rx="1.142" transform="translate(0.425 5.675) rotate(-29.767)" fill="#5e57a7" opacity="0.34"/>
                  <path id="Rectangle_97" data-name="Rectangle 97" d="M1.049,0H9.842a1.05,1.05,0,0,1,1.05,1.05V9.842a1.049,1.049,0,0,1-1.049,1.049H1.049A1.049,1.049,0,0,1,0,9.842V1.049A1.049,1.049,0,0,1,1.049,0Z" transform="translate(0 5.626) rotate(-29.768)" fill="#5e57a7"/>
                  <rect id="Rectangle_98" data-name="Rectangle 98" width="10.198" height="10.198" rx="0.841" transform="matrix(0.868, -0.496, 0.496, 0.868, 0.473, 5.755)" fill="#5e57a7"/>
                </g>
              </g>
              <g id="tecla-2" data-name="tecla" transform="translate(15.353 105.506)">
                <g id="Group_153" data-name="Group 153">
                  <rect id="Rectangle_99" data-name="Rectangle 99" width="11.431" height="11.431" rx="1.142" transform="translate(0.425 5.675) rotate(-29.745)" fill="#5e57a7" opacity="0.34"/>
                  <rect id="Rectangle_100" data-name="Rectangle 100" width="10.891" height="10.891" rx="1.049" transform="translate(0 5.626) rotate(-29.766)" fill="#5e57a7"/>
                  <rect id="Rectangle_101" data-name="Rectangle 101" width="10.198" height="10.198" rx="0.841" transform="translate(0.473 5.755) rotate(-29.745)" fill="#5e57a7"/>
                </g>
              </g>
              <g id="tecla-3" data-name="tecla" transform="translate(30.706 96.725)">
                <g id="Group_154" data-name="Group 154">
                  <rect id="Rectangle_102" data-name="Rectangle 102" width="11.431" height="11.431" rx="1.142" transform="translate(0.425 5.675) rotate(-29.745)" fill="#5e57a7" opacity="0.34"/>
                  <path id="Rectangle_103" data-name="Rectangle 103" d="M1.049,0H9.842a1.049,1.049,0,0,1,1.049,1.049V9.842a1.049,1.049,0,0,1-1.049,1.049H1.05A1.05,1.05,0,0,1,0,9.842V1.049A1.049,1.049,0,0,1,1.049,0Z" transform="translate(0 5.626) rotate(-29.768)" fill="#5e57a7"/>
                  <rect id="Rectangle_104" data-name="Rectangle 104" width="10.198" height="10.198" rx="0.841" transform="matrix(0.868, -0.496, 0.496, 0.868, 0.473, 5.755)" fill="#5e57a7"/>
                </g>
              </g>
              <g id="tecla-4" data-name="tecla" transform="translate(46.059 87.944)">
                <g id="Group_155" data-name="Group 155">
                  <rect id="Rectangle_105" data-name="Rectangle 105" width="11.431" height="11.431" rx="1.142" transform="translate(0.425 5.675) rotate(-29.767)" fill="#5e57a7" opacity="0.34"/>
                  <rect id="Rectangle_106" data-name="Rectangle 106" width="10.891" height="10.891" rx="1.049" transform="translate(0 5.626) rotate(-29.765)" fill="#5e57a7"/>
                  <rect id="Rectangle_107" data-name="Rectangle 107" width="10.198" height="10.198" rx="0.841" transform="translate(0.473 5.755) rotate(-29.766)" fill="#5e57a7"/>
                </g>
              </g>
              <g id="tecla-5" data-name="tecla" transform="translate(61.412 79.163)">
                <g id="Group_156" data-name="Group 156">
                  <rect id="Rectangle_108" data-name="Rectangle 108" width="11.431" height="11.431" rx="1.142" transform="translate(0.425 5.675) rotate(-29.745)" fill="#5e57a7" opacity="0.34"/>
                  <path id="Rectangle_109" data-name="Rectangle 109" d="M1.049,0H9.842a1.05,1.05,0,0,1,1.05,1.05V9.842a1.049,1.049,0,0,1-1.049,1.049H1.05A1.05,1.05,0,0,1,0,9.842V1.049A1.049,1.049,0,0,1,1.049,0Z" transform="translate(0 5.627) rotate(-29.745)" fill="#5e57a7"/>
                  <rect id="Rectangle_110" data-name="Rectangle 110" width="10.198" height="10.198" rx="0.841" transform="matrix(0.868, -0.496, 0.496, 0.868, 0.473, 5.755)" fill="#5e57a7"/>
                </g>
              </g>
              <g id="tecla-6" data-name="tecla" transform="translate(76.766 70.382)">
                <g id="Group_157" data-name="Group 157">
                  <rect id="Rectangle_111" data-name="Rectangle 111" width="11.431" height="11.431" rx="1.142" transform="translate(0.425 5.675) rotate(-29.745)" fill="#5e57a7" opacity="0.34"/>
                  <path id="Rectangle_112" data-name="Rectangle 112" d="M1.049,0H9.842a1.049,1.049,0,0,1,1.049,1.049V9.842a1.05,1.05,0,0,1-1.05,1.05H1.049A1.049,1.049,0,0,1,0,9.842V1.049A1.049,1.049,0,0,1,1.049,0Z" transform="translate(0 5.626) rotate(-29.766)" fill="#5e57a7"/>
                  <rect id="Rectangle_113" data-name="Rectangle 113" width="10.198" height="10.198" rx="0.841" transform="translate(0.473 5.755) rotate(-29.766)" fill="#5e57a7"/>
                </g>
              </g>
              <g id="tecla-7" data-name="tecla" transform="translate(92.119 61.601)">
                <g id="Group_158" data-name="Group 158">
                  <rect id="Rectangle_114" data-name="Rectangle 114" width="11.431" height="11.431" rx="1.142" transform="translate(0.425 5.675) rotate(-29.745)" fill="#5e57a7" opacity="0.34"/>
                  <path id="Rectangle_115" data-name="Rectangle 115" d="M1.049,0H9.842a1.05,1.05,0,0,1,1.05,1.05V9.842a1.049,1.049,0,0,1-1.049,1.049H1.05A1.05,1.05,0,0,1,0,9.842V1.049A1.049,1.049,0,0,1,1.049,0Z" transform="translate(0 5.626) rotate(-29.768)" fill="#5e57a7"/>
                  <rect id="Rectangle_116" data-name="Rectangle 116" width="10.198" height="10.198" rx="0.841" transform="matrix(0.868, -0.496, 0.496, 0.868, 0.473, 5.755)" fill="#5e57a7"/>
                </g>
              </g>
              <g id="tecla-8" data-name="tecla" transform="translate(107.472 52.819)">
                <g id="Group_159" data-name="Group 159">
                  <rect id="Rectangle_117" data-name="Rectangle 117" width="11.431" height="11.431" rx="1.142" transform="translate(0.425 5.675) rotate(-29.767)" fill="#5e57a7" opacity="0.34"/>
                  <rect id="Rectangle_118" data-name="Rectangle 118" width="10.891" height="10.891" rx="1.049" transform="translate(0 5.626) rotate(-29.745)" fill="#5e57a7"/>
                  <rect id="Rectangle_119" data-name="Rectangle 119" width="10.198" height="10.198" rx="0.841" transform="translate(0.473 5.755) rotate(-29.766)" fill="#5e57a7"/>
                </g>
              </g>
              <g id="tecla-9" data-name="tecla" transform="translate(122.825 44.038)">
                <g id="Group_160" data-name="Group 160">
                  <rect id="Rectangle_120" data-name="Rectangle 120" width="11.431" height="11.431" rx="1.142" transform="translate(0.425 5.675) rotate(-29.745)" fill="#5e57a7" opacity="0.34"/>
                  <path id="Rectangle_121" data-name="Rectangle 121" d="M1.049,0H9.842a1.05,1.05,0,0,1,1.05,1.05V9.842a1.049,1.049,0,0,1-1.049,1.049H1.049A1.049,1.049,0,0,1,0,9.842V1.049A1.049,1.049,0,0,1,1.049,0Z" transform="translate(0 5.627) rotate(-29.795)" fill="#5e57a7"/>
                  <rect id="Rectangle_122" data-name="Rectangle 122" width="10.198" height="10.198" rx="0.841" transform="matrix(0.868, -0.497, 0.497, 0.868, 0.473, 5.755)" fill="#5e57a7"/>
                </g>
              </g>
              <g id="tecla-10" data-name="tecla" transform="translate(138.41 35.125)">
                <g id="Group_161" data-name="Group 161">
                  <rect id="Rectangle_123" data-name="Rectangle 123" width="11.431" height="11.431" rx="1.142" transform="translate(0.425 5.675) rotate(-29.768)" fill="#5e57a7" opacity="0.34"/>
                  <path id="Rectangle_124" data-name="Rectangle 124" d="M1.049,0H9.842a1.05,1.05,0,0,1,1.05,1.05V9.842a1.049,1.049,0,0,1-1.049,1.049H1.049A1.049,1.049,0,0,1,0,9.842V1.049A1.049,1.049,0,0,1,1.049,0Z" transform="translate(0 5.627) rotate(-29.745)" fill="#5e57a7"/>
                  <rect id="Rectangle_125" data-name="Rectangle 125" width="10.198" height="10.198" rx="0.841" transform="matrix(0.868, -0.496, 0.496, 0.868, 0.473, 5.755)" fill="#5e57a7"/>
                </g>
              </g>
              <g id="tecla-11" data-name="tecla" transform="translate(153.763 26.343)">
                <g id="Group_162" data-name="Group 162">
                  <rect id="Rectangle_126" data-name="Rectangle 126" width="11.431" height="11.431" rx="1.142" transform="translate(0.425 5.675) rotate(-29.767)" fill="#5e57a7" opacity="0.34"/>
                  <path id="Rectangle_127" data-name="Rectangle 127" d="M1.05,0H9.842a1.049,1.049,0,0,1,1.049,1.049V9.842a1.049,1.049,0,0,1-1.049,1.049H1.049A1.049,1.049,0,0,1,0,9.842V1.05A1.05,1.05,0,0,1,1.05,0Z" transform="translate(0 5.626) rotate(-29.766)" fill="#5e57a7"/>
                  <rect id="Rectangle_128" data-name="Rectangle 128" width="10.198" height="10.198" rx="0.841" transform="translate(0.473 5.755) rotate(-29.766)" fill="#5e57a7"/>
                </g>
              </g>
              <g id="tecla-12" data-name="tecla" transform="translate(169.116 17.562)">
                <g id="Group_163" data-name="Group 163">
                  <rect id="Rectangle_129" data-name="Rectangle 129" width="11.431" height="11.431" rx="1.142" transform="translate(0.425 5.675) rotate(-29.745)" fill="#5e57a7" opacity="0.34"/>
                  <rect id="Rectangle_130" data-name="Rectangle 130" width="10.891" height="10.891" rx="1.049" transform="translate(0 5.626) rotate(-29.745)" fill="#5e57a7"/>
                  <rect id="Rectangle_131" data-name="Rectangle 131" width="10.198" height="10.198" rx="0.841" transform="matrix(0.868, -0.496, 0.496, 0.868, 0.473, 5.755)" fill="#5e57a7"/>
                </g>
              </g>
              <g id="tecla-13" data-name="tecla" transform="translate(184.469 8.781)">
                <g id="Group_164" data-name="Group 164">
                  <rect id="Rectangle_132" data-name="Rectangle 132" width="11.431" height="11.431" rx="1.142" transform="translate(0.425 5.675) rotate(-29.767)" fill="#5e57a7" opacity="0.34"/>
                  <path id="Rectangle_133" data-name="Rectangle 133" d="M1.05,0H9.842a1.049,1.049,0,0,1,1.049,1.049V9.842a1.05,1.05,0,0,1-1.05,1.05H1.049A1.049,1.049,0,0,1,0,9.842V1.05A1.05,1.05,0,0,1,1.05,0Z" transform="translate(0 5.626) rotate(-29.766)" fill="#5e57a7"/>
                  <rect id="Rectangle_134" data-name="Rectangle 134" width="10.198" height="10.198" rx="0.841" transform="translate(0.473 5.755) rotate(-29.766)" fill="#5e57a7"/>
                </g>
              </g>
              <g id="tecla-14" data-name="tecla" transform="translate(199.822)">
                <g id="Group_165" data-name="Group 165">
                  <rect id="Rectangle_135" data-name="Rectangle 135" width="11.431" height="11.431" rx="1.142" transform="translate(0.425 5.675) rotate(-29.745)" fill="#5e57a7" opacity="0.34"/>
                  <rect id="Rectangle_136" data-name="Rectangle 136" width="10.891" height="10.891" rx="1.049" transform="translate(0 5.627) rotate(-29.745)" fill="#5e57a7"/>
                  <rect id="Rectangle_137" data-name="Rectangle 137" width="10.198" height="10.198" rx="0.841" transform="matrix(0.868, -0.496, 0.496, 0.868, 0.473, 5.755)" fill="#5e57a7"/>
                </g>
              </g>
            </g>
            <g id="Group_181" data-name="Group 181" transform="translate(24.819 44.086)">
              <g id="tecla-15" data-name="tecla" transform="translate(0 113.595)">
                <g id="Group_167" data-name="Group 167">
                  <rect id="Rectangle_138" data-name="Rectangle 138" width="11.431" height="11.431" rx="1.142" transform="translate(0.425 5.675) rotate(-29.768)" fill="#5e57a7" opacity="0.34"/>
                  <path id="Rectangle_139" data-name="Rectangle 139" d="M1.049,0H9.842a1.05,1.05,0,0,1,1.05,1.05V9.842a1.05,1.05,0,0,1-1.05,1.05H1.049A1.049,1.049,0,0,1,0,9.842V1.049A1.049,1.049,0,0,1,1.049,0Z" transform="translate(0 5.627) rotate(-29.745)" fill="#5e57a7"/>
                  <rect id="Rectangle_140" data-name="Rectangle 140" width="10.198" height="10.198" rx="0.841" transform="translate(0.473 5.755) rotate(-29.767)" fill="#5e57a7"/>
                </g>
              </g>
              <g id="tecla-16" data-name="tecla" transform="translate(15.353 104.814)">
                <g id="Group_168" data-name="Group 168">
                  <rect id="Rectangle_141" data-name="Rectangle 141" width="11.431" height="11.431" rx="1.142" transform="translate(0.425 5.675) rotate(-29.768)" fill="#5e57a7" opacity="0.34"/>
                  <rect id="Rectangle_142" data-name="Rectangle 142" width="10.891" height="10.891" rx="1.049" transform="translate(0 5.626) rotate(-29.766)" fill="#5e57a7"/>
                  <rect id="Rectangle_143" data-name="Rectangle 143" width="10.198" height="10.198" rx="0.841" transform="translate(0.473 5.755) rotate(-29.767)" fill="#5e57a7"/>
                </g>
              </g>
              <g id="tecla-17" data-name="tecla" transform="translate(30.706 96.033)">
                <g id="Group_169" data-name="Group 169">
                  <rect id="Rectangle_144" data-name="Rectangle 144" width="11.431" height="11.431" rx="1.142" transform="translate(0.425 5.675) rotate(-29.767)" fill="#5e57a7" opacity="0.34"/>
                  <rect id="Rectangle_145" data-name="Rectangle 145" width="10.891" height="10.891" rx="1.049" transform="translate(0 5.627) rotate(-29.745)" fill="#5e57a7"/>
                  <rect id="Rectangle_146" data-name="Rectangle 146" width="10.198" height="10.198" rx="0.841" transform="translate(0.473 5.755) rotate(-29.767)" fill="#5e57a7"/>
                </g>
              </g>
              <g id="tecla-18" data-name="tecla" transform="translate(46.059 87.252)">
                <g id="Group_170" data-name="Group 170">
                  <rect id="Rectangle_147" data-name="Rectangle 147" width="11.431" height="11.431" rx="1.142" transform="translate(0.425 5.675) rotate(-29.767)" fill="#5e57a7" opacity="0.34"/>
                  <rect id="Rectangle_148" data-name="Rectangle 148" width="10.891" height="10.891" rx="1.049" transform="translate(0 5.626) rotate(-29.766)" fill="#5e57a7"/>
                  <rect id="Rectangle_149" data-name="Rectangle 149" width="10.198" height="10.198" rx="0.841" transform="translate(0.473 5.755) rotate(-29.767)" fill="#5e57a7"/>
                </g>
              </g>
              <g id="tecla-19" data-name="tecla" transform="translate(61.412 78.471)">
                <g id="Group_171" data-name="Group 171">
                  <rect id="Rectangle_150" data-name="Rectangle 150" width="11.431" height="11.431" rx="1.142" transform="translate(0.425 5.675) rotate(-29.767)" fill="#5e57a7" opacity="0.34"/>
                  <path id="Rectangle_151" data-name="Rectangle 151" d="M1.049,0H9.842a1.049,1.049,0,0,1,1.049,1.049V9.842a1.05,1.05,0,0,1-1.05,1.05H1.049A1.049,1.049,0,0,1,0,9.842V1.049A1.049,1.049,0,0,1,1.049,0Z" transform="matrix(0.868, -0.496, 0.496, 0.868, 0, 5.627)" fill="#5e57a7"/>
                  <rect id="Rectangle_152" data-name="Rectangle 152" width="10.198" height="10.198" rx="0.841" transform="translate(0.473 5.755) rotate(-29.766)" fill="#5e57a7"/>
                </g>
              </g>
              <g id="tecla-20" data-name="tecla" transform="translate(76.766 69.69)">
                <g id="Group_172" data-name="Group 172">
                  <rect id="Rectangle_153" data-name="Rectangle 153" width="11.431" height="11.431" rx="1.142" transform="translate(0.425 5.675) rotate(-29.745)" fill="#5e57a7" opacity="0.34"/>
                  <rect id="Rectangle_154" data-name="Rectangle 154" width="10.891" height="10.891" rx="1.049" transform="translate(0 5.626) rotate(-29.766)" fill="#5e57a7"/>
                  <rect id="Rectangle_155" data-name="Rectangle 155" width="10.198" height="10.198" rx="0.841" transform="translate(0.473 5.755) rotate(-29.766)" fill="#5e57a7"/>
                </g>
              </g>
              <g id="tecla-21" data-name="tecla" transform="translate(92.119 60.909)">
                <g id="Group_173" data-name="Group 173">
                  <rect id="Rectangle_156" data-name="Rectangle 156" width="11.431" height="11.431" rx="1.142" transform="translate(0.425 5.675) rotate(-29.767)" fill="#5e57a7" opacity="0.34"/>
                  <rect id="Rectangle_157" data-name="Rectangle 157" width="10.891" height="10.891" rx="1.049" transform="translate(0 5.626) rotate(-29.768)" fill="#5e57a7"/>
                  <rect id="Rectangle_158" data-name="Rectangle 158" width="10.198" height="10.198" rx="0.841" transform="translate(0.473 5.755) rotate(-29.766)" fill="#5e57a7"/>
                </g>
              </g>
              <g id="tecla-22" data-name="tecla" transform="translate(107.472 52.127)">
                <g id="Group_174" data-name="Group 174">
                  <rect id="Rectangle_159" data-name="Rectangle 159" width="11.431" height="11.431" rx="1.142" transform="translate(0.425 5.675) rotate(-29.745)" fill="#5e57a7" opacity="0.34"/>
                  <rect id="Rectangle_160" data-name="Rectangle 160" width="10.891" height="10.891" rx="1.049" transform="translate(0 5.626) rotate(-29.766)" fill="#5e57a7"/>
                  <rect id="Rectangle_161" data-name="Rectangle 161" width="10.198" height="10.198" rx="0.841" transform="translate(0.473 5.755) rotate(-29.766)" fill="#5e57a7"/>
                </g>
              </g>
              <g id="tecla-23" data-name="tecla" transform="translate(122.825 43.346)">
                <g id="Group_175" data-name="Group 175">
                  <rect id="Rectangle_162" data-name="Rectangle 162" width="11.431" height="11.431" rx="1.142" transform="translate(0.425 5.675) rotate(-29.767)" fill="#5e57a7" opacity="0.34"/>
                  <path id="Rectangle_163" data-name="Rectangle 163" d="M1.049,0H9.842a1.049,1.049,0,0,1,1.049,1.049V9.842a1.05,1.05,0,0,1-1.05,1.05H1.049A1.049,1.049,0,0,1,0,9.842V1.049A1.049,1.049,0,0,1,1.049,0Z" transform="matrix(0.868, -0.496, 0.496, 0.868, 0, 5.627)" fill="#5e57a7"/>
                  <rect id="Rectangle_164" data-name="Rectangle 164" width="10.198" height="10.198" rx="0.841" transform="translate(0.473 5.755) rotate(-29.767)" fill="#5e57a7"/>
                </g>
              </g>
              <g id="tecla-24" data-name="tecla" transform="translate(138.41 34.433)">
                <g id="Group_176" data-name="Group 176">
                  <rect id="Rectangle_165" data-name="Rectangle 165" width="11.431" height="11.431" rx="1.142" transform="translate(0.425 5.675) rotate(-29.767)" fill="#5e57a7" opacity="0.34"/>
                  <path id="Rectangle_166" data-name="Rectangle 166" d="M1.049,0H9.842a1.05,1.05,0,0,1,1.05,1.05V9.842a1.049,1.049,0,0,1-1.049,1.049H1.05A1.05,1.05,0,0,1,0,9.842V1.049A1.049,1.049,0,0,1,1.049,0Z" transform="translate(0 5.627) rotate(-29.745)" fill="#5e57a7"/>
                  <rect id="Rectangle_167" data-name="Rectangle 167" width="10.198" height="10.198" rx="0.841" transform="translate(0.473 5.755) rotate(-29.766)" fill="#5e57a7"/>
                </g>
              </g>
              <g id="tecla-25" data-name="tecla" transform="translate(153.763 25.651)">
                <g id="Group_177" data-name="Group 177">
                  <rect id="Rectangle_168" data-name="Rectangle 168" width="11.431" height="11.431" rx="1.142" transform="translate(0.425 5.675) rotate(-29.767)" fill="#5e57a7" opacity="0.34"/>
                  <rect id="Rectangle_169" data-name="Rectangle 169" width="10.891" height="10.891" rx="1.049" transform="translate(0 5.626) rotate(-29.766)" fill="#5e57a7"/>
                  <rect id="Rectangle_170" data-name="Rectangle 170" width="10.198" height="10.198" rx="0.841" transform="translate(0.473 5.755) rotate(-29.745)" fill="#5e57a7"/>
                </g>
              </g>
              <g id="tecla-26" data-name="tecla" transform="translate(169.116 16.87)">
                <g id="Group_178" data-name="Group 178">
                  <rect id="Rectangle_171" data-name="Rectangle 171" width="11.431" height="11.431" rx="1.142" transform="translate(0.425 5.675) rotate(-29.767)" fill="#5e57a7" opacity="0.34"/>
                  <path id="Rectangle_172" data-name="Rectangle 172" d="M1.049,0H9.842a1.05,1.05,0,0,1,1.05,1.05V9.842a1.049,1.049,0,0,1-1.049,1.049H1.049A1.049,1.049,0,0,1,0,9.842V1.049A1.049,1.049,0,0,1,1.049,0Z" transform="translate(0 5.627) rotate(-29.768)" fill="#5e57a7"/>
                  <rect id="Rectangle_173" data-name="Rectangle 173" width="10.198" height="10.198" rx="0.841" transform="translate(0.473 5.755) rotate(-29.766)" fill="#5e57a7"/>
                </g>
              </g>
              <g id="tecla-27" data-name="tecla" transform="translate(184.469 8.089)">
                <g id="Group_179" data-name="Group 179">
                  <rect id="Rectangle_174" data-name="Rectangle 174" width="11.431" height="11.431" rx="1.142" transform="translate(0.425 5.675) rotate(-29.745)" fill="#5e57a7" opacity="0.34"/>
                  <path id="Rectangle_175" data-name="Rectangle 175" d="M1.049,0H9.842a1.05,1.05,0,0,1,1.05,1.05V9.842a1.049,1.049,0,0,1-1.049,1.049H1.049A1.049,1.049,0,0,1,0,9.842V1.049A1.049,1.049,0,0,1,1.049,0Z" transform="translate(0 5.626) rotate(-29.765)" fill="#5e57a7"/>
                  <rect id="Rectangle_176" data-name="Rectangle 176" width="10.198" height="10.198" rx="0.841" transform="translate(0.473 5.755) rotate(-29.766)" fill="#5e57a7"/>
                </g>
              </g>
              <g id="tecla-28" data-name="tecla" transform="translate(200.295)">
                <g id="Group_180" data-name="Group 180">
                  <rect id="Rectangle_177" data-name="Rectangle 177" width="10.198" height="10.198" rx="0.841" transform="translate(0 5.063) rotate(-29.745)" fill="#5e57a7"/>
                </g>
              </g>
            </g>
            <g id="Group_195" data-name="Group 195" transform="translate(8.732 15.267)">
              <g id="tecla-29" data-name="tecla" transform="translate(0 114.288)">
                <g id="Group_182" data-name="Group 182">
                  <rect id="Rectangle_178" data-name="Rectangle 178" width="11.431" height="11.431" rx="1.142" transform="translate(0.425 5.675) rotate(-29.745)" fill="#5e57a7" opacity="0.34"/>
                  <path id="Rectangle_179" data-name="Rectangle 179" d="M1.049,0H9.842a1.049,1.049,0,0,1,1.049,1.049V9.842a1.05,1.05,0,0,1-1.05,1.05H1.049A1.049,1.049,0,0,1,0,9.842V1.049A1.049,1.049,0,0,1,1.049,0Z" transform="translate(0 5.626) rotate(-29.745)" fill="#5e57a7"/>
                  <rect id="Rectangle_180" data-name="Rectangle 180" width="10.198" height="10.198" rx="0.841" transform="translate(0.473 5.755) rotate(-29.767)" fill="#5e57a7"/>
                </g>
              </g>
              <g id="tecla-30" data-name="tecla" transform="translate(15.353 105.507)">
                <g id="Group_183" data-name="Group 183">
                  <rect id="Rectangle_181" data-name="Rectangle 181" width="11.431" height="11.431" rx="1.142" transform="translate(0.425 5.675) rotate(-29.768)" fill="#5e57a7" opacity="0.34"/>
                  <path id="Rectangle_182" data-name="Rectangle 182" d="M1.05,0H9.842a1.05,1.05,0,0,1,1.05,1.05V9.842a1.049,1.049,0,0,1-1.049,1.049H1.05A1.05,1.05,0,0,1,0,9.842V1.05A1.05,1.05,0,0,1,1.05,0Z" transform="translate(0 5.626) rotate(-29.768)" fill="#5e57a7"/>
                  <rect id="Rectangle_183" data-name="Rectangle 183" width="10.198" height="10.198" rx="0.841" transform="translate(0.473 5.755) rotate(-29.766)" fill="#5e57a7"/>
                </g>
              </g>
              <g id="tecla-31" data-name="tecla" transform="translate(30.706 96.725)">
                <g id="Group_184" data-name="Group 184">
                  <rect id="Rectangle_184" data-name="Rectangle 184" width="11.431" height="11.431" rx="1.142" transform="translate(0.425 5.675) rotate(-29.767)" fill="#5e57a7" opacity="0.34"/>
                  <rect id="Rectangle_185" data-name="Rectangle 185" width="10.891" height="10.891" rx="1.049" transform="translate(0 5.626) rotate(-29.766)" fill="#5e57a7"/>
                  <rect id="Rectangle_186" data-name="Rectangle 186" width="10.198" height="10.198" rx="0.841" transform="translate(0.473 5.755) rotate(-29.767)" fill="#5e57a7"/>
                </g>
              </g>
              <g id="tecla-32" data-name="tecla" transform="translate(46.059 87.944)">
                <g id="Group_185" data-name="Group 185">
                  <rect id="Rectangle_187" data-name="Rectangle 187" width="11.431" height="11.431" rx="1.142" transform="translate(0.425 5.675) rotate(-29.767)" fill="#5e57a7" opacity="0.34"/>
                  <path id="Rectangle_188" data-name="Rectangle 188" d="M1.049,0H9.842a1.05,1.05,0,0,1,1.05,1.05V9.842a1.049,1.049,0,0,1-1.049,1.049H1.05A1.05,1.05,0,0,1,0,9.842V1.049A1.049,1.049,0,0,1,1.049,0Z" transform="translate(0 5.626) rotate(-29.745)" fill="#5e57a7"/>
                  <rect id="Rectangle_189" data-name="Rectangle 189" width="10.198" height="10.198" rx="0.841" transform="translate(0.473 5.755) rotate(-29.745)" fill="#5e57a7"/>
                </g>
              </g>
              <g id="tecla-33" data-name="tecla" transform="translate(61.412 79.163)">
                <g id="Group_186" data-name="Group 186">
                  <rect id="Rectangle_190" data-name="Rectangle 190" width="11.431" height="11.431" rx="1.142" transform="translate(0.425 5.675) rotate(-29.745)" fill="#5e57a7" opacity="0.34"/>
                  <path id="Rectangle_191" data-name="Rectangle 191" d="M1.049,0H9.842a1.05,1.05,0,0,1,1.05,1.05V9.842a1.049,1.049,0,0,1-1.049,1.049H1.049A1.049,1.049,0,0,1,0,9.842V1.049A1.049,1.049,0,0,1,1.049,0Z" transform="translate(0 5.626) rotate(-29.765)" fill="#5e57a7"/>
                  <rect id="Rectangle_192" data-name="Rectangle 192" width="10.198" height="10.198" rx="0.841" transform="translate(0.473 5.755) rotate(-29.766)" fill="#5e57a7"/>
                </g>
              </g>
              <g id="tecla-34" data-name="tecla" transform="translate(76.765 70.382)">
                <g id="Group_187" data-name="Group 187">
                  <rect id="Rectangle_193" data-name="Rectangle 193" width="11.431" height="11.431" rx="1.142" transform="translate(0.425 5.675) rotate(-29.745)" fill="#5e57a7" opacity="0.34"/>
                  <path id="Rectangle_194" data-name="Rectangle 194" d="M1.049,0H9.842a1.049,1.049,0,0,1,1.049,1.049V9.842a1.049,1.049,0,0,1-1.049,1.049H1.05A1.05,1.05,0,0,1,0,9.842V1.049A1.049,1.049,0,0,1,1.049,0Z" transform="translate(0 5.627) rotate(-29.745)" fill="#5e57a7"/>
                  <rect id="Rectangle_195" data-name="Rectangle 195" width="10.198" height="10.198" rx="0.841" transform="translate(0.473 5.755) rotate(-29.766)" fill="#5e57a7"/>
                </g>
              </g>
              <g id="tecla-35" data-name="tecla" transform="translate(92.119 61.601)">
                <g id="Group_188" data-name="Group 188">
                  <rect id="Rectangle_196" data-name="Rectangle 196" width="11.431" height="11.431" rx="1.142" transform="translate(0.425 5.675) rotate(-29.745)" fill="#5e57a7" opacity="0.34"/>
                  <rect id="Rectangle_197" data-name="Rectangle 197" width="10.891" height="10.891" rx="1.049" transform="translate(0 5.626) rotate(-29.745)" fill="#5e57a7"/>
                  <rect id="Rectangle_198" data-name="Rectangle 198" width="10.198" height="10.198" rx="0.841" transform="translate(0.473 5.755) rotate(-29.766)" fill="#5e57a7"/>
                </g>
              </g>
              <g id="tecla-36" data-name="tecla" transform="translate(107.472 52.819)">
                <g id="Group_189" data-name="Group 189">
                  <rect id="Rectangle_199" data-name="Rectangle 199" width="11.431" height="11.431" rx="1.142" transform="translate(0.425 5.675) rotate(-29.767)" fill="#5e57a7" opacity="0.34"/>
                  <rect id="Rectangle_200" data-name="Rectangle 200" width="10.891" height="10.891" rx="1.049" transform="matrix(0.868, -0.496, 0.496, 0.868, 0, 5.627)" fill="#5e57a7"/>
                  <rect id="Rectangle_201" data-name="Rectangle 201" width="10.198" height="10.198" rx="0.841" transform="translate(0.473 5.755) rotate(-29.767)" fill="#5e57a7"/>
                </g>
              </g>
              <g id="tecla-37" data-name="tecla" transform="translate(122.825 44.038)">
                <g id="Group_190" data-name="Group 190">
                  <rect id="Rectangle_202" data-name="Rectangle 202" width="11.431" height="11.431" rx="1.142" transform="translate(0.425 5.675) rotate(-29.745)" fill="#5e57a7" opacity="0.34"/>
                  <rect id="Rectangle_203" data-name="Rectangle 203" width="10.891" height="10.891" rx="1.049" transform="translate(0 5.626) rotate(-29.766)" fill="#5e57a7"/>
                  <rect id="Rectangle_204" data-name="Rectangle 204" width="10.198" height="10.198" rx="0.841" transform="translate(0.473 5.755) rotate(-29.766)" fill="#5e57a7"/>
                </g>
              </g>
              <g id="tecla-38" data-name="tecla" transform="translate(138.41 35.125)">
                <g id="Group_191" data-name="Group 191">
                  <rect id="Rectangle_205" data-name="Rectangle 205" width="11.431" height="11.431" rx="1.142" transform="translate(0.425 5.675) rotate(-29.767)" fill="#5e57a7" opacity="0.34"/>
                  <rect id="Rectangle_206" data-name="Rectangle 206" width="10.891" height="10.891" rx="1.049" transform="translate(0 5.626) rotate(-29.766)" fill="#5e57a7"/>
                  <rect id="Rectangle_207" data-name="Rectangle 207" width="10.198" height="10.198" rx="0.841" transform="translate(0.473 5.755) rotate(-29.767)" fill="#5e57a7"/>
                </g>
              </g>
              <g id="tecla-39" data-name="tecla" transform="translate(153.763 26.344)">
                <g id="Group_192" data-name="Group 192">
                  <rect id="Rectangle_208" data-name="Rectangle 208" width="11.431" height="11.431" rx="1.142" transform="translate(0.426 5.675) rotate(-29.745)" fill="#5e57a7" opacity="0.34"/>
                  <rect id="Rectangle_209" data-name="Rectangle 209" width="10.891" height="10.891" rx="1.049" transform="translate(0 5.626) rotate(-29.768)" fill="#5e57a7"/>
                  <rect id="Rectangle_210" data-name="Rectangle 210" width="10.198" height="10.198" rx="0.841" transform="matrix(0.868, -0.496, 0.496, 0.868, 0.473, 5.755)" fill="#5e57a7"/>
                </g>
              </g>
              <g id="tecla-40" data-name="tecla" transform="translate(169.116 17.562)">
                <g id="Group_193" data-name="Group 193">
                  <rect id="Rectangle_211" data-name="Rectangle 211" width="11.431" height="11.431" rx="1.142" transform="translate(0.425 5.675) rotate(-29.767)" fill="#5e57a7" opacity="0.34"/>
                  <path id="Rectangle_212" data-name="Rectangle 212" d="M1.049,0H9.842a1.049,1.049,0,0,1,1.049,1.049V9.842a1.049,1.049,0,0,1-1.049,1.049H1.05A1.05,1.05,0,0,1,0,9.841V1.049A1.049,1.049,0,0,1,1.049,0Z" transform="translate(0 5.626) rotate(-29.766)" fill="#5e57a7"/>
                  <rect id="Rectangle_213" data-name="Rectangle 213" width="10.198" height="10.198" rx="0.841" transform="translate(0.473 5.755) rotate(-29.767)" fill="#5e57a7"/>
                </g>
              </g>
              <g id="tecla-41" data-name="tecla" transform="translate(184.186)">
                <g id="Group_194" data-name="Group 194">
                  <rect id="Rectangle_214" data-name="Rectangle 214" width="29.444" height="11.431" rx="1.142" transform="translate(0.425 14.618) rotate(-29.767)" fill="#5e57a7" opacity="0.34"/>
                  <path id="Rectangle_215" data-name="Rectangle 215" d="M1.049,0H27.855A1.05,1.05,0,0,1,28.9,1.05V9.842a1.049,1.049,0,0,1-1.049,1.049H1.05A1.05,1.05,0,0,1,0,9.842V1.049A1.049,1.049,0,0,1,1.049,0Z" transform="translate(0 14.569) rotate(-29.745)" fill="#5e57a7"/>
                  <rect id="Rectangle_216" data-name="Rectangle 216" width="28.211" height="10.198" rx="0.841" transform="translate(0.473 14.698) rotate(-29.767)" fill="#5e57a7"/>
                </g>
              </g>
            </g>
            <g id="tecla-42" data-name="tecla" transform="translate(191.725 43.794)">
              <g id="Group_196" data-name="Group 196">
                <rect id="Rectangle_217" data-name="Rectangle 217" width="11.431" height="11.431" rx="1.142" transform="translate(0.425 5.675) rotate(-29.745)" fill="#5e57a7" opacity="0.34"/>
                <rect id="Rectangle_218" data-name="Rectangle 218" width="10.891" height="10.891" rx="1.049" transform="translate(0 5.626) rotate(-29.745)" fill="#5e57a7"/>
                <rect id="Rectangle_219" data-name="Rectangle 219" width="10.198" height="10.198" rx="0.841" transform="translate(0.473 5.755) rotate(-29.767)" fill="#5e57a7"/>
              </g>
            </g>
            <g id="tecla-43" data-name="tecla" transform="translate(173.826 54.031)">
              <g id="Group_197" data-name="Group 197">
                <rect id="Rectangle_220" data-name="Rectangle 220" width="11.431" height="11.431" rx="1.142" transform="translate(0.425 5.675) rotate(-29.745)" fill="#5e57a7" opacity="0.34"/>
                <rect id="Rectangle_221" data-name="Rectangle 221" width="10.891" height="10.891" rx="1.049" transform="translate(0 5.626) rotate(-29.745)" fill="#5e57a7"/>
                <rect id="Rectangle_222" data-name="Rectangle 222" width="10.198" height="10.198" rx="0.841" transform="matrix(0.868, -0.496, 0.496, 0.868, 0.473, 5.755)" fill="#5e57a7"/>
              </g>
            </g>
            <g id="tecla-44" data-name="tecla" transform="translate(155.927 64.269)">
              <g id="Group_198" data-name="Group 198">
                <rect id="Rectangle_223" data-name="Rectangle 223" width="11.431" height="11.431" rx="1.142" transform="translate(0.425 5.675) rotate(-29.745)" fill="#5e57a7" opacity="0.34"/>
                <path id="Rectangle_224" data-name="Rectangle 224" d="M1.049,0H9.842a1.049,1.049,0,0,1,1.049,1.049V9.842a1.049,1.049,0,0,1-1.049,1.049H1.05A1.05,1.05,0,0,1,0,9.842V1.049A1.049,1.049,0,0,1,1.049,0Z" transform="translate(0 5.626) rotate(-29.768)" fill="#5e57a7"/>
                <rect id="Rectangle_225" data-name="Rectangle 225" width="10.198" height="10.198" rx="0.841" transform="matrix(0.868, -0.496, 0.496, 0.868, 0.473, 5.755)" fill="#5e57a7"/>
              </g>
            </g>
            <g id="tecla-45" data-name="tecla" transform="translate(138.028 74.506)">
              <g id="Group_199" data-name="Group 199">
                <rect id="Rectangle_226" data-name="Rectangle 226" width="11.431" height="11.431" rx="1.142" transform="translate(0.425 5.675) rotate(-29.767)" fill="#5e57a7" opacity="0.34"/>
                <rect id="Rectangle_227" data-name="Rectangle 227" width="10.891" height="10.891" rx="1.049" transform="translate(0 5.627) rotate(-29.795)" fill="#5e57a7"/>
                <rect id="Rectangle_228" data-name="Rectangle 228" width="10.198" height="10.198" rx="0.841" transform="translate(0.473 5.755) rotate(-29.766)" fill="#5e57a7"/>
              </g>
            </g>
            <g id="tecla-46" data-name="tecla" transform="translate(120.13 84.743)">
              <g id="Group_200" data-name="Group 200">
                <rect id="Rectangle_229" data-name="Rectangle 229" width="11.431" height="11.431" rx="1.142" transform="translate(0.425 5.675) rotate(-29.745)" fill="#5e57a7" opacity="0.34"/>
                <rect id="Rectangle_230" data-name="Rectangle 230" width="10.891" height="10.891" rx="1.049" transform="translate(0 5.626) rotate(-29.766)" fill="#5e57a7"/>
                <rect id="Rectangle_231" data-name="Rectangle 231" width="10.198" height="10.198" rx="0.841" transform="translate(0.473 5.755) rotate(-29.745)" fill="#5e57a7"/>
              </g>
            </g>
            <g id="tecla-47" data-name="tecla" transform="translate(102.231 94.98)">
              <g id="Group_201" data-name="Group 201">
                <rect id="Rectangle_232" data-name="Rectangle 232" width="11.431" height="11.431" rx="1.142" transform="translate(0.425 5.675) rotate(-29.745)" fill="#5e57a7" opacity="0.34"/>
                <path id="Rectangle_233" data-name="Rectangle 233" d="M1.05,0H9.842a1.049,1.049,0,0,1,1.049,1.049V9.842a1.049,1.049,0,0,1-1.049,1.049H1.049A1.049,1.049,0,0,1,0,9.842V1.05A1.05,1.05,0,0,1,1.05,0Z" transform="translate(0 5.626) rotate(-29.765)" fill="#5e57a7"/>
                <rect id="Rectangle_234" data-name="Rectangle 234" width="10.198" height="10.198" rx="0.841" transform="translate(0.473 5.755) rotate(-29.766)" fill="#5e57a7"/>
              </g>
            </g>
            <g id="tecla-48" data-name="tecla" transform="translate(84.332 105.217)">
              <g id="Group_202" data-name="Group 202">
                <rect id="Rectangle_235" data-name="Rectangle 235" width="11.431" height="11.431" rx="1.142" transform="translate(0.425 5.675) rotate(-29.745)" fill="#5e57a7" opacity="0.34"/>
                <path id="Rectangle_236" data-name="Rectangle 236" d="M1.05,0H9.842a1.049,1.049,0,0,1,1.049,1.049V9.842a1.049,1.049,0,0,1-1.049,1.049H1.049A1.049,1.049,0,0,1,0,9.842V1.05A1.05,1.05,0,0,1,1.05,0Z" transform="translate(0 5.626) rotate(-29.765)" fill="#5e57a7"/>
                <rect id="Rectangle_237" data-name="Rectangle 237" width="10.198" height="10.198" rx="0.841" transform="translate(0.473 5.755) rotate(-29.766)" fill="#5e57a7"/>
              </g>
            </g>
            <g id="tecla-49" data-name="tecla" transform="translate(66.433 115.455)">
              <g id="Group_203" data-name="Group 203">
                <rect id="Rectangle_238" data-name="Rectangle 238" width="11.431" height="11.431" rx="1.142" transform="translate(0.425 5.675) rotate(-29.745)" fill="#5e57a7" opacity="0.34"/>
                <rect id="Rectangle_239" data-name="Rectangle 239" width="10.891" height="10.891" rx="1.049" transform="translate(0 5.626) rotate(-29.768)" fill="#5e57a7"/>
                <rect id="Rectangle_240" data-name="Rectangle 240" width="10.198" height="10.198" rx="0.841" transform="translate(0.473 5.755) rotate(-29.767)" fill="#5e57a7"/>
              </g>
            </g>
            <g id="tecla-50" data-name="tecla" transform="translate(48.534 125.692)">
              <g id="Group_204" data-name="Group 204">
                <rect id="Rectangle_241" data-name="Rectangle 241" width="11.431" height="11.431" rx="1.142" transform="translate(0.425 5.675) rotate(-29.767)" fill="#5e57a7" opacity="0.34"/>
                <rect id="Rectangle_242" data-name="Rectangle 242" width="10.891" height="10.891" rx="1.049" transform="translate(0 5.626) rotate(-29.768)" fill="#5e57a7"/>
                <rect id="Rectangle_243" data-name="Rectangle 243" width="10.198" height="10.198" rx="0.841" transform="translate(0.473 5.755) rotate(-29.767)" fill="#5e57a7"/>
              </g>
            </g>
            <g id="tecla-51" data-name="tecla" transform="translate(16.762 135.929)">
              <g id="Group_205" data-name="Group 205">
                <rect id="Rectangle_244" data-name="Rectangle 244" width="27.413" height="11.431" rx="0.426" transform="translate(0.425 13.61) rotate(-29.745)" fill="#5e57a7" opacity="0.34"/>
                <rect id="Rectangle_245" data-name="Rectangle 245" width="26.872" height="10.891" rx="0.391" transform="translate(0 13.561) rotate(-29.745)" fill="#5e57a7"/>
                <rect id="Rectangle_246" data-name="Rectangle 246" width="26.179" height="10.198" rx="0.314" transform="translate(0.473 13.69) rotate(-29.767)" fill="#5e57a7"/>
              </g>
            </g>
            <g id="tecla-52" data-name="tecla" transform="translate(197.241 77.49)">
              <g id="Group_206" data-name="Group 206">
                <rect id="Rectangle_247" data-name="Rectangle 247" width="11.431" height="11.431" rx="1.142" transform="translate(0.425 5.675) rotate(-29.767)" fill="#5e57a7" opacity="0.34"/>
                <path id="Rectangle_248" data-name="Rectangle 248" d="M1.049,0H9.842a1.049,1.049,0,0,1,1.049,1.049V9.842a1.05,1.05,0,0,1-1.05,1.05H1.049A1.049,1.049,0,0,1,0,9.842V1.049A1.049,1.049,0,0,1,1.049,0Z" transform="translate(0 5.626) rotate(-29.745)" fill="#5e57a7"/>
                <rect id="Rectangle_249" data-name="Rectangle 249" width="10.198" height="10.198" rx="0.841" transform="translate(0.473 5.755) rotate(-29.767)" fill="#5e57a7"/>
              </g>
            </g>
            <g id="tecla-53" data-name="tecla" transform="translate(231.429 57.936)">
              <g id="Group_207" data-name="Group 207">
                <rect id="Rectangle_250" data-name="Rectangle 250" width="11.431" height="11.431" rx="1.142" transform="translate(0.425 5.675) rotate(-29.767)" fill="#5e57a7" opacity="0.34"/>
                <path id="Rectangle_251" data-name="Rectangle 251" d="M1.05,0H9.842a1.049,1.049,0,0,1,1.049,1.049V9.842a1.05,1.05,0,0,1-1.05,1.05H1.049A1.049,1.049,0,0,1,0,9.842V1.05A1.05,1.05,0,0,1,1.05,0Z" transform="translate(0 5.626) rotate(-29.745)" fill="#5e57a7"/>
                <rect id="Rectangle_252" data-name="Rectangle 252" width="10.198" height="10.198" rx="0.841" transform="translate(0.473 5.755) rotate(-29.795)" fill="#5e57a7"/>
              </g>
            </g>
            <g id="tecla-54" data-name="tecla" transform="translate(214.335 67.713)">
              <g id="Group_208" data-name="Group 208">
                <rect id="Rectangle_253" data-name="Rectangle 253" width="11.431" height="11.431" rx="1.142" transform="translate(0.425 5.675) rotate(-29.767)" fill="#5e57a7" opacity="0.34"/>
                <rect id="Rectangle_254" data-name="Rectangle 254" width="10.891" height="10.891" rx="1.049" transform="translate(0 5.626) rotate(-29.745)" fill="#5e57a7"/>
                <rect id="Rectangle_255" data-name="Rectangle 255" width="10.198" height="10.198" rx="0.841" transform="translate(0.473 5.755) rotate(-29.767)" fill="#5e57a7"/>
              </g>
            </g>
            <g id="tecla-55" data-name="tecla" transform="translate(109.564 86.161)">
              <g id="Group_209" data-name="Group 209">
                <rect id="Rectangle_256" data-name="Rectangle 256" width="94.97" height="11.431" rx="1.142" transform="translate(0.425 47.151) rotate(-29.767)" fill="#5e57a7" opacity="0.34"/>
                <path id="Rectangle_257" data-name="Rectangle 257" d="M1.049,0H93.381A1.049,1.049,0,0,1,94.43,1.049V9.842a1.05,1.05,0,0,1-1.05,1.05H1.049A1.049,1.049,0,0,1,0,9.842V1.049A1.049,1.049,0,0,1,1.049,0Z" transform="translate(0 47.102) rotate(-29.745)" fill="#5e57a7"/>
                <rect id="Rectangle_258" data-name="Rectangle 258" width="93.737" height="10.198" rx="0.841" transform="translate(0.473 47.23) rotate(-29.745)" fill="#5e57a7"/>
              </g>
            </g>
            <g id="tecla-56" data-name="tecla" transform="translate(94.677 136.151)">
              <g id="Group_210" data-name="Group 210">
                <rect id="Rectangle_259" data-name="Rectangle 259" width="11.431" height="11.431" rx="1.142" transform="translate(0.425 5.675) rotate(-29.767)" fill="#5e57a7" opacity="0.34"/>
                <path id="Rectangle_260" data-name="Rectangle 260" d="M1.05,0H9.842a1.05,1.05,0,0,1,1.05,1.05V9.842a1.049,1.049,0,0,1-1.049,1.049H1.05A1.05,1.05,0,0,1,0,9.842V1.05A1.05,1.05,0,0,1,1.05,0Z" transform="translate(0 5.626) rotate(-29.765)" fill="#5e57a7"/>
                <rect id="Rectangle_261" data-name="Rectangle 261" width="10.198" height="10.198" rx="0.841" transform="translate(0.473 5.755) rotate(-29.766)" fill="#5e57a7"/>
              </g>
            </g>
            <g id="tecla-57" data-name="tecla" transform="translate(77.583 145.928)">
              <g id="Group_211" data-name="Group 211">
                <rect id="Rectangle_262" data-name="Rectangle 262" width="11.431" height="11.431" rx="1.142" transform="translate(0.425 5.675) rotate(-29.767)" fill="#5e57a7" opacity="0.34"/>
                <rect id="Rectangle_263" data-name="Rectangle 263" width="10.891" height="10.891" rx="1.049" transform="translate(0 5.626) rotate(-29.765)" fill="#5e57a7"/>
                <rect id="Rectangle_264" data-name="Rectangle 264" width="10.198" height="10.198" rx="0.841" transform="translate(0.473 5.755) rotate(-29.766)" fill="#5e57a7"/>
              </g>
            </g>
            <g id="tecla-58" data-name="tecla" transform="translate(60.489 155.705)">
              <g id="Group_212" data-name="Group 212">
                <rect id="Rectangle_265" data-name="Rectangle 265" width="11.431" height="11.431" rx="1.142" transform="translate(0.425 5.675) rotate(-29.745)" fill="#5e57a7" opacity="0.34"/>
                <rect id="Rectangle_266" data-name="Rectangle 266" width="10.891" height="10.891" rx="1.049" transform="translate(0 5.626) rotate(-29.768)" fill="#5e57a7"/>
                <rect id="Rectangle_267" data-name="Rectangle 267" width="10.198" height="10.198" rx="0.841" transform="matrix(0.868, -0.496, 0.496, 0.868, 0.473, 5.755)" fill="#5e57a7"/>
              </g>
            </g>
            <g id="tecla-59" data-name="tecla" transform="translate(32.644 163.696)">
              <g id="Group_213" data-name="Group 213">
                <rect id="Rectangle_268" data-name="Rectangle 268" width="27.413" height="11.431" rx="0.426" transform="translate(0.425 13.61) rotate(-29.767)" fill="#5e57a7" opacity="0.34"/>
                <rect id="Rectangle_269" data-name="Rectangle 269" width="26.873" height="10.891" rx="0.391" transform="translate(0 13.561) rotate(-29.745)" fill="#5e57a7"/>
                <rect id="Rectangle_270" data-name="Rectangle 270" width="26.179" height="10.198" rx="0.314" transform="translate(0.473 13.69) rotate(-29.745)" fill="#5e57a7"/>
              </g>
            </g>
            <g id="tecla-60" data-name="tecla" transform="translate(208.879 29.912)">
              <g id="Group_214" data-name="Group 214">
                <path id="Path_115" data-name="Path 115" d="M749.033,30.445a.382.382,0,0,0-.52-.141L731.838,39.84a.382.382,0,0,0-.141.52l5.029,8.792a.38.38,0,0,0,.519.141l5.466-3.125,7.614,13.312a.382.382,0,0,0,.52.141l10.892-6.23a.381.381,0,0,0,.141-.519Z" transform="translate(-730.817 -29.874)" fill="#5e57a7" opacity="0.34"/>
                <path id="Path_116" data-name="Path 116" d="M748.181,30.056a.38.38,0,0,0-.52-.141l-16.674,9.537a.38.38,0,0,0-.141.52l5.028,8.792a.382.382,0,0,0,.52.141l5.465-3.126,7.614,13.313a.382.382,0,0,0,.52.141L760.886,53a.382.382,0,0,0,.141-.52Z" transform="translate(-730.795 -29.864)" fill="#5e57a7"/>
                <path id="Path_117" data-name="Path 117" d="M747.961,30.513a.3.3,0,0,0-.417-.114l-16.2,9.268a.307.307,0,0,0-.114.417l4.76,8.322a.3.3,0,0,0,.417.114l5.545-3.172,7.563,13.223a.3.3,0,0,0,.417.114l10.522-6.018a.306.306,0,0,0,.114-.417l-8-13.991C752.507,38.164,747.961,30.513,747.961,30.513Z" transform="translate(-730.805 -29.877)" fill="#5e57a7"/>
              </g>
            </g>
          </g>
        </g>
      </g>
    </g>
  </g>
</svg>
