<?xml version="1.0" encoding="UTF-8"?>
<svg width="412px" height="112px" viewBox="0 0 412 112" version="1.1" xmlns="http://www.w3.org/2000/svg" xmlns:xlink="http://www.w3.org/1999/xlink">
    <!-- Generator: Sketch 53.1 (72631) - https://sketchapp.com -->
    <title>Artboard</title>
    <desc>Created with Sketch.</desc>
    <defs>
        <linearGradient x1="50%" y1="0%" x2="50%" y2="100%" id="linearGradient-1">
            <stop stop-color="#6B73FF" offset="0%"></stop>
            <stop stop-color="#9B4EFE" offset="100%"></stop>
        </linearGradient>
        <linearGradient x1="50%" y1="0%" x2="50%" y2="100%" id="linearGradient-2">
            <stop stop-color="#6B73FF" offset="0%"></stop>
            <stop stop-color="#9B4EFE" offset="100%"></stop>
        </linearGradient>
    </defs>
    <g id="Artboard" stroke="none" stroke-width="1" fill="none" fill-rule="evenodd">
        <g id="bg-search" transform="translate(-3.000000, -1085.000000)" fill-rule="nonzero">
            <path d="M5.828,455.024 L18.664,455.024 L18.664,286.2 C18.664,286.2 122.472,341.073 279.444,202.7 C364.644,127.6 476.075,185.966 598,244.335 C700.7,293.503 810.855,342.671 919.047,312.059 C1155.676,245.105 1209.562,135.748 1396.991,115.659 C1584.42,95.57 1600.819,13 1600.819,13 L1592.619,455.024 L1612.485,455.024 L1612.485,973.124 C1612.485,973.124 1505.966,926.562 1344.894,1043.975 C1257.466,1107.703 1143.126,1058.175 1018.017,1008.647 C912.628,966.928 846.539254,1113.50027 742.892059,1104 C639.244863,1094.49973 464.941089,1084.57804 401.253369,1084.57804 C337.565649,1084.57804 228.969003,1096.25728 118.210655,1119.25508 C7.45230758,1142.25288 3,1196.39258 3,1184.38331 C3,1172.37404 1.21888887,1155.95865 1.44361631,1098 C1.7277392,1024.72289 3.18920043,810.397554 5.828,455.024 Z" id="Union_1-Copy" fill="url(#linearGradient-1)" opacity="0.244884673"></path>
            <path d="M5.828,442.024 L18.664,442.024 L18.664,273.2 C18.664,273.2 122.472,328.073 279.444,189.7 C364.644,114.6 476.075,172.966 598,231.335 C700.7,280.503 810.855,329.671 919.047,299.059 C1155.676,232.105 1209.562,122.748 1396.991,102.659 C1584.42,82.57 1600.819,0 1600.819,0 L1592.619,442.024 L1612.485,442.024 L1612.485,960.124 C1612.485,960.124 1505.966,913.562 1344.894,1030.975 C1257.466,1094.703 1143.126,1045.175 1018.017,995.647 C912.628,953.928 846.539254,1100.50027 742.892059,1091 C639.244863,1081.49973 457.49643,1085 357.325892,1085 C257.155353,1085 229.931621,1085 118.805553,1108.84706 C7.6794836,1132.69411 3,1171.38331 3,1171.38331 C3,1171.38331 1.21888887,1142.95865 1.44361631,1085 C1.7277392,1011.72289 3.18920043,797.397554 5.828,442.024 Z" id="Union_1-Copy-2" fill="url(#linearGradient-2)"></path>
        </g>
    </g>
</svg>