<?xml version="1.0" encoding="UTF-8"?>
<svg width="1562px" height="240px" viewBox="0 0 1562 240" version="1.1" xmlns="http://www.w3.org/2000/svg" xmlns:xlink="http://www.w3.org/1999/xlink">
    <!-- Generator: Sketch 53.1 (72631) - https://sketchapp.com -->
    <title>Artboard</title>
    <desc>Created with Sketch.</desc>
    <defs>
        <linearGradient x1="50%" y1="0%" x2="50%" y2="100%" id="linearGradient-1">
            <stop stop-color="#6B73FF" offset="0%"></stop>
            <stop stop-color="#9B4EFE" offset="100%"></stop>
        </linearGradient>
        <linearGradient x1="50%" y1="0%" x2="50%" y2="100%" id="linearGradient-2">
            <stop stop-color="#6B73FF" offset="0%"></stop>
            <stop stop-color="#9B4EFE" offset="100%"></stop>
        </linearGradient>
    </defs>
    <g id="Artboard" stroke="none" stroke-width="1" fill="none" fill-rule="evenodd">
        <g id="bg-wave" transform="translate(-40.000000, -970.000000)" fill-rule="nonzero">
            <path d="M28.439,493.975 L32.275,493.975 L32.275,288.151 C32.275,288.151 136.083,343.024 293.055,204.651 C378.255,129.551 489.686,187.915 611.609,246.285 C714.311,295.451 824.464,344.622 932.657,314.011 C1169.287,247.058 1223.172,137.699 1410.602,117.611 C1598.032,97.523 1614.43,14.951 1614.43,14.951 L1605.541,493.975 L1635.094,493.975 L1635.094,1012.075 C1635.094,1012.075 1528.575,965.513 1367.503,1082.925 C1280.075,1146.653 1165.734,1097.125 1040.625,1047.597 C935.238,1005.879 822.211,964.159 711.194,990.134 C468.383,1046.946 413.094,1139.74 220.764,1156.784 C28.434,1173.828 11.611,1243.895 11.611,1243.895 L28.439,493.975 Z" id="Union_1" fill="url(#linearGradient-1)"></path>
            <path d="M31.2469647,917.560393 L22.0385304,917.59638 L24.7604764,307.349682 C24.7604764,307.349682 129.334983,361.777606 288.458366,222.8574 C374.824923,147.453598 487.081454,205.345181 609.933883,263.19478 C713.41981,311.924911 824.425826,360.627052 933.808471,329.599067 C1173.04283,261.738344 1227.94257,152.22675 1417.28726,131.402813 C1606.63194,110.578877 1623.55738,27.9848592 1623.55738,27.9848592 L1612.45068,506.77546 L1642.00324,506.658505 L1639.69413,1024.471 C1639.69413,1024.471 1533.83513,978.354852 1372.91244,1096.33517 C1285.56226,1160.37337 1171.92127,1111.32236 1047.56042,1062.31134 C942.800988,1021.02733 830.435499,979.777302 719.769352,1006.17608 C477.726077,1063.91572 422.251558,1156.87473 230.657748,1174.66784 C39.0639378,1192.46095 21.9955471,1262.5528 21.9955471,1262.5528 L31.2469647,917.560393 Z" id="Union_2" fill="url(#linearGradient-2)" opacity="0.25" transform="translate(831.999393, 645.268832) rotate(2.006539) translate(-831.999393, -645.268832) "></path>
        </g>
    </g>
</svg>