<svg xmlns="http://www.w3.org/2000/svg" xmlns:xlink="http://www.w3.org/1999/xlink" width="465.323" height="410.177" viewBox="0 0 465.323 410.177">
  <defs>
    <filter id="Path_113" x="0" y="0" width="465.323" height="410.177" filterUnits="userSpaceOnUse">
      <feOffset dy="3" input="SourceAlpha"/>
      <feGaussianBlur stdDeviation="25" result="blur"/>
      <feFlood flood-opacity="0.161"/>
      <feComposite operator="in" in2="blur"/>
      <feComposite in="SourceGraphic"/>
    </filter>
  </defs>
  <g id="Group_217" data-name="Group 217" transform="translate(75 72)">
    <g id="Group_151" data-name="Group 151">
      <g transform="matrix(1, 0, 0, 1, -75, -72)" filter="url(#Path_113)">
        <path id="Path_113-2" data-name="Path 113" d="M797.346,78.994,547.563,222.623l-65.54-119.084L727.4-37.554Z" transform="translate(-407.02 109.55)" fill="#fff"/>
      </g>
      <path id="Path_114" data-name="Path 114" d="M795.211,90.661,558.661,226.68l-9.365-.974L799.081,82.077Z" transform="translate(-483.76 34.474)" fill="#5546c5"/>
    </g>
    <g id="Group_216" data-name="Group 216" transform="translate(33.478 35.777)" opacity="0.1">
      <g id="Group_215" data-name="Group 215">
        <g id="Group_166" data-name="Group 166">
          <g id="tecla" transform="translate(0 114.283)">
            <g id="Group_152" data-name="Group 152">
              <rect id="Rectangle_96" data-name="Rectangle 96" width="11.431" height="11.431" rx="1.142" transform="translate(0.425 5.675) rotate(-29.767)" fill="#5e57a7" opacity="0.34"/>
              <path id="Rectangle_97" data-name="Rectangle 97" d="M1.049,0H9.842a1.05,1.05,0,0,1,1.05,1.05V9.842a1.049,1.049,0,0,1-1.049,1.049H1.049A1.049,1.049,0,0,1,0,9.842V1.049A1.049,1.049,0,0,1,1.049,0Z" transform="translate(0 5.626) rotate(-29.768)" fill="#5e57a7"/>
              <rect id="Rectangle_98" data-name="Rectangle 98" width="10.198" height="10.198" rx="0.841" transform="matrix(0.868, -0.496, 0.496, 0.868, 0.473, 5.755)" fill="#5e57a7"/>
            </g>
          </g>
          <g id="tecla-2" data-name="tecla" transform="translate(15.353 105.506)">
            <g id="Group_153" data-name="Group 153">
              <rect id="Rectangle_99" data-name="Rectangle 99" width="11.431" height="11.431" rx="1.142" transform="translate(0.425 5.67) rotate(-29.745)" fill="#5e57a7" opacity="0.34"/>
              <rect id="Rectangle_100" data-name="Rectangle 100" width="10.891" height="10.891" rx="1.049" transform="translate(0 5.621) rotate(-29.766)" fill="#5e57a7"/>
              <rect id="Rectangle_101" data-name="Rectangle 101" width="10.198" height="10.198" rx="0.841" transform="translate(0.473 5.75) rotate(-29.745)" fill="#5e57a7"/>
            </g>
          </g>
          <g id="tecla-3" data-name="tecla" transform="translate(30.706 96.725)">
            <g id="Group_154" data-name="Group 154">
              <rect id="Rectangle_102" data-name="Rectangle 102" width="11.431" height="11.431" rx="1.142" transform="translate(0.425 5.67) rotate(-29.745)" fill="#5e57a7" opacity="0.34"/>
              <path id="Rectangle_103" data-name="Rectangle 103" d="M1.049,0H9.842a1.049,1.049,0,0,1,1.049,1.049V9.842a1.049,1.049,0,0,1-1.049,1.049H1.05A1.05,1.05,0,0,1,0,9.842V1.049A1.049,1.049,0,0,1,1.049,0Z" transform="translate(0 5.621) rotate(-29.768)" fill="#5e57a7"/>
              <rect id="Rectangle_104" data-name="Rectangle 104" width="10.198" height="10.198" rx="0.841" transform="matrix(0.868, -0.496, 0.496, 0.868, 0.473, 5.75)" fill="#5e57a7"/>
            </g>
          </g>
          <g id="tecla-4" data-name="tecla" transform="translate(46.059 87.939)">
            <g id="Group_155" data-name="Group 155">
              <rect id="Rectangle_105" data-name="Rectangle 105" width="11.431" height="11.431" rx="1.142" transform="translate(0.425 5.675) rotate(-29.767)" fill="#5e57a7" opacity="0.34"/>
              <rect id="Rectangle_106" data-name="Rectangle 106" width="10.891" height="10.891" rx="1.049" transform="translate(0 5.626) rotate(-29.765)" fill="#5e57a7"/>
              <rect id="Rectangle_107" data-name="Rectangle 107" width="10.198" height="10.198" rx="0.841" transform="translate(0.473 5.755) rotate(-29.766)" fill="#5e57a7"/>
            </g>
          </g>
          <g id="tecla-5" data-name="tecla" transform="translate(61.412 79.163)">
            <g id="Group_156" data-name="Group 156">
              <rect id="Rectangle_108" data-name="Rectangle 108" width="11.431" height="11.431" rx="1.142" transform="translate(0.425 5.67) rotate(-29.745)" fill="#5e57a7" opacity="0.34"/>
              <path id="Rectangle_109" data-name="Rectangle 109" d="M1.049,0H9.842a1.05,1.05,0,0,1,1.05,1.05V9.842a1.049,1.049,0,0,1-1.049,1.049H1.05A1.05,1.05,0,0,1,0,9.842V1.049A1.049,1.049,0,0,1,1.049,0Z" transform="translate(0 5.622) rotate(-29.745)" fill="#5e57a7"/>
              <rect id="Rectangle_110" data-name="Rectangle 110" width="10.198" height="10.198" rx="0.841" transform="matrix(0.868, -0.496, 0.496, 0.868, 0.473, 5.75)" fill="#5e57a7"/>
            </g>
          </g>
          <g id="tecla-6" data-name="tecla" transform="translate(76.766 70.382)">
            <g id="Group_157" data-name="Group 157">
              <rect id="Rectangle_111" data-name="Rectangle 111" width="11.431" height="11.431" rx="1.142" transform="translate(0.425 5.67) rotate(-29.745)" fill="#5e57a7" opacity="0.34"/>
              <path id="Rectangle_112" data-name="Rectangle 112" d="M1.049,0H9.842a1.049,1.049,0,0,1,1.049,1.049V9.842a1.05,1.05,0,0,1-1.05,1.05H1.049A1.049,1.049,0,0,1,0,9.842V1.049A1.049,1.049,0,0,1,1.049,0Z" transform="translate(0 5.621) rotate(-29.766)" fill="#5e57a7"/>
              <rect id="Rectangle_113" data-name="Rectangle 113" width="10.198" height="10.198" rx="0.841" transform="translate(0.473 5.75) rotate(-29.766)" fill="#5e57a7"/>
            </g>
          </g>
          <g id="tecla-7" data-name="tecla" transform="translate(92.119 61.601)">
            <g id="Group_158" data-name="Group 158">
              <rect id="Rectangle_114" data-name="Rectangle 114" width="11.431" height="11.431" rx="1.142" transform="translate(0.425 5.67) rotate(-29.745)" fill="#5e57a7" opacity="0.34"/>
              <path id="Rectangle_115" data-name="Rectangle 115" d="M1.049,0H9.842a1.05,1.05,0,0,1,1.05,1.05V9.842a1.049,1.049,0,0,1-1.049,1.049H1.05A1.05,1.05,0,0,1,0,9.842V1.049A1.049,1.049,0,0,1,1.049,0Z" transform="translate(0 5.621) rotate(-29.768)" fill="#5e57a7"/>
              <rect id="Rectangle_116" data-name="Rectangle 116" width="10.198" height="10.198" rx="0.841" transform="matrix(0.868, -0.496, 0.496, 0.868, 0.473, 5.75)" fill="#5e57a7"/>
            </g>
          </g>
          <g id="tecla-8" data-name="tecla" transform="translate(107.472 52.814)">
            <g id="Group_159" data-name="Group 159">
              <rect id="Rectangle_117" data-name="Rectangle 117" width="11.431" height="11.431" rx="1.142" transform="translate(0.425 5.675) rotate(-29.767)" fill="#5e57a7" opacity="0.34"/>
              <rect id="Rectangle_118" data-name="Rectangle 118" width="10.891" height="10.891" rx="1.049" transform="translate(0 5.626) rotate(-29.745)" fill="#5e57a7"/>
              <rect id="Rectangle_119" data-name="Rectangle 119" width="10.198" height="10.198" rx="0.841" transform="translate(0.473 5.755) rotate(-29.766)" fill="#5e57a7"/>
            </g>
          </g>
          <g id="tecla-9" data-name="tecla" transform="translate(122.825 44.038)">
            <g id="Group_160" data-name="Group 160">
              <rect id="Rectangle_120" data-name="Rectangle 120" width="11.431" height="11.431" rx="1.142" transform="translate(0.425 5.67) rotate(-29.745)" fill="#5e57a7" opacity="0.34"/>
              <path id="Rectangle_121" data-name="Rectangle 121" d="M1.049,0H9.842a1.05,1.05,0,0,1,1.05,1.05V9.842a1.049,1.049,0,0,1-1.049,1.049H1.049A1.049,1.049,0,0,1,0,9.842V1.049A1.049,1.049,0,0,1,1.049,0Z" transform="translate(0 5.622) rotate(-29.795)" fill="#5e57a7"/>
              <rect id="Rectangle_122" data-name="Rectangle 122" width="10.198" height="10.198" rx="0.841" transform="matrix(0.868, -0.497, 0.497, 0.868, 0.473, 5.75)" fill="#5e57a7"/>
            </g>
          </g>
          <g id="tecla-10" data-name="tecla" transform="translate(138.41 35.119)">
            <g id="Group_161" data-name="Group 161">
              <rect id="Rectangle_123" data-name="Rectangle 123" width="11.431" height="11.431" rx="1.142" transform="translate(0.425 5.675) rotate(-29.768)" fill="#5e57a7" opacity="0.34"/>
              <path id="Rectangle_124" data-name="Rectangle 124" d="M1.049,0H9.842a1.05,1.05,0,0,1,1.05,1.05V9.842a1.049,1.049,0,0,1-1.049,1.049H1.049A1.049,1.049,0,0,1,0,9.842V1.049A1.049,1.049,0,0,1,1.049,0Z" transform="translate(0 5.627) rotate(-29.745)" fill="#5e57a7"/>
              <rect id="Rectangle_125" data-name="Rectangle 125" width="10.198" height="10.198" rx="0.841" transform="matrix(0.868, -0.496, 0.496, 0.868, 0.473, 5.755)" fill="#5e57a7"/>
            </g>
          </g>
          <g id="tecla-11" data-name="tecla" transform="translate(153.763 26.338)">
            <g id="Group_162" data-name="Group 162">
              <rect id="Rectangle_126" data-name="Rectangle 126" width="11.431" height="11.431" rx="1.142" transform="translate(0.425 5.675) rotate(-29.767)" fill="#5e57a7" opacity="0.34"/>
              <path id="Rectangle_127" data-name="Rectangle 127" d="M1.05,0H9.842a1.049,1.049,0,0,1,1.049,1.049V9.842a1.049,1.049,0,0,1-1.049,1.049H1.049A1.049,1.049,0,0,1,0,9.842V1.05A1.05,1.05,0,0,1,1.05,0Z" transform="translate(0 5.626) rotate(-29.766)" fill="#5e57a7"/>
              <rect id="Rectangle_128" data-name="Rectangle 128" width="10.198" height="10.198" rx="0.841" transform="translate(0.473 5.755) rotate(-29.766)" fill="#5e57a7"/>
            </g>
          </g>
          <g id="tecla-12" data-name="tecla" transform="translate(169.116 17.562)">
            <g id="Group_163" data-name="Group 163">
              <rect id="Rectangle_129" data-name="Rectangle 129" width="11.431" height="11.431" rx="1.142" transform="translate(0.425 5.67) rotate(-29.745)" fill="#5e57a7" opacity="0.34"/>
              <rect id="Rectangle_130" data-name="Rectangle 130" width="10.891" height="10.891" rx="1.049" transform="translate(0 5.621) rotate(-29.745)" fill="#5e57a7"/>
              <rect id="Rectangle_131" data-name="Rectangle 131" width="10.198" height="10.198" rx="0.841" transform="matrix(0.868, -0.496, 0.496, 0.868, 0.473, 5.75)" fill="#5e57a7"/>
            </g>
          </g>
          <g id="tecla-13" data-name="tecla" transform="translate(184.469 8.776)">
            <g id="Group_164" data-name="Group 164">
              <rect id="Rectangle_132" data-name="Rectangle 132" width="11.431" height="11.431" rx="1.142" transform="translate(0.425 5.675) rotate(-29.767)" fill="#5e57a7" opacity="0.34"/>
              <path id="Rectangle_133" data-name="Rectangle 133" d="M1.05,0H9.842a1.049,1.049,0,0,1,1.049,1.049V9.842a1.05,1.05,0,0,1-1.05,1.05H1.049A1.049,1.049,0,0,1,0,9.842V1.05A1.05,1.05,0,0,1,1.05,0Z" transform="translate(0 5.626) rotate(-29.766)" fill="#5e57a7"/>
              <rect id="Rectangle_134" data-name="Rectangle 134" width="10.198" height="10.198" rx="0.841" transform="translate(0.473 5.755) rotate(-29.766)" fill="#5e57a7"/>
            </g>
          </g>
          <g id="tecla-14" data-name="tecla" transform="translate(199.822)">
            <g id="Group_165" data-name="Group 165">
              <rect id="Rectangle_135" data-name="Rectangle 135" width="11.431" height="11.431" rx="1.142" transform="translate(0.425 5.67) rotate(-29.745)" fill="#5e57a7" opacity="0.34"/>
              <rect id="Rectangle_136" data-name="Rectangle 136" width="10.891" height="10.891" rx="1.049" transform="translate(0 5.622) rotate(-29.745)" fill="#5e57a7"/>
              <rect id="Rectangle_137" data-name="Rectangle 137" width="10.198" height="10.198" rx="0.841" transform="matrix(0.868, -0.496, 0.496, 0.868, 0.473, 5.75)" fill="#5e57a7"/>
            </g>
          </g>
        </g>
        <g id="Group_181" data-name="Group 181" transform="translate(24.819 44.086)">
          <g id="tecla-15" data-name="tecla" transform="translate(0 113.59)">
            <g id="Group_167" data-name="Group 167">
              <rect id="Rectangle_138" data-name="Rectangle 138" width="11.431" height="11.431" rx="1.142" transform="translate(0.425 5.675) rotate(-29.768)" fill="#5e57a7" opacity="0.34"/>
              <path id="Rectangle_139" data-name="Rectangle 139" d="M1.049,0H9.842a1.05,1.05,0,0,1,1.05,1.05V9.842a1.05,1.05,0,0,1-1.05,1.05H1.049A1.049,1.049,0,0,1,0,9.842V1.049A1.049,1.049,0,0,1,1.049,0Z" transform="translate(0 5.627) rotate(-29.745)" fill="#5e57a7"/>
              <rect id="Rectangle_140" data-name="Rectangle 140" width="10.198" height="10.198" rx="0.841" transform="translate(0.473 5.755) rotate(-29.767)" fill="#5e57a7"/>
            </g>
          </g>
          <g id="tecla-16" data-name="tecla" transform="translate(15.353 104.809)">
            <g id="Group_168" data-name="Group 168">
              <rect id="Rectangle_141" data-name="Rectangle 141" width="11.431" height="11.431" rx="1.142" transform="translate(0.425 5.675) rotate(-29.768)" fill="#5e57a7" opacity="0.34"/>
              <rect id="Rectangle_142" data-name="Rectangle 142" width="10.891" height="10.891" rx="1.049" transform="translate(0 5.626) rotate(-29.766)" fill="#5e57a7"/>
              <rect id="Rectangle_143" data-name="Rectangle 143" width="10.198" height="10.198" rx="0.841" transform="translate(0.473 5.755) rotate(-29.767)" fill="#5e57a7"/>
            </g>
          </g>
          <g id="tecla-17" data-name="tecla" transform="translate(30.706 96.028)">
            <g id="Group_169" data-name="Group 169">
              <rect id="Rectangle_144" data-name="Rectangle 144" width="11.431" height="11.431" rx="1.142" transform="translate(0.425 5.675) rotate(-29.767)" fill="#5e57a7" opacity="0.34"/>
              <rect id="Rectangle_145" data-name="Rectangle 145" width="10.891" height="10.891" rx="1.049" transform="translate(0 5.627) rotate(-29.745)" fill="#5e57a7"/>
              <rect id="Rectangle_146" data-name="Rectangle 146" width="10.198" height="10.198" rx="0.841" transform="translate(0.473 5.755) rotate(-29.767)" fill="#5e57a7"/>
            </g>
          </g>
          <g id="tecla-18" data-name="tecla" transform="translate(46.059 87.247)">
            <g id="Group_170" data-name="Group 170">
              <rect id="Rectangle_147" data-name="Rectangle 147" width="11.431" height="11.431" rx="1.142" transform="translate(0.425 5.675) rotate(-29.767)" fill="#5e57a7" opacity="0.34"/>
              <rect id="Rectangle_148" data-name="Rectangle 148" width="10.891" height="10.891" rx="1.049" transform="translate(0 5.626) rotate(-29.766)" fill="#5e57a7"/>
              <rect id="Rectangle_149" data-name="Rectangle 149" width="10.198" height="10.198" rx="0.841" transform="translate(0.473 5.755) rotate(-29.767)" fill="#5e57a7"/>
            </g>
          </g>
          <g id="tecla-19" data-name="tecla" transform="translate(61.412 78.466)">
            <g id="Group_171" data-name="Group 171">
              <rect id="Rectangle_150" data-name="Rectangle 150" width="11.431" height="11.431" rx="1.142" transform="translate(0.425 5.675) rotate(-29.767)" fill="#5e57a7" opacity="0.34"/>
              <path id="Rectangle_151" data-name="Rectangle 151" d="M1.049,0H9.842a1.049,1.049,0,0,1,1.049,1.049V9.842a1.05,1.05,0,0,1-1.05,1.05H1.049A1.049,1.049,0,0,1,0,9.842V1.049A1.049,1.049,0,0,1,1.049,0Z" transform="matrix(0.868, -0.496, 0.496, 0.868, 0, 5.627)" fill="#5e57a7"/>
              <rect id="Rectangle_152" data-name="Rectangle 152" width="10.198" height="10.198" rx="0.841" transform="translate(0.473 5.755) rotate(-29.766)" fill="#5e57a7"/>
            </g>
          </g>
          <g id="tecla-20" data-name="tecla" transform="translate(76.766 69.69)">
            <g id="Group_172" data-name="Group 172">
              <rect id="Rectangle_153" data-name="Rectangle 153" width="11.431" height="11.431" rx="1.142" transform="translate(0.425 5.67) rotate(-29.745)" fill="#5e57a7" opacity="0.34"/>
              <rect id="Rectangle_154" data-name="Rectangle 154" width="10.891" height="10.891" rx="1.049" transform="translate(0 5.621) rotate(-29.766)" fill="#5e57a7"/>
              <rect id="Rectangle_155" data-name="Rectangle 155" width="10.198" height="10.198" rx="0.841" transform="translate(0.473 5.75) rotate(-29.766)" fill="#5e57a7"/>
            </g>
          </g>
          <g id="tecla-21" data-name="tecla" transform="translate(92.119 60.904)">
            <g id="Group_173" data-name="Group 173">
              <rect id="Rectangle_156" data-name="Rectangle 156" width="11.431" height="11.431" rx="1.142" transform="translate(0.425 5.675) rotate(-29.767)" fill="#5e57a7" opacity="0.34"/>
              <rect id="Rectangle_157" data-name="Rectangle 157" width="10.891" height="10.891" rx="1.049" transform="translate(0 5.626) rotate(-29.768)" fill="#5e57a7"/>
              <rect id="Rectangle_158" data-name="Rectangle 158" width="10.198" height="10.198" rx="0.841" transform="translate(0.473 5.755) rotate(-29.766)" fill="#5e57a7"/>
            </g>
          </g>
          <g id="tecla-22" data-name="tecla" transform="translate(107.472 52.127)">
            <g id="Group_174" data-name="Group 174">
              <rect id="Rectangle_159" data-name="Rectangle 159" width="11.431" height="11.431" rx="1.142" transform="translate(0.425 5.67) rotate(-29.745)" fill="#5e57a7" opacity="0.34"/>
              <rect id="Rectangle_160" data-name="Rectangle 160" width="10.891" height="10.891" rx="1.049" transform="translate(0 5.621) rotate(-29.766)" fill="#5e57a7"/>
              <rect id="Rectangle_161" data-name="Rectangle 161" width="10.198" height="10.198" rx="0.841" transform="translate(0.473 5.75) rotate(-29.766)" fill="#5e57a7"/>
            </g>
          </g>
          <g id="tecla-23" data-name="tecla" transform="translate(122.825 43.341)">
            <g id="Group_175" data-name="Group 175">
              <rect id="Rectangle_162" data-name="Rectangle 162" width="11.431" height="11.431" rx="1.142" transform="translate(0.425 5.675) rotate(-29.767)" fill="#5e57a7" opacity="0.34"/>
              <path id="Rectangle_163" data-name="Rectangle 163" d="M1.049,0H9.842a1.049,1.049,0,0,1,1.049,1.049V9.842a1.05,1.05,0,0,1-1.05,1.05H1.049A1.049,1.049,0,0,1,0,9.842V1.049A1.049,1.049,0,0,1,1.049,0Z" transform="matrix(0.868, -0.496, 0.496, 0.868, 0, 5.627)" fill="#5e57a7"/>
              <rect id="Rectangle_164" data-name="Rectangle 164" width="10.198" height="10.198" rx="0.841" transform="translate(0.473 5.755) rotate(-29.767)" fill="#5e57a7"/>
            </g>
          </g>
          <g id="tecla-24" data-name="tecla" transform="translate(138.41 34.428)">
            <g id="Group_176" data-name="Group 176">
              <rect id="Rectangle_165" data-name="Rectangle 165" width="11.431" height="11.431" rx="1.142" transform="translate(0.425 5.675) rotate(-29.767)" fill="#5e57a7" opacity="0.34"/>
              <path id="Rectangle_166" data-name="Rectangle 166" d="M1.049,0H9.842a1.05,1.05,0,0,1,1.05,1.05V9.842a1.049,1.049,0,0,1-1.049,1.049H1.05A1.05,1.05,0,0,1,0,9.842V1.049A1.049,1.049,0,0,1,1.049,0Z" transform="translate(0 5.627) rotate(-29.745)" fill="#5e57a7"/>
              <rect id="Rectangle_167" data-name="Rectangle 167" width="10.198" height="10.198" rx="0.841" transform="translate(0.473 5.755) rotate(-29.766)" fill="#5e57a7"/>
            </g>
          </g>
          <g id="tecla-25" data-name="tecla" transform="translate(153.763 25.646)">
            <g id="Group_177" data-name="Group 177">
              <rect id="Rectangle_168" data-name="Rectangle 168" width="11.431" height="11.431" rx="1.142" transform="translate(0.425 5.675) rotate(-29.767)" fill="#5e57a7" opacity="0.34"/>
              <rect id="Rectangle_169" data-name="Rectangle 169" width="10.891" height="10.891" rx="1.049" transform="translate(0 5.626) rotate(-29.766)" fill="#5e57a7"/>
              <rect id="Rectangle_170" data-name="Rectangle 170" width="10.198" height="10.198" rx="0.841" transform="translate(0.473 5.755) rotate(-29.745)" fill="#5e57a7"/>
            </g>
          </g>
          <g id="tecla-26" data-name="tecla" transform="translate(169.116 16.865)">
            <g id="Group_178" data-name="Group 178">
              <rect id="Rectangle_171" data-name="Rectangle 171" width="11.431" height="11.431" rx="1.142" transform="translate(0.425 5.675) rotate(-29.767)" fill="#5e57a7" opacity="0.34"/>
              <path id="Rectangle_172" data-name="Rectangle 172" d="M1.049,0H9.842a1.05,1.05,0,0,1,1.05,1.05V9.842a1.049,1.049,0,0,1-1.049,1.049H1.049A1.049,1.049,0,0,1,0,9.842V1.049A1.049,1.049,0,0,1,1.049,0Z" transform="translate(0 5.627) rotate(-29.768)" fill="#5e57a7"/>
              <rect id="Rectangle_173" data-name="Rectangle 173" width="10.198" height="10.198" rx="0.841" transform="translate(0.473 5.755) rotate(-29.766)" fill="#5e57a7"/>
            </g>
          </g>
          <g id="tecla-27" data-name="tecla" transform="translate(184.469 8.089)">
            <g id="Group_179" data-name="Group 179">
              <rect id="Rectangle_174" data-name="Rectangle 174" width="11.431" height="11.431" rx="1.142" transform="translate(0.425 5.67) rotate(-29.745)" fill="#5e57a7" opacity="0.34"/>
              <path id="Rectangle_175" data-name="Rectangle 175" d="M1.049,0H9.842a1.05,1.05,0,0,1,1.05,1.05V9.842a1.049,1.049,0,0,1-1.049,1.049H1.049A1.049,1.049,0,0,1,0,9.842V1.049A1.049,1.049,0,0,1,1.049,0Z" transform="translate(0 5.621) rotate(-29.765)" fill="#5e57a7"/>
              <rect id="Rectangle_176" data-name="Rectangle 176" width="10.198" height="10.198" rx="0.841" transform="translate(0.473 5.75) rotate(-29.766)" fill="#5e57a7"/>
            </g>
          </g>
          <g id="tecla-28" data-name="tecla" transform="translate(200.295)">
            <g id="Group_180" data-name="Group 180">
              <rect id="Rectangle_177" data-name="Rectangle 177" width="10.198" height="10.198" rx="0.841" transform="translate(0 5.058) rotate(-29.745)" fill="#5e57a7"/>
            </g>
          </g>
        </g>
        <g id="Group_195" data-name="Group 195" transform="translate(8.732 15.262)">
          <g id="tecla-29" data-name="tecla" transform="translate(0 114.293)">
            <g id="Group_182" data-name="Group 182">
              <rect id="Rectangle_178" data-name="Rectangle 178" width="11.431" height="11.431" rx="1.142" transform="translate(0.425 5.67) rotate(-29.745)" fill="#5e57a7" opacity="0.34"/>
              <path id="Rectangle_179" data-name="Rectangle 179" d="M1.049,0H9.842a1.049,1.049,0,0,1,1.049,1.049V9.842a1.05,1.05,0,0,1-1.05,1.05H1.049A1.049,1.049,0,0,1,0,9.842V1.049A1.049,1.049,0,0,1,1.049,0Z" transform="translate(0 5.621) rotate(-29.745)" fill="#5e57a7"/>
              <rect id="Rectangle_180" data-name="Rectangle 180" width="10.198" height="10.198" rx="0.841" transform="translate(0.473 5.75) rotate(-29.767)" fill="#5e57a7"/>
            </g>
          </g>
          <g id="tecla-30" data-name="tecla" transform="translate(15.353 105.507)">
            <g id="Group_183" data-name="Group 183">
              <rect id="Rectangle_181" data-name="Rectangle 181" width="11.431" height="11.431" rx="1.142" transform="translate(0.425 5.675) rotate(-29.768)" fill="#5e57a7" opacity="0.34"/>
              <path id="Rectangle_182" data-name="Rectangle 182" d="M1.05,0H9.842a1.05,1.05,0,0,1,1.05,1.05V9.842a1.049,1.049,0,0,1-1.049,1.049H1.05A1.05,1.05,0,0,1,0,9.842V1.05A1.05,1.05,0,0,1,1.05,0Z" transform="translate(0 5.626) rotate(-29.768)" fill="#5e57a7"/>
              <rect id="Rectangle_183" data-name="Rectangle 183" width="10.198" height="10.198" rx="0.841" transform="translate(0.473 5.755) rotate(-29.766)" fill="#5e57a7"/>
            </g>
          </g>
          <g id="tecla-31" data-name="tecla" transform="translate(30.706 96.725)">
            <g id="Group_184" data-name="Group 184">
              <rect id="Rectangle_184" data-name="Rectangle 184" width="11.431" height="11.431" rx="1.142" transform="translate(0.425 5.675) rotate(-29.767)" fill="#5e57a7" opacity="0.34"/>
              <rect id="Rectangle_185" data-name="Rectangle 185" width="10.891" height="10.891" rx="1.049" transform="translate(0 5.626) rotate(-29.766)" fill="#5e57a7"/>
              <rect id="Rectangle_186" data-name="Rectangle 186" width="10.198" height="10.198" rx="0.841" transform="translate(0.473 5.755) rotate(-29.767)" fill="#5e57a7"/>
            </g>
          </g>
          <g id="tecla-32" data-name="tecla" transform="translate(46.059 87.944)">
            <g id="Group_185" data-name="Group 185">
              <rect id="Rectangle_187" data-name="Rectangle 187" width="11.431" height="11.431" rx="1.142" transform="translate(0.425 5.675) rotate(-29.767)" fill="#5e57a7" opacity="0.34"/>
              <path id="Rectangle_188" data-name="Rectangle 188" d="M1.049,0H9.842a1.05,1.05,0,0,1,1.05,1.05V9.842a1.049,1.049,0,0,1-1.049,1.049H1.05A1.05,1.05,0,0,1,0,9.842V1.049A1.049,1.049,0,0,1,1.049,0Z" transform="translate(0 5.626) rotate(-29.745)" fill="#5e57a7"/>
              <rect id="Rectangle_189" data-name="Rectangle 189" width="10.198" height="10.198" rx="0.841" transform="translate(0.473 5.755) rotate(-29.745)" fill="#5e57a7"/>
            </g>
          </g>
          <g id="tecla-33" data-name="tecla" transform="translate(61.412 79.168)">
            <g id="Group_186" data-name="Group 186">
              <rect id="Rectangle_190" data-name="Rectangle 190" width="11.431" height="11.431" rx="1.142" transform="translate(0.425 5.67) rotate(-29.745)" fill="#5e57a7" opacity="0.34"/>
              <path id="Rectangle_191" data-name="Rectangle 191" d="M1.049,0H9.842a1.05,1.05,0,0,1,1.05,1.05V9.842a1.049,1.049,0,0,1-1.049,1.049H1.049A1.049,1.049,0,0,1,0,9.842V1.049A1.049,1.049,0,0,1,1.049,0Z" transform="translate(0 5.621) rotate(-29.765)" fill="#5e57a7"/>
              <rect id="Rectangle_192" data-name="Rectangle 192" width="10.198" height="10.198" rx="0.841" transform="translate(0.473 5.75) rotate(-29.766)" fill="#5e57a7"/>
            </g>
          </g>
          <g id="tecla-34" data-name="tecla" transform="translate(76.765 70.387)">
            <g id="Group_187" data-name="Group 187">
              <rect id="Rectangle_193" data-name="Rectangle 193" width="11.431" height="11.431" rx="1.142" transform="translate(0.425 5.67) rotate(-29.745)" fill="#5e57a7" opacity="0.34"/>
              <path id="Rectangle_194" data-name="Rectangle 194" d="M1.049,0H9.842a1.049,1.049,0,0,1,1.049,1.049V9.842a1.049,1.049,0,0,1-1.049,1.049H1.05A1.05,1.05,0,0,1,0,9.842V1.049A1.049,1.049,0,0,1,1.049,0Z" transform="translate(0 5.622) rotate(-29.745)" fill="#5e57a7"/>
              <rect id="Rectangle_195" data-name="Rectangle 195" width="10.198" height="10.198" rx="0.841" transform="translate(0.473 5.75) rotate(-29.766)" fill="#5e57a7"/>
            </g>
          </g>
          <g id="tecla-35" data-name="tecla" transform="translate(92.119 61.606)">
            <g id="Group_188" data-name="Group 188">
              <rect id="Rectangle_196" data-name="Rectangle 196" width="11.431" height="11.431" rx="1.142" transform="translate(0.425 5.67) rotate(-29.745)" fill="#5e57a7" opacity="0.34"/>
              <rect id="Rectangle_197" data-name="Rectangle 197" width="10.891" height="10.891" rx="1.049" transform="translate(0 5.621) rotate(-29.745)" fill="#5e57a7"/>
              <rect id="Rectangle_198" data-name="Rectangle 198" width="10.198" height="10.198" rx="0.841" transform="translate(0.473 5.75) rotate(-29.766)" fill="#5e57a7"/>
            </g>
          </g>
          <g id="tecla-36" data-name="tecla" transform="translate(107.472 52.819)">
            <g id="Group_189" data-name="Group 189">
              <rect id="Rectangle_199" data-name="Rectangle 199" width="11.431" height="11.431" rx="1.142" transform="translate(0.425 5.675) rotate(-29.767)" fill="#5e57a7" opacity="0.34"/>
              <rect id="Rectangle_200" data-name="Rectangle 200" width="10.891" height="10.891" rx="1.049" transform="matrix(0.868, -0.496, 0.496, 0.868, 0, 5.627)" fill="#5e57a7"/>
              <rect id="Rectangle_201" data-name="Rectangle 201" width="10.198" height="10.198" rx="0.841" transform="translate(0.473 5.755) rotate(-29.767)" fill="#5e57a7"/>
            </g>
          </g>
          <g id="tecla-37" data-name="tecla" transform="translate(122.825 44.043)">
            <g id="Group_190" data-name="Group 190">
              <rect id="Rectangle_202" data-name="Rectangle 202" width="11.431" height="11.431" rx="1.142" transform="translate(0.425 5.67) rotate(-29.745)" fill="#5e57a7" opacity="0.34"/>
              <rect id="Rectangle_203" data-name="Rectangle 203" width="10.891" height="10.891" rx="1.049" transform="translate(0 5.621) rotate(-29.766)" fill="#5e57a7"/>
              <rect id="Rectangle_204" data-name="Rectangle 204" width="10.198" height="10.198" rx="0.841" transform="translate(0.473 5.75) rotate(-29.766)" fill="#5e57a7"/>
            </g>
          </g>
          <g id="tecla-38" data-name="tecla" transform="translate(138.41 35.125)">
            <g id="Group_191" data-name="Group 191">
              <rect id="Rectangle_205" data-name="Rectangle 205" width="11.431" height="11.431" rx="1.142" transform="translate(0.425 5.675) rotate(-29.767)" fill="#5e57a7" opacity="0.34"/>
              <rect id="Rectangle_206" data-name="Rectangle 206" width="10.891" height="10.891" rx="1.049" transform="translate(0 5.626) rotate(-29.766)" fill="#5e57a7"/>
              <rect id="Rectangle_207" data-name="Rectangle 207" width="10.198" height="10.198" rx="0.841" transform="translate(0.473 5.755) rotate(-29.767)" fill="#5e57a7"/>
            </g>
          </g>
          <g id="tecla-39" data-name="tecla" transform="translate(153.763 26.349)">
            <g id="Group_192" data-name="Group 192">
              <rect id="Rectangle_208" data-name="Rectangle 208" width="11.431" height="11.431" rx="1.142" transform="translate(0.426 5.67) rotate(-29.745)" fill="#5e57a7" opacity="0.34"/>
              <rect id="Rectangle_209" data-name="Rectangle 209" width="10.891" height="10.891" rx="1.049" transform="translate(0 5.621) rotate(-29.768)" fill="#5e57a7"/>
              <rect id="Rectangle_210" data-name="Rectangle 210" width="10.198" height="10.198" rx="0.841" transform="matrix(0.868, -0.496, 0.496, 0.868, 0.473, 5.75)" fill="#5e57a7"/>
            </g>
          </g>
          <g id="tecla-40" data-name="tecla" transform="translate(169.116 17.562)">
            <g id="Group_193" data-name="Group 193">
              <rect id="Rectangle_211" data-name="Rectangle 211" width="11.431" height="11.431" rx="1.142" transform="translate(0.425 5.675) rotate(-29.767)" fill="#5e57a7" opacity="0.34"/>
              <path id="Rectangle_212" data-name="Rectangle 212" d="M1.049,0H9.842a1.049,1.049,0,0,1,1.049,1.049V9.842a1.049,1.049,0,0,1-1.049,1.049H1.05A1.05,1.05,0,0,1,0,9.841V1.049A1.049,1.049,0,0,1,1.049,0Z" transform="translate(0 5.626) rotate(-29.766)" fill="#5e57a7"/>
              <rect id="Rectangle_213" data-name="Rectangle 213" width="10.198" height="10.198" rx="0.841" transform="translate(0.473 5.755) rotate(-29.767)" fill="#5e57a7"/>
            </g>
          </g>
          <g id="tecla-41" data-name="tecla" transform="translate(184.186)">
            <g id="Group_194" data-name="Group 194">
              <rect id="Rectangle_214" data-name="Rectangle 214" width="29.444" height="11.431" rx="1.142" transform="translate(0.425 14.618) rotate(-29.767)" fill="#5e57a7" opacity="0.34"/>
              <path id="Rectangle_215" data-name="Rectangle 215" d="M1.049,0H27.855A1.05,1.05,0,0,1,28.9,1.05V9.842a1.049,1.049,0,0,1-1.049,1.049H1.05A1.05,1.05,0,0,1,0,9.842V1.049A1.049,1.049,0,0,1,1.049,0Z" transform="translate(0 14.569) rotate(-29.745)" fill="#5e57a7"/>
              <rect id="Rectangle_216" data-name="Rectangle 216" width="28.211" height="10.198" rx="0.841" transform="translate(0.473 14.698) rotate(-29.767)" fill="#5e57a7"/>
            </g>
          </g>
        </g>
        <g id="tecla-42" data-name="tecla" transform="translate(191.725 43.794)">
          <g id="Group_196" data-name="Group 196">
            <rect id="Rectangle_217" data-name="Rectangle 217" width="11.431" height="11.431" rx="1.142" transform="translate(0.425 5.67) rotate(-29.745)" fill="#5e57a7" opacity="0.34"/>
            <rect id="Rectangle_218" data-name="Rectangle 218" width="10.891" height="10.891" rx="1.049" transform="translate(0 5.621) rotate(-29.745)" fill="#5e57a7"/>
            <rect id="Rectangle_219" data-name="Rectangle 219" width="10.198" height="10.198" rx="0.841" transform="translate(0.473 5.75) rotate(-29.767)" fill="#5e57a7"/>
          </g>
        </g>
        <g id="tecla-43" data-name="tecla" transform="translate(173.826 54.031)">
          <g id="Group_197" data-name="Group 197">
            <rect id="Rectangle_220" data-name="Rectangle 220" width="11.431" height="11.431" rx="1.142" transform="translate(0.425 5.67) rotate(-29.745)" fill="#5e57a7" opacity="0.34"/>
            <rect id="Rectangle_221" data-name="Rectangle 221" width="10.891" height="10.891" rx="1.049" transform="translate(0 5.621) rotate(-29.745)" fill="#5e57a7"/>
            <rect id="Rectangle_222" data-name="Rectangle 222" width="10.198" height="10.198" rx="0.841" transform="matrix(0.868, -0.496, 0.496, 0.868, 0.473, 5.75)" fill="#5e57a7"/>
          </g>
        </g>
        <g id="tecla-44" data-name="tecla" transform="translate(155.927 64.269)">
          <g id="Group_198" data-name="Group 198">
            <rect id="Rectangle_223" data-name="Rectangle 223" width="11.431" height="11.431" rx="1.142" transform="translate(0.425 5.67) rotate(-29.745)" fill="#5e57a7" opacity="0.34"/>
            <path id="Rectangle_224" data-name="Rectangle 224" d="M1.049,0H9.842a1.049,1.049,0,0,1,1.049,1.049V9.842a1.049,1.049,0,0,1-1.049,1.049H1.05A1.05,1.05,0,0,1,0,9.842V1.049A1.049,1.049,0,0,1,1.049,0Z" transform="translate(0 5.621) rotate(-29.768)" fill="#5e57a7"/>
            <rect id="Rectangle_225" data-name="Rectangle 225" width="10.198" height="10.198" rx="0.841" transform="matrix(0.868, -0.496, 0.496, 0.868, 0.473, 5.75)" fill="#5e57a7"/>
          </g>
        </g>
        <g id="tecla-45" data-name="tecla" transform="translate(138.028 74.501)">
          <g id="Group_199" data-name="Group 199">
            <rect id="Rectangle_226" data-name="Rectangle 226" width="11.431" height="11.431" rx="1.142" transform="translate(0.425 5.675) rotate(-29.767)" fill="#5e57a7" opacity="0.34"/>
            <rect id="Rectangle_227" data-name="Rectangle 227" width="10.891" height="10.891" rx="1.049" transform="translate(0 5.627) rotate(-29.795)" fill="#5e57a7"/>
            <rect id="Rectangle_228" data-name="Rectangle 228" width="10.198" height="10.198" rx="0.841" transform="translate(0.473 5.755) rotate(-29.766)" fill="#5e57a7"/>
          </g>
        </g>
        <g id="tecla-46" data-name="tecla" transform="translate(120.13 84.743)">
          <g id="Group_200" data-name="Group 200">
            <rect id="Rectangle_229" data-name="Rectangle 229" width="11.431" height="11.431" rx="1.142" transform="translate(0.425 5.67) rotate(-29.745)" fill="#5e57a7" opacity="0.34"/>
            <rect id="Rectangle_230" data-name="Rectangle 230" width="10.891" height="10.891" rx="1.049" transform="translate(0 5.621) rotate(-29.766)" fill="#5e57a7"/>
            <rect id="Rectangle_231" data-name="Rectangle 231" width="10.198" height="10.198" rx="0.841" transform="translate(0.473 5.75) rotate(-29.745)" fill="#5e57a7"/>
          </g>
        </g>
        <g id="tecla-47" data-name="tecla" transform="translate(102.231 94.98)">
          <g id="Group_201" data-name="Group 201">
            <rect id="Rectangle_232" data-name="Rectangle 232" width="11.431" height="11.431" rx="1.142" transform="translate(0.425 5.67) rotate(-29.745)" fill="#5e57a7" opacity="0.34"/>
            <path id="Rectangle_233" data-name="Rectangle 233" d="M1.05,0H9.842a1.049,1.049,0,0,1,1.049,1.049V9.842a1.049,1.049,0,0,1-1.049,1.049H1.049A1.049,1.049,0,0,1,0,9.842V1.05A1.05,1.05,0,0,1,1.05,0Z" transform="translate(0 5.621) rotate(-29.765)" fill="#5e57a7"/>
            <rect id="Rectangle_234" data-name="Rectangle 234" width="10.198" height="10.198" rx="0.841" transform="translate(0.473 5.75) rotate(-29.766)" fill="#5e57a7"/>
          </g>
        </g>
        <g id="tecla-48" data-name="tecla" transform="translate(84.332 105.217)">
          <g id="Group_202" data-name="Group 202">
            <rect id="Rectangle_235" data-name="Rectangle 235" width="11.431" height="11.431" rx="1.142" transform="translate(0.425 5.67) rotate(-29.745)" fill="#5e57a7" opacity="0.34"/>
            <path id="Rectangle_236" data-name="Rectangle 236" d="M1.05,0H9.842a1.049,1.049,0,0,1,1.049,1.049V9.842a1.049,1.049,0,0,1-1.049,1.049H1.049A1.049,1.049,0,0,1,0,9.842V1.05A1.05,1.05,0,0,1,1.05,0Z" transform="translate(0 5.621) rotate(-29.765)" fill="#5e57a7"/>
            <rect id="Rectangle_237" data-name="Rectangle 237" width="10.198" height="10.198" rx="0.841" transform="translate(0.473 5.75) rotate(-29.766)" fill="#5e57a7"/>
          </g>
        </g>
        <g id="tecla-49" data-name="tecla" transform="translate(66.433 115.455)">
          <g id="Group_203" data-name="Group 203">
            <rect id="Rectangle_238" data-name="Rectangle 238" width="11.431" height="11.431" rx="1.142" transform="translate(0.425 5.67) rotate(-29.745)" fill="#5e57a7" opacity="0.34"/>
            <rect id="Rectangle_239" data-name="Rectangle 239" width="10.891" height="10.891" rx="1.049" transform="translate(0 5.621) rotate(-29.768)" fill="#5e57a7"/>
            <rect id="Rectangle_240" data-name="Rectangle 240" width="10.198" height="10.198" rx="0.841" transform="translate(0.473 5.75) rotate(-29.767)" fill="#5e57a7"/>
          </g>
        </g>
        <g id="tecla-50" data-name="tecla" transform="translate(48.534 125.687)">
          <g id="Group_204" data-name="Group 204">
            <rect id="Rectangle_241" data-name="Rectangle 241" width="11.431" height="11.431" rx="1.142" transform="translate(0.425 5.675) rotate(-29.767)" fill="#5e57a7" opacity="0.34"/>
            <rect id="Rectangle_242" data-name="Rectangle 242" width="10.891" height="10.891" rx="1.049" transform="translate(0 5.626) rotate(-29.768)" fill="#5e57a7"/>
            <rect id="Rectangle_243" data-name="Rectangle 243" width="10.198" height="10.198" rx="0.841" transform="translate(0.473 5.755) rotate(-29.767)" fill="#5e57a7"/>
          </g>
        </g>
        <g id="tecla-51" data-name="tecla" transform="translate(16.762 135.937)">
          <g id="Group_205" data-name="Group 205">
            <rect id="Rectangle_244" data-name="Rectangle 244" width="27.413" height="11.431" rx="0.426" transform="translate(0.425 13.597) rotate(-29.745)" fill="#5e57a7" opacity="0.34"/>
            <rect id="Rectangle_245" data-name="Rectangle 245" width="26.872" height="10.891" rx="0.391" transform="translate(0 13.548) rotate(-29.745)" fill="#5e57a7"/>
            <rect id="Rectangle_246" data-name="Rectangle 246" width="26.179" height="10.198" rx="0.314" transform="translate(0.473 13.677) rotate(-29.767)" fill="#5e57a7"/>
          </g>
        </g>
        <g id="tecla-52" data-name="tecla" transform="translate(197.241 77.485)">
          <g id="Group_206" data-name="Group 206">
            <rect id="Rectangle_247" data-name="Rectangle 247" width="11.431" height="11.431" rx="1.142" transform="translate(0.425 5.675) rotate(-29.767)" fill="#5e57a7" opacity="0.34"/>
            <path id="Rectangle_248" data-name="Rectangle 248" d="M1.049,0H9.842a1.049,1.049,0,0,1,1.049,1.049V9.842a1.05,1.05,0,0,1-1.05,1.05H1.049A1.049,1.049,0,0,1,0,9.842V1.049A1.049,1.049,0,0,1,1.049,0Z" transform="translate(0 5.626) rotate(-29.745)" fill="#5e57a7"/>
            <rect id="Rectangle_249" data-name="Rectangle 249" width="10.198" height="10.198" rx="0.841" transform="translate(0.473 5.755) rotate(-29.767)" fill="#5e57a7"/>
          </g>
        </g>
        <g id="tecla-53" data-name="tecla" transform="translate(231.429 57.931)">
          <g id="Group_207" data-name="Group 207">
            <rect id="Rectangle_250" data-name="Rectangle 250" width="11.431" height="11.431" rx="1.142" transform="translate(0.425 5.675) rotate(-29.767)" fill="#5e57a7" opacity="0.34"/>
            <path id="Rectangle_251" data-name="Rectangle 251" d="M1.05,0H9.842a1.049,1.049,0,0,1,1.049,1.049V9.842a1.05,1.05,0,0,1-1.05,1.05H1.049A1.049,1.049,0,0,1,0,9.842V1.05A1.05,1.05,0,0,1,1.05,0Z" transform="translate(0 5.626) rotate(-29.745)" fill="#5e57a7"/>
            <rect id="Rectangle_252" data-name="Rectangle 252" width="10.198" height="10.198" rx="0.841" transform="translate(0.473 5.755) rotate(-29.795)" fill="#5e57a7"/>
          </g>
        </g>
        <g id="tecla-54" data-name="tecla" transform="translate(214.335 67.708)">
          <g id="Group_208" data-name="Group 208">
            <rect id="Rectangle_253" data-name="Rectangle 253" width="11.431" height="11.431" rx="1.142" transform="translate(0.425 5.675) rotate(-29.767)" fill="#5e57a7" opacity="0.34"/>
            <rect id="Rectangle_254" data-name="Rectangle 254" width="10.891" height="10.891" rx="1.049" transform="translate(0 5.626) rotate(-29.745)" fill="#5e57a7"/>
            <rect id="Rectangle_255" data-name="Rectangle 255" width="10.198" height="10.198" rx="0.841" transform="translate(0.473 5.755) rotate(-29.767)" fill="#5e57a7"/>
          </g>
        </g>
        <g id="tecla-55" data-name="tecla" transform="translate(109.564 86.157)">
          <g id="Group_209" data-name="Group 209">
            <rect id="Rectangle_256" data-name="Rectangle 256" width="94.97" height="11.431" rx="1.142" transform="translate(0.425 47.15) rotate(-29.767)" fill="#5e57a7" opacity="0.34"/>
            <path id="Rectangle_257" data-name="Rectangle 257" d="M1.049,0H93.381A1.049,1.049,0,0,1,94.43,1.049V9.842a1.05,1.05,0,0,1-1.05,1.05H1.049A1.049,1.049,0,0,1,0,9.842V1.049A1.049,1.049,0,0,1,1.049,0Z" transform="translate(0 47.101) rotate(-29.745)" fill="#5e57a7"/>
            <rect id="Rectangle_258" data-name="Rectangle 258" width="93.737" height="10.198" rx="0.841" transform="translate(0.473 47.229) rotate(-29.745)" fill="#5e57a7"/>
          </g>
        </g>
        <g id="tecla-56" data-name="tecla" transform="translate(94.677 136.146)">
          <g id="Group_210" data-name="Group 210">
            <rect id="Rectangle_259" data-name="Rectangle 259" width="11.431" height="11.431" rx="1.142" transform="translate(0.425 5.675) rotate(-29.767)" fill="#5e57a7" opacity="0.34"/>
            <path id="Rectangle_260" data-name="Rectangle 260" d="M1.05,0H9.842a1.05,1.05,0,0,1,1.05,1.05V9.842a1.049,1.049,0,0,1-1.049,1.049H1.05A1.05,1.05,0,0,1,0,9.842V1.05A1.05,1.05,0,0,1,1.05,0Z" transform="translate(0 5.626) rotate(-29.765)" fill="#5e57a7"/>
            <rect id="Rectangle_261" data-name="Rectangle 261" width="10.198" height="10.198" rx="0.841" transform="translate(0.473 5.755) rotate(-29.766)" fill="#5e57a7"/>
          </g>
        </g>
        <g id="tecla-57" data-name="tecla" transform="translate(77.583 145.923)">
          <g id="Group_211" data-name="Group 211">
            <rect id="Rectangle_262" data-name="Rectangle 262" width="11.431" height="11.431" rx="1.142" transform="translate(0.425 5.675) rotate(-29.767)" fill="#5e57a7" opacity="0.34"/>
            <rect id="Rectangle_263" data-name="Rectangle 263" width="10.891" height="10.891" rx="1.049" transform="translate(0 5.626) rotate(-29.765)" fill="#5e57a7"/>
            <rect id="Rectangle_264" data-name="Rectangle 264" width="10.198" height="10.198" rx="0.841" transform="translate(0.473 5.755) rotate(-29.766)" fill="#5e57a7"/>
          </g>
        </g>
        <g id="tecla-58" data-name="tecla" transform="translate(60.489 155.705)">
          <g id="Group_212" data-name="Group 212">
            <rect id="Rectangle_265" data-name="Rectangle 265" width="11.431" height="11.431" rx="1.142" transform="translate(0.425 5.67) rotate(-29.745)" fill="#5e57a7" opacity="0.34"/>
            <rect id="Rectangle_266" data-name="Rectangle 266" width="10.891" height="10.891" rx="1.049" transform="translate(0 5.621) rotate(-29.768)" fill="#5e57a7"/>
            <rect id="Rectangle_267" data-name="Rectangle 267" width="10.198" height="10.198" rx="0.841" transform="matrix(0.868, -0.496, 0.496, 0.868, 0.473, 5.75)" fill="#5e57a7"/>
          </g>
        </g>
        <g id="tecla-59" data-name="tecla" transform="translate(32.644 163.691)">
          <g id="Group_213" data-name="Group 213">
            <rect id="Rectangle_268" data-name="Rectangle 268" width="27.413" height="11.431" rx="0.426" transform="translate(0.425 13.61) rotate(-29.767)" fill="#5e57a7" opacity="0.34"/>
            <rect id="Rectangle_269" data-name="Rectangle 269" width="26.873" height="10.891" rx="0.391" transform="translate(0 13.561) rotate(-29.745)" fill="#5e57a7"/>
            <rect id="Rectangle_270" data-name="Rectangle 270" width="26.179" height="10.198" rx="0.314" transform="translate(0.473 13.69) rotate(-29.745)" fill="#5e57a7"/>
          </g>
        </g>
        <g id="tecla-60" data-name="tecla" transform="translate(208.879 29.907)">
          <g id="Group_214" data-name="Group 214">
            <path id="Path_115" data-name="Path 115" d="M749.033,30.445a.382.382,0,0,0-.52-.141L731.838,39.84a.382.382,0,0,0-.141.52l5.029,8.792a.38.38,0,0,0,.519.141l5.466-3.125,7.614,13.312a.382.382,0,0,0,.52.141l10.892-6.23a.381.381,0,0,0,.141-.519Z" transform="translate(-730.817 -29.874)" fill="#5e57a7" opacity="0.34"/>
            <path id="Path_116" data-name="Path 116" d="M748.181,30.056a.38.38,0,0,0-.52-.141l-16.674,9.537a.38.38,0,0,0-.141.52l5.028,8.792a.382.382,0,0,0,.52.141l5.465-3.126,7.614,13.313a.382.382,0,0,0,.52.141L760.886,53a.382.382,0,0,0,.141-.52Z" transform="translate(-730.795 -29.864)" fill="#5e57a7"/>
            <path id="Path_117" data-name="Path 117" d="M747.961,30.513a.3.3,0,0,0-.417-.114l-16.2,9.268a.307.307,0,0,0-.114.417l4.76,8.322a.3.3,0,0,0,.417.114l5.545-3.172,7.563,13.223a.3.3,0,0,0,.417.114l10.522-6.018a.306.306,0,0,0,.114-.417l-8-13.991C752.507,38.164,747.961,30.513,747.961,30.513Z" transform="translate(-730.805 -29.877)" fill="#5e57a7"/>
          </g>
        </g>
      </g>
    </g>
  </g>
</svg>
