<svg xmlns="http://www.w3.org/2000/svg" xmlns:xlink="http://www.w3.org/1999/xlink" width="346.007" height="382.893" viewBox="0 0 346.007 382.893">
  <defs>
    <filter id="Rectangle_69" x="0" y="0" width="346.007" height="382.893" filterUnits="userSpaceOnUse">
      <feOffset dy="3" input="SourceAlpha"/>
      <feGaussianBlur stdDeviation="25" result="blur"/>
      <feFlood flood-opacity="0.161"/>
      <feComposite operator="in" in2="blur"/>
      <feComposite in="SourceGraphic"/>
    </filter>
  </defs>
  <g id="Group_139" data-name="Group 139" transform="translate(75 72)">
    <g transform="matrix(1, 0, 0, 1, -75, -72)" filter="url(#Rectangle_69)">
      <rect id="Rectangle_69-2" data-name="Rectangle 69" width="141.962" height="199.022" transform="translate(75 115.4) rotate(-17.8)" fill="#fff"/>
    </g>
    <path id="Rectangle_70" data-name="Rectangle 70" d="M26,0h1.92A25.993,25.993,0,0,1,53.91,25.99V48.279A26,26,0,0,1,27.916,74.273H26A26,26,0,0,1,0,48.279V26A26,26,0,0,1,26,0Z" transform="matrix(0.952, -0.306, 0.306, 0.952, 16.535, 51.848)" fill="#ae9ad9"/>
    <rect id="Rectangle_71" data-name="Rectangle 71" width="47.246" height="4.231" rx="2.104" transform="translate(83.927 36.625) rotate(-17.801)" fill="#ae9ad9"/>
    <rect id="Rectangle_72" data-name="Rectangle 72" width="47.246" height="4.231" rx="2.104" transform="translate(87.764 48.576) rotate(-17.801)" fill="#ae9ad9"/>
    <rect id="Rectangle_73" data-name="Rectangle 73" width="47.246" height="4.231" rx="2.104" transform="translate(91.601 60.526) rotate(-17.801)" fill="#ae9ad9"/>
    <path id="Path_81" data-name="Path 81" d="M1056.751,257.289l-104.016,33.4a2.056,2.056,0,0,1-2.579-1.325l-.04-.125a2.056,2.056,0,0,1,1.325-2.579l104.016-33.4a2.057,2.057,0,0,1,2.579,1.326l.04.125a2.056,2.056,0,0,1-1.325,2.578Z" transform="translate(-903.082 -148.014)" fill="#c9c3cc"/>
    <path id="Path_82" data-name="Path 82" d="M1061.148,270.985l-104.015,33.4a2.057,2.057,0,0,1-2.579-1.326l-.04-.125a2.056,2.056,0,0,1,1.325-2.579l104.016-33.4a2.055,2.055,0,0,1,2.578,1.325l.041.125A2.057,2.057,0,0,1,1061.148,270.985Z" transform="translate(-903.195 -148.367)" fill="#c9c3cc"/>
    <rect id="Rectangle_74" data-name="Rectangle 74" width="113.346" height="4.231" rx="2.104" transform="matrix(0.952, -0.306, 0.306, 0.952, 65.719, 199.413)" fill="#c9c3cc"/>
    <rect id="Rectangle_75" data-name="Rectangle 75" width="67.968" height="4.231" rx="2.104" transform="matrix(0.952, -0.306, 0.306, 0.952, 54.977, 165.957)" fill="#c9c3cc"/>
    <path id="Rectangle_76" data-name="Rectangle 76" d="M2.1,0H65.864a2.1,2.1,0,0,1,2.1,2.1v.023a2.1,2.1,0,0,1-2.1,2.1H2.1A2.1,2.1,0,0,1,0,2.128V2.1A2.1,2.1,0,0,1,2.1,0Z" transform="translate(61.137 185.14) rotate(-17.801)" fill="#c9c3cc"/>
    <g id="Group_138" data-name="Group 138" transform="translate(29.288 39.443)">
      <path id="Path_83" data-name="Path 83" d="M968.072,240.236l-17.883,5.742,2.661,8.285h0v.03c1.071,3.334,5.942,4.751,10.88,3.166s8.073-5.574,7-8.908c0-.01-.011-.018-.014-.027h0Z" transform="translate(-932.374 -187.124)" fill="#f0a79e"/>
      <g id="Group_137" data-name="Group 137">
        <path id="Path_84" data-name="Path 84" d="M941.18,197.6c-2.731-4.5.693-15.282,13.4-10.812s24.438,40.054,24.438,40.054-6.3,1.821-14.511-3.716S941.18,197.6,941.18,197.6Z" transform="translate(-932.119 -185.719)" fill="#4e40b5"/>
        <path id="Path_85" data-name="Path 85" d="M943.85,195.809c-16.862,5.414-12.21,20-7.961,31.335l3.715,1.089,13.287-4.267,13.288-4.266,2.386-3.048C965.419,204.961,960.712,190.394,943.85,195.809Z" transform="translate(-931.903 -185.949)" fill="#5546c5"/>
        <path id="Path_86" data-name="Path 86" d="M968.656,216.884a20.3,20.3,0,0,0-2.123,1.485c-4.906-15.279-11.168-16.272-19.7-13.534-9.929,3.188-13.264,6.843-8.233,22.513a20.565,20.565,0,0,0-2.624.028c-.479.113-1.364,1.8,1.046,6.953s4.614,4.947,5.726,4.408h0c4.543,7.916,11.911,12.351,18.278,10.306s9.774-9.935,8.863-19.014c1.218-.266,2.964-1.481,1.959-6.884C970.814,217.556,969.112,216.7,968.656,216.884Z" transform="translate(-931.993 -186.18)" fill="#f5b1a8"/>
        <path id="Path_87" data-name="Path 87" d="M946.807,204.8s5.308,17.119-8.233,22.513c-4.3-8.244-4.277-11.909-4.277-11.909l1.588-9,10.948-4.083Z" transform="translate(-931.964 -186.147)" fill="#5546c5"/>
        <path id="Path_88" data-name="Path 88" d="M946.816,204.823s5.823,16.942,19.973,13.445c-1.3-9.205-3.628-12.107-3.628-12.107l-6.528-6.39-11.279,3.054Z" transform="translate(-932.25 -186.081)" fill="#5546c5"/>
      </g>
    </g>
  </g>
</svg>
