<svg xmlns="http://www.w3.org/2000/svg" xmlns:xlink="http://www.w3.org/1999/xlink" width="355.018" height="406.702" viewBox="0 0 355.018 406.702">
  <defs>
    <filter id="Rectangle_77" x="0" y="0" width="355.018" height="406.702" filterUnits="userSpaceOnUse">
      <feOffset dy="3" input="SourceAlpha"/>
      <feGaussianBlur stdDeviation="25" result="blur"/>
      <feFlood flood-opacity="0.161"/>
      <feComposite operator="in" in2="blur"/>
      <feComposite in="SourceGraphic"/>
    </filter>
  </defs>
  <g id="Group_141" data-name="Group 141" transform="translate(75 72)">
    <g transform="matrix(1, 0, 0, 1, -75, -72)" filter="url(#Rectangle_77)">
      <rect id="Rectangle_77-2" data-name="Rectangle 77" width="163.533" height="229.263" transform="matrix(0.98, 0.19, -0.19, 0.98, 119.61, 72)" fill="#fff"/>
    </g>
    <rect id="Rectangle_78" data-name="Rectangle 78" width="62.102" height="85.559" rx="25.995" transform="matrix(0.981, 0.195, -0.195, 0.981, 56.548, 17.751)" fill="#ae9ad9"/>
    <g id="Group_140" data-name="Group 140" transform="translate(57.383 29.293)">
      <path id="Path_89" data-name="Path 89" d="M859.655,140.272c-20.011-3.968-23.473,13.323-25.53,27.118l3.134,3.172,15.77,3.127,15.77,3.127,4.107-1.737C876.269,161.544,879.666,144.24,859.655,140.272Z" transform="translate(-831.237 -139.695)" fill="#5546c5"/>
      <path id="Path_90" data-name="Path 90" d="M859.466,198.522l-21.223-4.209-1.949,9.832h.006c0,.012-.01.021-.013.033-.784,3.956,3.33,8.107,9.191,9.269s11.247-1.1,12.033-5.061v-.034h.006Z" transform="translate(-831.29 -141.103)" fill="#f0a79e"/>
      <path id="Path_91" data-name="Path 91" d="M872.83,175.35a23.236,23.236,0,0,0-2.968.308c3.595-18.131-2.159-22.631-12.28-24.638-11.782-2.337-17.182-.52-20.874,18.08a23.628,23.628,0,0,0-2.66-1.437c-.546-.154-2.38,1.053-2.83,7.588s1.883,7.562,3.3,7.641h0c.153,10.513,5.1,19.1,12.654,20.6s15.4-4.548,19.552-14.2c1.375.412,3.812.163,5.82-5.84C874.627,177.232,873.393,175.416,872.83,175.35Z" transform="translate(-831.161 -139.966)" fill="#f5b1a8"/>
      <path id="Path_92" data-name="Path 92" d="M865.988,154.011c-2.655,1.437-21.629,7.23-26.792,6.264,7.367-2.943,7.274-3.7,7.274-3.7l-7.274,2.638s1.9-9.987,8.121-11.117,20.067,1.275,20.067,1.275l.659,4.715Z" transform="translate(-831.368 -139.904)" fill="#5546c5"/>
    </g>
    <rect id="Rectangle_79" data-name="Rectangle 79" width="54.425" height="4.874" rx="2.424" transform="translate(132.94 40.073) rotate(11.186)" fill="#ae9ad9"/>
    <rect id="Rectangle_80" data-name="Rectangle 80" width="54.425" height="4.874" rx="2.424" transform="matrix(0.981, 0.194, -0.194, 0.981, 130.128, 54.256)" fill="#ae9ad9"/>
    <rect id="Rectangle_81" data-name="Rectangle 81" width="54.425" height="4.874" rx="2.424" transform="translate(127.315 68.438) rotate(11.186)" fill="#ae9ad9"/>
    <rect id="Rectangle_82" data-name="Rectangle 82" width="130.568" height="4.874" rx="2.424" transform="translate(39.239 115.205) rotate(11.186)" fill="#c9c3cc"/>
    <rect id="Rectangle_83" data-name="Rectangle 83" width="130.568" height="4.874" rx="2.424" transform="matrix(0.981, 0.194, -0.194, 0.981, 36.099, 131.04)" fill="#c9c3cc"/>
    <rect id="Rectangle_84" data-name="Rectangle 84" width="78.295" height="4.874" rx="2.424" transform="matrix(0.981, 0.194, -0.194, 0.981, 32.959, 146.875)" fill="#c9c3cc"/>
    <rect id="Rectangle_85" data-name="Rectangle 85" width="130.569" height="4.874" rx="2.424" transform="translate(29.017 165.52) rotate(11.186)" fill="#c9c3cc"/>
    <rect id="Rectangle_86" data-name="Rectangle 86" width="78.295" height="4.874" rx="2.424" transform="matrix(0.981, 0.194, -0.194, 0.981, 25.877, 181.356)" fill="#c9c3cc"/>
  </g>
</svg>
