<?xml version="1.0" encoding="UTF-8"?>
<svg width="290px" height="143px" viewBox="0 0 290 143" version="1.1" xmlns="http://www.w3.org/2000/svg" xmlns:xlink="http://www.w3.org/1999/xlink">
    <!-- Generator: Sketch 53.1 (72631) - https://sketchapp.com -->
    <title>Artboard</title>
    <desc>Created with Sketch.</desc>
    <g id="Artboard" stroke="none" stroke-width="1" fill="none" fill-rule="evenodd">
        <g id="1" transform="translate(-57.000000, -123.000000)" fill-rule="nonzero">
            <g id="Group_151" transform="translate(203.000000, 193.500000) rotate(30.000000) translate(-203.000000, -193.500000) translate(45.000000, 62.000000)">
                <g id="Group" fill="#FFFFFF">
                    <polygon id="Path_113-2" points="315.326 117.544 65.543 261.173 0.003 142.089 245.38 0.996"></polygon>
                </g>
                <polygon id="Path_114" fill="#5546C5" points="311.451 126.135 74.901 262.154 65.536 261.18 315.321 117.551"></polygon>
            </g>
            <g id="Group_216" opacity="0.1" transform="translate(202.978000, 192.277000) rotate(30.000000) translate(-202.978000, -192.277000) translate(78.478000, 97.777000)" fill="#5E57A7">
                <g id="Group_215">
                    <g id="Group_166">
                        <g id="tecla" transform="translate(0.000000, 115.283000)">
                            <g id="Group_152">
                                <rect id="Rectangle_96" opacity="0.34" transform="translate(8.223946, 7.798751) rotate(-29.767000) translate(-8.223946, -7.798751) " x="2.50844622" y="2.083251" width="11.431" height="11.431" rx="1.142"></rect>
                                <path d="M3.03399364,2.20354715 L11.8269936,2.20354715 C12.4068926,2.20354715 12.8769936,2.67364816 12.8769936,3.25354715 L12.8769936,12.0455471 C12.8769936,12.6248939 12.4073403,13.0945471 11.8279936,13.0945471 L3.03399364,13.0945471 C2.45464694,13.0945471 1.98499364,12.6248939 1.98499364,12.0455471 L1.98499364,3.25254715 C1.98499364,2.67320045 2.45464694,2.20354715 3.03399364,2.20354715 Z" id="Rectangle_97" transform="translate(7.430994, 7.649047) rotate(-29.768000) translate(-7.430994, -7.649047) "></path>
                                <rect id="Rectangle_98" transform="translate(7.428036, 7.651828) rotate(-29.744881) translate(-7.428036, -7.651828) " x="2.33046392" y="2.55425592" width="10.1951442" height="10.1951442" rx="0.841"></rect>
                            </g>
                        </g>
                        <g id="tecla-2" transform="translate(15.353000, 105.506000)">
                            <g id="Group_153">
                                <rect id="Rectangle_99" opacity="0.34" transform="translate(8.223130, 8.796745) rotate(-29.745000) translate(-8.223130, -8.796745) " x="2.50763019" y="3.08124542" width="11.431" height="11.431" rx="1.142"></rect>
                                <rect id="Rectangle_100" transform="translate(7.430489, 8.644555) rotate(-29.766000) translate(-7.430489, -8.644555) " x="1.98498899" y="3.19905477" width="10.891" height="10.891" rx="1.049"></rect>
                                <rect id="Rectangle_101" transform="translate(7.429988, 8.647345) rotate(-29.745000) translate(-7.429988, -8.647345) " x="2.33098816" y="3.54834492" width="10.198" height="10.198" rx="0.841"></rect>
                            </g>
                        </g>
                        <g id="tecla-3" transform="translate(30.706000, 96.725000)">
                            <g id="Group_154">
                                <rect id="Rectangle_102" opacity="0.34" transform="translate(8.223130, 8.796745) rotate(-29.745000) translate(-8.223130, -8.796745) " x="2.50763019" y="3.08124542" width="11.431" height="11.431" rx="1.142"></rect>
                                <path d="M3.03405962,3.19879539 L11.8270596,3.19879539 C12.4064063,3.19879539 12.8760596,3.66844869 12.8760596,4.24779539 L12.8760596,13.0407954 C12.8760596,13.6201421 12.4064063,14.0897954 11.8270596,14.0897954 L3.03505962,14.0897954 C2.45555093,14.0897957 1.98561153,13.6203038 1.98505962,13.0407954 L1.98505962,4.24779539 C1.98505962,3.66844869 2.45471292,3.19879539 3.03405962,3.19879539 Z" id="Rectangle_103" transform="translate(7.430560, 8.644295) rotate(-29.768000) translate(-7.430560, -8.644295) "></path>
                                <rect id="Rectangle_104" transform="translate(7.428036, 8.646828) rotate(-29.744881) translate(-7.428036, -8.646828) " x="2.33046392" y="3.54925592" width="10.1951442" height="10.1951442" rx="0.841"></rect>
                            </g>
                        </g>
                        <g id="tecla-4" transform="translate(46.059000, 88.939000)">
                            <g id="Group_155">
                                <rect id="Rectangle_105" opacity="0.34" transform="translate(8.223946, 7.798751) rotate(-29.767000) translate(-8.223946, -7.798751) " x="2.50844622" y="2.083251" width="11.431" height="11.431" rx="1.142"></rect>
                                <rect id="Rectangle_106" transform="translate(7.430454, 7.649684) rotate(-29.765000) translate(-7.430454, -7.649684) " x="1.98495367" y="2.20418445" width="10.891" height="10.891" rx="1.049"></rect>
                                <rect id="Rectangle_107" transform="translate(7.430683, 7.649795) rotate(-29.766000) translate(-7.430683, -7.649795) " x="2.33168311" y="2.55079493" width="10.198" height="10.198" rx="0.841"></rect>
                            </g>
                        </g>
                        <g id="tecla-5" transform="translate(61.412000, 79.163000)">
                            <g id="Group_156">
                                <rect id="Rectangle_108" opacity="0.34" transform="translate(8.223130, 8.796745) rotate(-29.745000) translate(-8.223130, -8.796745) " x="2.50763019" y="3.08124542" width="11.431" height="11.431" rx="1.142"></rect>
                                <path d="M3.03318094,3.20252998 L11.8261809,3.20252998 C12.4060799,3.20252998 12.8761809,3.67263099 12.8761809,4.25252998 L12.8761809,13.04453 C12.8761809,13.6238767 12.4065276,14.09353 11.8271809,14.09353 L3.03418094,14.09353 C2.45467225,14.0935302 1.98473285,13.6240384 1.98418094,13.04453 L1.98418094,4.25152998 C1.98418094,3.67218328 2.45383424,3.20252998 3.03318094,3.20252998 Z" id="Rectangle_109" transform="translate(7.430181, 8.648030) rotate(-29.745000) translate(-7.430181, -8.648030) "></path>
                                <rect id="Rectangle_110" transform="translate(7.428036, 8.646828) rotate(-29.744881) translate(-7.428036, -8.646828) " x="2.33046392" y="3.54925592" width="10.1951442" height="10.1951442" rx="0.841"></rect>
                            </g>
                        </g>
                        <g id="tecla-6" transform="translate(76.766000, 70.382000)">
                            <g id="Group_157">
                                <rect id="Rectangle_111" opacity="0.34" transform="translate(8.223130, 8.796745) rotate(-29.745000) translate(-8.223130, -8.796745) " x="2.50763019" y="3.08124542" width="11.431" height="11.431" rx="1.142"></rect>
                                <path d="M3.03423725,3.19898892 L11.8272372,3.19898892 C12.406584,3.19898892 12.8762372,3.66864221 12.8762372,4.24798892 L12.8762372,13.0409889 C12.8762372,13.6208879 12.4061362,14.0909889 11.8262372,14.0909889 L3.03423725,14.0909889 C2.7558518,14.090989 2.48888289,13.9803325 2.29212846,13.7833905 C2.09537403,13.5864485 1.98497187,13.3193742 1.98523725,13.0409889 L1.98523725,4.24798892 C1.98523725,3.66864221 2.45489055,3.19898892 3.03423725,3.19898892 Z" id="Rectangle_112" transform="translate(7.430737, 8.644989) rotate(-29.766000) translate(-7.430737, -8.644989) "></path>
                                <rect id="Rectangle_113" transform="translate(7.430683, 8.644795) rotate(-29.766000) translate(-7.430683, -8.644795) " x="2.33168311" y="3.54579493" width="10.198" height="10.198" rx="0.841"></rect>
                            </g>
                        </g>
                        <g id="tecla-7" transform="translate(92.119000, 61.601000)">
                            <g id="Group_158">
                                <rect id="Rectangle_114" opacity="0.34" transform="translate(8.223130, 8.796745) rotate(-29.745000) translate(-8.223130, -8.796745) " x="2.50763019" y="3.08124542" width="11.431" height="11.431" rx="1.142"></rect>
                                <path d="M3.03399364,3.19854715 L11.8269936,3.19854715 C12.4068926,3.19854715 12.8769936,3.66864816 12.8769936,4.24854715 L12.8769936,13.0405471 C12.8769936,13.6198939 12.4073403,14.0895471 11.8279936,14.0895471 L3.03499364,14.0895471 C2.45548495,14.0895474 1.98554555,13.6200556 1.98499364,13.0405471 L1.98499364,4.24754715 C1.98499364,3.66820045 2.45464694,3.19854715 3.03399364,3.19854715 Z" id="Rectangle_115" transform="translate(7.430994, 8.644047) rotate(-29.768000) translate(-7.430994, -8.644047) "></path>
                                <rect id="Rectangle_116" transform="translate(7.428036, 8.646828) rotate(-29.744881) translate(-7.428036, -8.646828) " x="2.33046392" y="3.54925592" width="10.1951442" height="10.1951442" rx="0.841"></rect>
                            </g>
                        </g>
                        <g id="tecla-8" transform="translate(107.472000, 53.814000)">
                            <g id="Group_159">
                                <rect id="Rectangle_117" opacity="0.34" transform="translate(8.223946, 7.798751) rotate(-29.767000) translate(-8.223946, -7.798751) " x="2.50844622" y="2.083251" width="11.431" height="11.431" rx="1.142"></rect>
                                <rect id="Rectangle_118" transform="translate(7.429747, 7.652278) rotate(-29.745000) translate(-7.429747, -7.652278) " x="1.98424682" y="2.20677805" width="10.891" height="10.891" rx="1.049"></rect>
                                <rect id="Rectangle_119" transform="translate(7.430683, 7.649795) rotate(-29.766000) translate(-7.430683, -7.649795) " x="2.33168311" y="2.55079493" width="10.198" height="10.198" rx="0.841"></rect>
                            </g>
                        </g>
                        <g id="tecla-9" transform="translate(122.825000, 44.038000)">
                            <g id="Group_160">
                                <rect id="Rectangle_120" opacity="0.34" transform="translate(8.223130, 8.796745) rotate(-29.745000) translate(-8.223130, -8.796745) " x="2.50763019" y="3.08124542" width="11.431" height="11.431" rx="1.142"></rect>
                                <path d="M3.03494615,3.19604515 L11.8279462,3.19604515 C12.4078451,3.19604515 12.8779462,3.66614616 12.8779462,4.24604515 L12.8779462,13.0380452 C12.8779462,13.6173919 12.4082929,14.0870452 11.8289462,14.0870452 L3.03494615,14.0870452 C2.45559945,14.0870452 1.98594615,13.6173919 1.98594615,13.0380452 L1.98594615,4.24504515 C1.98594615,3.66569845 2.45559945,3.19604515 3.03494615,3.19604515 Z" id="Rectangle_121" transform="translate(7.431946, 8.641545) rotate(-29.795000) translate(-7.431946, -8.641545) "></path>
                                <rect id="Rectangle_122" transform="translate(7.433135, 8.641729) rotate(-29.794617) translate(-7.433135, -8.641729) " x="2.33303119" y="3.54162519" width="10.2002076" height="10.2002076" rx="0.841"></rect>
                            </g>
                        </g>
                        <g id="tecla-10" transform="translate(138.410000, 36.119000)">
                            <g id="Group_161">
                                <rect id="Rectangle_123" opacity="0.34" transform="translate(8.223983, 7.798615) rotate(-29.768000) translate(-8.223983, -7.798615) " x="2.50848329" y="2.08311488" width="11.431" height="11.431" rx="1.142"></rect>
                                <path d="M3.03318094,2.20752998 L11.8261809,2.20752998 C12.4060799,2.20752998 12.8761809,2.67763099 12.8761809,3.25752998 L12.8761809,12.04953 C12.8761809,12.6288767 12.4065276,13.09853 11.8271809,13.09853 L3.03318094,13.09853 C2.45383424,13.09853 1.98418094,12.6288767 1.98418094,12.04953 L1.98418094,3.25652998 C1.98418094,2.67718328 2.45383424,2.20752998 3.03318094,2.20752998 Z" id="Rectangle_124" transform="translate(7.430181, 7.653030) rotate(-29.745000) translate(-7.430181, -7.653030) "></path>
                                <rect id="Rectangle_125" transform="translate(7.428036, 7.651828) rotate(-29.744881) translate(-7.428036, -7.651828) " x="2.33046392" y="2.55425592" width="10.1951442" height="10.1951442" rx="0.841"></rect>
                            </g>
                        </g>
                        <g id="tecla-11" transform="translate(153.763000, 27.338000)">
                            <g id="Group_162">
                                <rect id="Rectangle_126" opacity="0.34" transform="translate(8.223946, 7.798751) rotate(-29.767000) translate(-8.223946, -7.798751) " x="2.50844622" y="2.083251" width="11.431" height="11.431" rx="1.142"></rect>
                                <path d="M3.03498899,2.20405477 L11.826989,2.20405477 C12.4063357,2.20405477 12.875989,2.67370807 12.875989,3.25305477 L12.875989,12.0460548 C12.875989,12.6254015 12.4063357,13.0950548 11.826989,13.0950548 L3.03398899,13.0950548 C2.45464229,13.0950548 1.98498899,12.6254015 1.98498899,12.0460548 L1.98498899,3.25405477 C1.98498899,2.67415578 2.45509,2.20405477 3.03498899,2.20405477 Z" id="Rectangle_127" transform="translate(7.430489, 7.649555) rotate(-29.766000) translate(-7.430489, -7.649555) "></path>
                                <rect id="Rectangle_128" transform="translate(7.430683, 7.649795) rotate(-29.766000) translate(-7.430683, -7.649795) " x="2.33168311" y="2.55079493" width="10.198" height="10.198" rx="0.841"></rect>
                            </g>
                        </g>
                        <g id="tecla-12" transform="translate(169.116000, 17.562000)">
                            <g id="Group_163">
                                <rect id="Rectangle_129" opacity="0.34" transform="translate(8.223130, 8.796745) rotate(-29.745000) translate(-8.223130, -8.796745) " x="2.50763019" y="3.08124542" width="11.431" height="11.431" rx="1.142"></rect>
                                <rect id="Rectangle_130" transform="translate(7.429747, 8.647278) rotate(-29.745000) translate(-7.429747, -8.647278) " x="1.98424682" y="3.20177805" width="10.891" height="10.891" rx="1.049"></rect>
                                <rect id="Rectangle_131" transform="translate(7.428036, 8.646828) rotate(-29.744881) translate(-7.428036, -8.646828) " x="2.33046392" y="3.54925592" width="10.1951442" height="10.1951442" rx="0.841"></rect>
                            </g>
                        </g>
                        <g id="tecla-13" transform="translate(184.469000, 9.776000)">
                            <g id="Group_164">
                                <rect id="Rectangle_132" opacity="0.34" transform="translate(8.223946, 7.798751) rotate(-29.767000) translate(-8.223946, -7.798751) " x="2.50844622" y="2.083251" width="11.431" height="11.431" rx="1.142"></rect>
                                <path d="M3.03523725,2.20398892 L11.8272372,2.20398892 C12.406584,2.20398892 12.8762372,2.67364221 12.8762372,3.25298892 L12.8762372,12.0459889 C12.8762372,12.6258879 12.4061362,13.0959889 11.8262372,13.0959889 L3.03423725,13.0959889 C2.7558518,13.095989 2.48888289,12.9853325 2.29212846,12.7883905 C2.09537403,12.5914485 1.98497187,12.3243742 1.98523725,12.0459889 L1.98523725,3.25398892 C1.98523725,2.67408993 2.45533826,2.20398892 3.03523725,2.20398892 Z" id="Rectangle_133" transform="translate(7.430737, 7.649989) rotate(-29.766000) translate(-7.430737, -7.649989) "></path>
                                <rect id="Rectangle_134" transform="translate(7.430683, 7.649795) rotate(-29.766000) translate(-7.430683, -7.649795) " x="2.33168311" y="2.55079493" width="10.198" height="10.198" rx="0.841"></rect>
                            </g>
                        </g>
                        <g id="tecla-14" transform="translate(199.822000, 0.000000)">
                            <g id="Group_165">
                                <rect id="Rectangle_135" opacity="0.34" transform="translate(8.223130, 8.796745) rotate(-29.745000) translate(-8.223130, -8.796745) " x="2.50763019" y="3.08124542" width="11.431" height="11.431" rx="1.142"></rect>
                                <rect id="Rectangle_136" transform="translate(7.429747, 8.648278) rotate(-29.745000) translate(-7.429747, -8.648278) " x="1.98424682" y="3.20277805" width="10.891" height="10.891" rx="1.049"></rect>
                                <rect id="Rectangle_137" transform="translate(7.428036, 8.646828) rotate(-29.744881) translate(-7.428036, -8.646828) " x="2.33046392" y="3.54925592" width="10.1951442" height="10.1951442" rx="0.841"></rect>
                            </g>
                        </g>
                    </g>
                    <g id="Group_181" transform="translate(24.819000, 44.086000)">
                        <g id="tecla-15" transform="translate(0.000000, 114.590000)">
                            <g id="Group_167">
                                <rect id="Rectangle_138" opacity="0.34" transform="translate(8.223983, 7.798615) rotate(-29.768000) translate(-8.223983, -7.798615) " x="2.50848329" y="2.08311488" width="11.431" height="11.431" rx="1.142"></rect>
                                <path d="M3.03342904,2.20746422 L11.826429,2.20746422 C12.406328,2.20746422 12.876429,2.67756523 12.876429,3.25746422 L12.876429,12.0494642 C12.876429,12.6293632 12.406328,13.0994642 11.826429,13.0994642 L3.03342904,13.0994642 C2.75504359,13.0994643 2.48807468,12.9888078 2.29132025,12.7918658 C2.09456582,12.5949238 1.98416366,12.3278495 1.98442904,12.0494642 L1.98442904,3.25646422 C1.98442904,2.67711752 2.45408234,2.20746422 3.03342904,2.20746422 Z" id="Rectangle_139" transform="translate(7.430429, 7.653464) rotate(-29.745000) translate(-7.430429, -7.653464) "></path>
                                <rect id="Rectangle_140" transform="translate(7.430716, 7.649673) rotate(-29.767000) translate(-7.430716, -7.649673) " x="2.33171617" y="2.55067349" width="10.198" height="10.198" rx="0.841"></rect>
                            </g>
                        </g>
                        <g id="tecla-16" transform="translate(15.353000, 105.809000)">
                            <g id="Group_168">
                                <rect id="Rectangle_141" opacity="0.34" transform="translate(8.223983, 7.798615) rotate(-29.768000) translate(-8.223983, -7.798615) " x="2.50848329" y="2.08311488" width="11.431" height="11.431" rx="1.142"></rect>
                                <rect id="Rectangle_142" transform="translate(7.430489, 7.649555) rotate(-29.766000) translate(-7.430489, -7.649555) " x="1.98498899" y="2.20405477" width="10.891" height="10.891" rx="1.049"></rect>
                                <rect id="Rectangle_143" transform="translate(7.430716, 7.649673) rotate(-29.767000) translate(-7.430716, -7.649673) " x="2.33171617" y="2.55067349" width="10.198" height="10.198" rx="0.841"></rect>
                            </g>
                        </g>
                        <g id="tecla-17" transform="translate(30.706000, 97.028000)">
                            <g id="Group_169">
                                <rect id="Rectangle_144" opacity="0.34" transform="translate(8.223946, 7.798751) rotate(-29.767000) translate(-8.223946, -7.798751) " x="2.50844622" y="2.083251" width="11.431" height="11.431" rx="1.142"></rect>
                                <rect id="Rectangle_145" transform="translate(7.429747, 7.653278) rotate(-29.745000) translate(-7.429747, -7.653278) " x="1.98424682" y="2.20777805" width="10.891" height="10.891" rx="1.049"></rect>
                                <rect id="Rectangle_146" transform="translate(7.430716, 7.649673) rotate(-29.767000) translate(-7.430716, -7.649673) " x="2.33171617" y="2.55067349" width="10.198" height="10.198" rx="0.841"></rect>
                            </g>
                        </g>
                        <g id="tecla-18" transform="translate(46.059000, 88.247000)">
                            <g id="Group_170">
                                <rect id="Rectangle_147" opacity="0.34" transform="translate(8.223946, 7.798751) rotate(-29.767000) translate(-8.223946, -7.798751) " x="2.50844622" y="2.083251" width="11.431" height="11.431" rx="1.142"></rect>
                                <rect id="Rectangle_148" transform="translate(7.430489, 7.649555) rotate(-29.766000) translate(-7.430489, -7.649555) " x="1.98498899" y="2.20405477" width="10.891" height="10.891" rx="1.049"></rect>
                                <rect id="Rectangle_149" transform="translate(7.430716, 7.649673) rotate(-29.767000) translate(-7.430716, -7.649673) " x="2.33171617" y="2.55067349" width="10.198" height="10.198" rx="0.841"></rect>
                            </g>
                        </g>
                        <g id="tecla-19" transform="translate(61.412000, 79.466000)">
                            <g id="Group_171">
                                <rect id="Rectangle_150" opacity="0.34" transform="translate(8.223946, 7.798751) rotate(-29.767000) translate(-8.223946, -7.798751) " x="2.50844622" y="2.083251" width="11.431" height="11.431" rx="1.142"></rect>
                                <path d="M3.03264122,2.20868521 L11.8231788,2.20868521 C12.4023633,2.20868521 12.8718851,2.67820699 12.8718851,3.25739145 L12.8718851,12.0479291 C12.8718851,12.6276657 12.4019157,13.097635 11.8221791,13.097635 L3.03264122,13.097635 C2.75433374,13.0976352 2.48743959,12.9870096 2.29074025,12.7901227 C2.09404092,12.5932359 1.98366968,12.3262364 1.98393498,12.0479291 L1.98393498,3.25739145 C1.98393498,2.67820699 2.45345676,2.20868521 3.03264122,2.20868521 Z" id="Rectangle_151" transform="translate(7.427910, 7.653160) rotate(-29.744881) translate(-7.427910, -7.653160) "></path>
                                <rect id="Rectangle_152" transform="translate(7.430683, 7.649795) rotate(-29.766000) translate(-7.430683, -7.649795) " x="2.33168311" y="2.55079493" width="10.198" height="10.198" rx="0.841"></rect>
                            </g>
                        </g>
                        <g id="tecla-20" transform="translate(76.766000, 69.690000)">
                            <g id="Group_172">
                                <rect id="Rectangle_153" opacity="0.34" transform="translate(8.223130, 8.796745) rotate(-29.745000) translate(-8.223130, -8.796745) " x="2.50763019" y="3.08124542" width="11.431" height="11.431" rx="1.142"></rect>
                                <rect id="Rectangle_154" transform="translate(7.430489, 8.644555) rotate(-29.766000) translate(-7.430489, -8.644555) " x="1.98498899" y="3.19905477" width="10.891" height="10.891" rx="1.049"></rect>
                                <rect id="Rectangle_155" transform="translate(7.430683, 8.644795) rotate(-29.766000) translate(-7.430683, -8.644795) " x="2.33168311" y="3.54579493" width="10.198" height="10.198" rx="0.841"></rect>
                            </g>
                        </g>
                        <g id="tecla-21" transform="translate(92.119000, 61.904000)">
                            <g id="Group_173">
                                <rect id="Rectangle_156" opacity="0.34" transform="translate(8.223946, 7.798751) rotate(-29.767000) translate(-8.223946, -7.798751) " x="2.50844622" y="2.083251" width="11.431" height="11.431" rx="1.142"></rect>
                                <rect id="Rectangle_157" transform="translate(7.430560, 7.649295) rotate(-29.768000) translate(-7.430560, -7.649295) " x="1.98505962" y="2.20379539" width="10.891" height="10.891" rx="1.049"></rect>
                                <rect id="Rectangle_158" transform="translate(7.430683, 7.649795) rotate(-29.766000) translate(-7.430683, -7.649795) " x="2.33168311" y="2.55079493" width="10.198" height="10.198" rx="0.841"></rect>
                            </g>
                        </g>
                        <g id="tecla-22" transform="translate(107.472000, 52.127000)">
                            <g id="Group_174">
                                <rect id="Rectangle_159" opacity="0.34" transform="translate(8.223130, 8.796745) rotate(-29.745000) translate(-8.223130, -8.796745) " x="2.50763019" y="3.08124542" width="11.431" height="11.431" rx="1.142"></rect>
                                <rect id="Rectangle_160" transform="translate(7.430489, 8.644555) rotate(-29.766000) translate(-7.430489, -8.644555) " x="1.98498899" y="3.19905477" width="10.891" height="10.891" rx="1.049"></rect>
                                <rect id="Rectangle_161" transform="translate(7.430683, 8.644795) rotate(-29.766000) translate(-7.430683, -8.644795) " x="2.33168311" y="3.54579493" width="10.198" height="10.198" rx="0.841"></rect>
                            </g>
                        </g>
                        <g id="tecla-23" transform="translate(122.825000, 44.341000)">
                            <g id="Group_175">
                                <rect id="Rectangle_162" opacity="0.34" transform="translate(8.223946, 7.798751) rotate(-29.767000) translate(-8.223946, -7.798751) " x="2.50844622" y="2.083251" width="11.431" height="11.431" rx="1.142"></rect>
                                <path d="M3.03264122,2.20868521 L11.8231788,2.20868521 C12.4023633,2.20868521 12.8718851,2.67820699 12.8718851,3.25739145 L12.8718851,12.0479291 C12.8718851,12.6276657 12.4019157,13.097635 11.8221791,13.097635 L3.03264122,13.097635 C2.75433374,13.0976352 2.48743959,12.9870096 2.29074025,12.7901227 C2.09404092,12.5932359 1.98366968,12.3262364 1.98393498,12.0479291 L1.98393498,3.25739145 C1.98393498,2.67820699 2.45345676,2.20868521 3.03264122,2.20868521 Z" id="Rectangle_163" transform="translate(7.427910, 7.653160) rotate(-29.744881) translate(-7.427910, -7.653160) "></path>
                                <rect id="Rectangle_164" transform="translate(7.430716, 7.649673) rotate(-29.767000) translate(-7.430716, -7.649673) " x="2.33171617" y="2.55067349" width="10.198" height="10.198" rx="0.841"></rect>
                            </g>
                        </g>
                        <g id="tecla-24" transform="translate(138.410000, 35.428000)">
                            <g id="Group_176">
                                <rect id="Rectangle_165" opacity="0.34" transform="translate(8.223946, 7.798751) rotate(-29.767000) translate(-8.223946, -7.798751) " x="2.50844622" y="2.083251" width="11.431" height="11.431" rx="1.142"></rect>
                                <path d="M3.03318094,2.20752998 L11.8261809,2.20752998 C12.4060799,2.20752998 12.8761809,2.67763099 12.8761809,3.25752998 L12.8761809,12.04953 C12.8761809,12.6288767 12.4065276,13.09853 11.8271809,13.09853 L3.03418094,13.09853 C2.45467225,13.0985302 1.98473285,12.6290384 1.98418094,12.04953 L1.98418094,3.25652998 C1.98418094,2.67718328 2.45383424,2.20752998 3.03318094,2.20752998 Z" id="Rectangle_166" transform="translate(7.430181, 7.653030) rotate(-29.745000) translate(-7.430181, -7.653030) "></path>
                                <rect id="Rectangle_167" transform="translate(7.430683, 7.649795) rotate(-29.766000) translate(-7.430683, -7.649795) " x="2.33168311" y="2.55079493" width="10.198" height="10.198" rx="0.841"></rect>
                            </g>
                        </g>
                        <g id="tecla-25" transform="translate(153.763000, 26.646000)">
                            <g id="Group_177">
                                <rect id="Rectangle_168" opacity="0.34" transform="translate(8.223946, 7.798751) rotate(-29.767000) translate(-8.223946, -7.798751) " x="2.50844622" y="2.083251" width="11.431" height="11.431" rx="1.142"></rect>
                                <rect id="Rectangle_169" transform="translate(7.430489, 7.649555) rotate(-29.766000) translate(-7.430489, -7.649555) " x="1.98498899" y="2.20405477" width="10.891" height="10.891" rx="1.049"></rect>
                                <rect id="Rectangle_170" transform="translate(7.429988, 7.652345) rotate(-29.745000) translate(-7.429988, -7.652345) " x="2.33098816" y="2.55334492" width="10.198" height="10.198" rx="0.841"></rect>
                            </g>
                        </g>
                        <g id="tecla-26" transform="translate(169.116000, 17.865000)">
                            <g id="Group_178">
                                <rect id="Rectangle_171" opacity="0.34" transform="translate(8.223946, 7.798751) rotate(-29.767000) translate(-8.223946, -7.798751) " x="2.50844622" y="2.083251" width="11.431" height="11.431" rx="1.142"></rect>
                                <path d="M3.03399364,2.20454715 L11.8269936,2.20454715 C12.4068926,2.20454715 12.8769936,2.67464816 12.8769936,3.25454715 L12.8769936,12.0465471 C12.8769936,12.6258939 12.4073403,13.0955471 11.8279936,13.0955471 L3.03399364,13.0955471 C2.45464694,13.0955471 1.98499364,12.6258939 1.98499364,12.0465471 L1.98499364,3.25354715 C1.98499364,2.67420045 2.45464694,2.20454715 3.03399364,2.20454715 Z" id="Rectangle_172" transform="translate(7.430994, 7.650047) rotate(-29.768000) translate(-7.430994, -7.650047) "></path>
                                <rect id="Rectangle_173" transform="translate(7.430683, 7.649795) rotate(-29.766000) translate(-7.430683, -7.649795) " x="2.33168311" y="2.55079493" width="10.198" height="10.198" rx="0.841"></rect>
                            </g>
                        </g>
                        <g id="tecla-27" transform="translate(184.469000, 8.089000)">
                            <g id="Group_179">
                                <rect id="Rectangle_174" opacity="0.34" transform="translate(8.223130, 8.796745) rotate(-29.745000) translate(-8.223130, -8.796745) " x="2.50763019" y="3.08124542" width="11.431" height="11.431" rx="1.142"></rect>
                                <path d="M3.0338877,3.19893623 L11.8268877,3.19893623 C12.4067867,3.19893623 12.8768877,3.66903725 12.8768877,4.24893623 L12.8768877,13.0409362 C12.8768877,13.6202829 12.4072344,14.0899362 11.8278877,14.0899362 L3.0338877,14.0899362 C2.454541,14.0899362 1.9848877,13.6202829 1.9848877,13.0409362 L1.9848877,4.24793623 C1.9848877,3.66858953 2.454541,3.19893623 3.0338877,3.19893623 Z" id="Rectangle_175" transform="translate(7.430888, 8.644436) rotate(-29.765000) translate(-7.430888, -8.644436) "></path>
                                <rect id="Rectangle_176" transform="translate(7.430683, 8.644795) rotate(-29.766000) translate(-7.430683, -8.644795) " x="2.33168311" y="3.54579493" width="10.198" height="10.198" rx="0.841"></rect>
                            </g>
                        </g>
                        <g id="tecla-28" transform="translate(200.295000, 0.000000)">
                            <g id="Group_180">
                                <rect id="Rectangle_177" transform="translate(6.956988, 7.955345) rotate(-29.745000) translate(-6.956988, -7.955345) " x="1.85798816" y="2.85634492" width="10.198" height="10.198" rx="0.841"></rect>
                            </g>
                        </g>
                    </g>
                    <g id="Group_195" transform="translate(8.732000, 16.262000)">
                        <g id="tecla-29" transform="translate(0.000000, 113.293000)">
                            <g id="Group_182">
                                <rect id="Rectangle_178" opacity="0.34" transform="translate(8.223130, 8.796745) rotate(-29.745000) translate(-8.223130, -8.796745) " x="2.50763019" y="3.08124542" width="11.431" height="11.431" rx="1.142"></rect>
                                <path d="M3.03349492,3.20171229 L11.8264949,3.20171229 C12.4058416,3.20171229 12.8754949,3.67136559 12.8754949,4.25071229 L12.8754949,13.0437123 C12.8754949,13.6236113 12.4053939,14.0937123 11.8254949,14.0937123 L3.03349492,14.0937123 C2.75510947,14.0937124 2.48814056,13.9830558 2.29138613,13.7861138 C2.0946317,13.5891718 1.98422954,13.3220976 1.98449492,13.0437123 L1.98449492,4.25071229 C1.98449492,3.67136559 2.45414822,3.20171229 3.03349492,3.20171229 Z" id="Rectangle_179" transform="translate(7.429995, 8.647712) rotate(-29.745000) translate(-7.429995, -8.647712) "></path>
                                <rect id="Rectangle_180" transform="translate(7.430716, 8.644673) rotate(-29.767000) translate(-7.430716, -8.644673) " x="2.33171617" y="3.54567349" width="10.198" height="10.198" rx="0.841"></rect>
                            </g>
                        </g>
                        <g id="tecla-30" transform="translate(15.353000, 105.507000)">
                            <g id="Group_183">
                                <rect id="Rectangle_181" opacity="0.34" transform="translate(8.223983, 7.798615) rotate(-29.768000) translate(-8.223983, -7.798615) " x="2.50848329" y="2.08311488" width="11.431" height="11.431" rx="1.142"></rect>
                                <path d="M3.03499364,2.20354715 L11.8269936,2.20354715 C12.4068926,2.20354715 12.8769936,2.67364816 12.8769936,3.25354715 L12.8769936,12.0455471 C12.8769936,12.6248939 12.4073403,13.0945471 11.8279936,13.0945471 L3.03499364,13.0945471 C2.45548495,13.0945474 1.98554555,12.6250556 1.98499364,12.0455471 L1.98499364,3.25354715 C1.98499364,2.67364816 2.45509465,2.20354715 3.03499364,2.20354715 Z" id="Rectangle_182" transform="translate(7.430994, 7.649047) rotate(-29.768000) translate(-7.430994, -7.649047) "></path>
                                <rect id="Rectangle_183" transform="translate(7.430683, 7.649795) rotate(-29.766000) translate(-7.430683, -7.649795) " x="2.33168311" y="2.55079493" width="10.198" height="10.198" rx="0.841"></rect>
                            </g>
                        </g>
                        <g id="tecla-31" transform="translate(30.706000, 96.725000)">
                            <g id="Group_184">
                                <rect id="Rectangle_184" opacity="0.34" transform="translate(8.223946, 7.798751) rotate(-29.767000) translate(-8.223946, -7.798751) " x="2.50844622" y="2.083251" width="11.431" height="11.431" rx="1.142"></rect>
                                <rect id="Rectangle_185" transform="translate(7.430489, 7.649555) rotate(-29.766000) translate(-7.430489, -7.649555) " x="1.98498899" y="2.20405477" width="10.891" height="10.891" rx="1.049"></rect>
                                <rect id="Rectangle_186" transform="translate(7.430716, 7.649673) rotate(-29.767000) translate(-7.430716, -7.649673) " x="2.33171617" y="2.55067349" width="10.198" height="10.198" rx="0.841"></rect>
                            </g>
                        </g>
                        <g id="tecla-32" transform="translate(46.059000, 87.944000)">
                            <g id="Group_185">
                                <rect id="Rectangle_187" opacity="0.34" transform="translate(8.223946, 7.798751) rotate(-29.767000) translate(-8.223946, -7.798751) " x="2.50844622" y="2.083251" width="11.431" height="11.431" rx="1.142"></rect>
                                <path d="M3.03318094,2.20652998 L11.8261809,2.20652998 C12.4060799,2.20652998 12.8761809,2.67663099 12.8761809,3.25652998 L12.8761809,12.04853 C12.8761809,12.6278767 12.4065276,13.09753 11.8271809,13.09753 L3.03418094,13.09753 C2.45467225,13.0975302 1.98473285,12.6280384 1.98418094,12.04853 L1.98418094,3.25552998 C1.98418094,2.67618328 2.45383424,2.20652998 3.03318094,2.20652998 Z" id="Rectangle_188" transform="translate(7.430181, 7.652030) rotate(-29.745000) translate(-7.430181, -7.652030) "></path>
                                <rect id="Rectangle_189" transform="translate(7.429988, 7.652345) rotate(-29.745000) translate(-7.429988, -7.652345) " x="2.33098816" y="2.55334492" width="10.198" height="10.198" rx="0.841"></rect>
                            </g>
                        </g>
                        <g id="tecla-33" transform="translate(61.412000, 78.168000)">
                            <g id="Group_186">
                                <rect id="Rectangle_190" opacity="0.34" transform="translate(8.223130, 8.796745) rotate(-29.745000) translate(-8.223130, -8.796745) " x="2.50763019" y="3.08124542" width="11.431" height="11.431" rx="1.142"></rect>
                                <path d="M3.0338877,3.19893623 L11.8268877,3.19893623 C12.4067867,3.19893623 12.8768877,3.66903725 12.8768877,4.24893623 L12.8768877,13.0409362 C12.8768877,13.6202829 12.4072344,14.0899362 11.8278877,14.0899362 L3.0338877,14.0899362 C2.454541,14.0899362 1.9848877,13.6202829 1.9848877,13.0409362 L1.9848877,4.24793623 C1.9848877,3.66858953 2.454541,3.19893623 3.0338877,3.19893623 Z" id="Rectangle_191" transform="translate(7.430888, 8.644436) rotate(-29.765000) translate(-7.430888, -8.644436) "></path>
                                <rect id="Rectangle_192" transform="translate(7.430683, 8.644795) rotate(-29.766000) translate(-7.430683, -8.644795) " x="2.33168311" y="3.54579493" width="10.198" height="10.198" rx="0.841"></rect>
                            </g>
                        </g>
                        <g id="tecla-34" transform="translate(76.765000, 69.387000)">
                            <g id="Group_187">
                                <rect id="Rectangle_193" opacity="0.34" transform="translate(8.223130, 8.796745) rotate(-29.745000) translate(-8.223130, -8.796745) " x="2.50763019" y="3.08124542" width="11.431" height="11.431" rx="1.142"></rect>
                                <path d="M3.03324682,3.20277805 L11.8262468,3.20277805 C12.4055935,3.20277805 12.8752468,3.67243135 12.8752468,4.25177805 L12.8752468,13.044778 C12.8752468,13.6241248 12.4055935,14.093778 11.8262468,14.093778 L3.03424682,14.093778 C2.45473813,14.0937783 1.98479873,13.6242865 1.98424682,13.044778 L1.98424682,4.25177805 C1.98424682,3.67243135 2.45390011,3.20277805 3.03324682,3.20277805 Z" id="Rectangle_194" transform="translate(7.429747, 8.648278) rotate(-29.745000) translate(-7.429747, -8.648278) "></path>
                                <rect id="Rectangle_195" transform="translate(7.430683, 8.644795) rotate(-29.766000) translate(-7.430683, -8.644795) " x="2.33168311" y="3.54579493" width="10.198" height="10.198" rx="0.841"></rect>
                            </g>
                        </g>
                        <g id="tecla-35" transform="translate(92.119000, 60.606000)">
                            <g id="Group_188">
                                <rect id="Rectangle_196" opacity="0.34" transform="translate(8.223130, 8.796745) rotate(-29.745000) translate(-8.223130, -8.796745) " x="2.50763019" y="3.08124542" width="11.431" height="11.431" rx="1.142"></rect>
                                <rect id="Rectangle_197" transform="translate(7.429747, 8.647278) rotate(-29.745000) translate(-7.429747, -8.647278) " x="1.98424682" y="3.20177805" width="10.891" height="10.891" rx="1.049"></rect>
                                <rect id="Rectangle_198" transform="translate(7.430683, 8.644795) rotate(-29.766000) translate(-7.430683, -8.644795) " x="2.33168311" y="3.54579493" width="10.198" height="10.198" rx="0.841"></rect>
                            </g>
                        </g>
                        <g id="tecla-36" transform="translate(107.472000, 52.819000)">
                            <g id="Group_189">
                                <rect id="Rectangle_199" opacity="0.34" transform="translate(8.223946, 7.798751) rotate(-29.767000) translate(-8.223946, -7.798751) " x="2.50844622" y="2.083251" width="11.431" height="11.431" rx="1.142"></rect>
                                <rect id="Rectangle_200" transform="translate(7.427662, 7.652726) rotate(-29.744881) translate(-7.427662, -7.652726) " x="1.98368695" y="2.20875095" width="10.8879501" height="10.8879501" rx="1.049"></rect>
                                <rect id="Rectangle_201" transform="translate(7.430716, 7.649673) rotate(-29.767000) translate(-7.430716, -7.649673) " x="2.33171617" y="2.55067349" width="10.198" height="10.198" rx="0.841"></rect>
                            </g>
                        </g>
                        <g id="tecla-37" transform="translate(122.825000, 43.043000)">
                            <g id="Group_190">
                                <rect id="Rectangle_202" opacity="0.34" transform="translate(8.223130, 8.796745) rotate(-29.745000) translate(-8.223130, -8.796745) " x="2.50763019" y="3.08124542" width="11.431" height="11.431" rx="1.142"></rect>
                                <rect id="Rectangle_203" transform="translate(7.430489, 8.644555) rotate(-29.766000) translate(-7.430489, -8.644555) " x="1.98498899" y="3.19905477" width="10.891" height="10.891" rx="1.049"></rect>
                                <rect id="Rectangle_204" transform="translate(7.430683, 8.644795) rotate(-29.766000) translate(-7.430683, -8.644795) " x="2.33168311" y="3.54579493" width="10.198" height="10.198" rx="0.841"></rect>
                            </g>
                        </g>
                        <g id="tecla-38" transform="translate(138.410000, 35.125000)">
                            <g id="Group_191">
                                <rect id="Rectangle_205" opacity="0.34" transform="translate(8.223946, 7.798751) rotate(-29.767000) translate(-8.223946, -7.798751) " x="2.50844622" y="2.083251" width="11.431" height="11.431" rx="1.142"></rect>
                                <rect id="Rectangle_206" transform="translate(7.430489, 7.649555) rotate(-29.766000) translate(-7.430489, -7.649555) " x="1.98498899" y="2.20405477" width="10.891" height="10.891" rx="1.049"></rect>
                                <rect id="Rectangle_207" transform="translate(7.430716, 7.649673) rotate(-29.767000) translate(-7.430716, -7.649673) " x="2.33171617" y="2.55067349" width="10.198" height="10.198" rx="0.841"></rect>
                            </g>
                        </g>
                        <g id="tecla-39" transform="translate(153.763000, 25.349000)">
                            <g id="Group_192">
                                <rect id="Rectangle_208" opacity="0.34" transform="translate(8.224130, 8.796745) rotate(-29.745000) translate(-8.224130, -8.796745) " x="2.50863019" y="3.08124542" width="11.431" height="11.431" rx="1.142"></rect>
                                <rect id="Rectangle_209" transform="translate(7.430560, 8.644295) rotate(-29.768000) translate(-7.430560, -8.644295) " x="1.98505962" y="3.19879539" width="10.891" height="10.891" rx="1.049"></rect>
                                <rect id="Rectangle_210" transform="translate(7.428036, 8.646828) rotate(-29.744881) translate(-7.428036, -8.646828) " x="2.33046392" y="3.54925592" width="10.1951442" height="10.1951442" rx="0.841"></rect>
                            </g>
                        </g>
                        <g id="tecla-40" transform="translate(169.116000, 17.562000)">
                            <g id="Group_193">
                                <rect id="Rectangle_211" opacity="0.34" transform="translate(8.223946, 7.798751) rotate(-29.767000) translate(-8.223946, -7.798751) " x="2.50844622" y="2.083251" width="11.431" height="11.431" rx="1.142"></rect>
                                <path d="M3.03398899,2.20405477 L11.826989,2.20405477 C12.4063357,2.20405477 12.875989,2.67370807 12.875989,3.25305477 L12.875989,12.0460548 C12.875989,12.6254015 12.4063357,13.0950548 11.826989,13.0950548 L3.03498899,13.0950548 C2.45509,13.0950548 1.98498899,12.6249538 1.98498899,12.0450548 L1.98498899,3.25305477 C1.98498899,2.67370807 2.45464229,2.20405477 3.03398899,2.20405477 Z" id="Rectangle_212" transform="translate(7.430489, 7.649555) rotate(-29.766000) translate(-7.430489, -7.649555) "></path>
                                <rect id="Rectangle_213" transform="translate(7.430716, 7.649673) rotate(-29.767000) translate(-7.430716, -7.649673) " x="2.33171617" y="2.55067349" width="10.198" height="10.198" rx="0.841"></rect>
                            </g>
                        </g>
                        <g id="tecla-41" transform="translate(184.186000, 0.000000)">
                            <g id="Group_194">
                                <rect id="Rectangle_214" opacity="0.34" transform="translate(16.042052, 12.270257) rotate(-29.767000) translate(-16.042052, -12.270257) " x="1.32005247" y="6.55475718" width="29.444" height="11.431" rx="1.142"></rect>
                                <path d="M1.84683293,6.68227878 L28.6528329,6.68227878 C29.2307783,6.68503093 29.6978395,7.15432682 29.6978329,7.73227878 L29.6978329,16.5242788 C29.6978329,17.1036255 29.2281796,17.5732788 28.6488329,17.5732788 L1.84783293,17.5732788 C1.26832425,17.573279 0.798384848,17.1037872 0.797832935,16.5242788 L0.797832935,7.73127878 C0.797832935,7.15193208 1.26748623,6.68227878 1.84683293,6.68227878 Z" id="Rectangle_215" transform="translate(15.247833, 12.127779) rotate(-29.745000) translate(-15.247833, -12.127779) "></path>
                                <rect id="Rectangle_216" transform="translate(15.248822, 12.121180) rotate(-29.767000) translate(-15.248822, -12.121180) " x="1.14332242" y="7.02217967" width="28.211" height="10.198" rx="0.841"></rect>
                            </g>
                        </g>
                    </g>
                    <g id="tecla-42" transform="translate(191.725000, 43.794000)">
                        <g id="Group_196">
                            <rect id="Rectangle_217" opacity="0.34" transform="translate(8.223130, 8.796745) rotate(-29.745000) translate(-8.223130, -8.796745) " x="2.50763019" y="3.08124542" width="11.431" height="11.431" rx="1.142"></rect>
                            <rect id="Rectangle_218" transform="translate(7.429747, 8.647278) rotate(-29.745000) translate(-7.429747, -8.647278) " x="1.98424682" y="3.20177805" width="10.891" height="10.891" rx="1.049"></rect>
                            <rect id="Rectangle_219" transform="translate(7.430716, 8.644673) rotate(-29.767000) translate(-7.430716, -8.644673) " x="2.33171617" y="3.54567349" width="10.198" height="10.198" rx="0.841"></rect>
                        </g>
                    </g>
                    <g id="tecla-43" transform="translate(173.826000, 54.031000)">
                        <g id="Group_197">
                            <rect id="Rectangle_220" opacity="0.34" transform="translate(8.223130, 8.796745) rotate(-29.745000) translate(-8.223130, -8.796745) " x="2.50763019" y="3.08124542" width="11.431" height="11.431" rx="1.142"></rect>
                            <rect id="Rectangle_221" transform="translate(7.429747, 8.647278) rotate(-29.745000) translate(-7.429747, -8.647278) " x="1.98424682" y="3.20177805" width="10.891" height="10.891" rx="1.049"></rect>
                            <rect id="Rectangle_222" transform="translate(7.428036, 8.646828) rotate(-29.744881) translate(-7.428036, -8.646828) " x="2.33046392" y="3.54925592" width="10.1951442" height="10.1951442" rx="0.841"></rect>
                        </g>
                    </g>
                    <g id="tecla-44" transform="translate(155.927000, 64.269000)">
                        <g id="Group_198">
                            <rect id="Rectangle_223" opacity="0.34" transform="translate(8.223130, 8.796745) rotate(-29.745000) translate(-8.223130, -8.796745) " x="2.50763019" y="3.08124542" width="11.431" height="11.431" rx="1.142"></rect>
                            <path d="M3.03405962,3.19879539 L11.8270596,3.19879539 C12.4064063,3.19879539 12.8760596,3.66844869 12.8760596,4.24779539 L12.8760596,13.0407954 C12.8760596,13.6201421 12.4064063,14.0897954 11.8270596,14.0897954 L3.03505962,14.0897954 C2.45555093,14.0897957 1.98561153,13.6203038 1.98505962,13.0407954 L1.98505962,4.24779539 C1.98505962,3.66844869 2.45471292,3.19879539 3.03405962,3.19879539 Z" id="Rectangle_224" transform="translate(7.430560, 8.644295) rotate(-29.768000) translate(-7.430560, -8.644295) "></path>
                            <rect id="Rectangle_225" transform="translate(7.428036, 8.646828) rotate(-29.744881) translate(-7.428036, -8.646828) " x="2.33046392" y="3.54925592" width="10.1951442" height="10.1951442" rx="0.841"></rect>
                        </g>
                    </g>
                    <g id="tecla-45" transform="translate(138.028000, 75.501000)">
                        <g id="Group_199">
                            <rect id="Rectangle_226" opacity="0.34" transform="translate(8.223946, 7.798751) rotate(-29.767000) translate(-8.223946, -7.798751) " x="2.50844622" y="2.083251" width="11.431" height="11.431" rx="1.142"></rect>
                            <rect id="Rectangle_227" transform="translate(7.431512, 7.646794) rotate(-29.795000) translate(-7.431512, -7.646794) " x="1.98601225" y="2.2012936" width="10.891" height="10.891" rx="1.049"></rect>
                            <rect id="Rectangle_228" transform="translate(7.430683, 7.649795) rotate(-29.766000) translate(-7.430683, -7.649795) " x="2.33168311" y="2.55079493" width="10.198" height="10.198" rx="0.841"></rect>
                        </g>
                    </g>
                    <g id="tecla-46" transform="translate(120.130000, 84.743000)">
                        <g id="Group_200">
                            <rect id="Rectangle_229" opacity="0.34" transform="translate(8.223130, 8.796745) rotate(-29.745000) translate(-8.223130, -8.796745) " x="2.50763019" y="3.08124542" width="11.431" height="11.431" rx="1.142"></rect>
                            <rect id="Rectangle_230" transform="translate(7.430489, 8.644555) rotate(-29.766000) translate(-7.430489, -8.644555) " x="1.98498899" y="3.19905477" width="10.891" height="10.891" rx="1.049"></rect>
                            <rect id="Rectangle_231" transform="translate(7.429988, 8.647345) rotate(-29.745000) translate(-7.429988, -8.647345) " x="2.33098816" y="3.54834492" width="10.198" height="10.198" rx="0.841"></rect>
                        </g>
                    </g>
                    <g id="tecla-47" transform="translate(102.231000, 94.980000)">
                        <g id="Group_201">
                            <rect id="Rectangle_232" opacity="0.34" transform="translate(8.223130, 8.796745) rotate(-29.745000) translate(-8.223130, -8.796745) " x="2.50763019" y="3.08124542" width="11.431" height="11.431" rx="1.142"></rect>
                            <path d="M3.03495367,3.19918445 L11.8269537,3.19918445 C12.4063004,3.19918445 12.8759537,3.66883775 12.8759537,4.24818445 L12.8759537,13.0411845 C12.8759537,13.6205312 12.4063004,14.0901845 11.8269537,14.0901845 L3.03395367,14.0901845 C2.45460697,14.0901845 1.98495367,13.6205312 1.98495367,13.0411845 L1.98495367,4.24918445 C1.98495367,3.66928547 2.45505468,3.19918445 3.03495367,3.19918445 Z" id="Rectangle_233" transform="translate(7.430454, 8.644684) rotate(-29.765000) translate(-7.430454, -8.644684) "></path>
                            <rect id="Rectangle_234" transform="translate(7.430683, 8.644795) rotate(-29.766000) translate(-7.430683, -8.644795) " x="2.33168311" y="3.54579493" width="10.198" height="10.198" rx="0.841"></rect>
                        </g>
                    </g>
                    <g id="tecla-48" transform="translate(84.332000, 105.217000)">
                        <g id="Group_202">
                            <rect id="Rectangle_235" opacity="0.34" transform="translate(8.223130, 8.796745) rotate(-29.745000) translate(-8.223130, -8.796745) " x="2.50763019" y="3.08124542" width="11.431" height="11.431" rx="1.142"></rect>
                            <path d="M3.03495367,3.19918445 L11.8269537,3.19918445 C12.4063004,3.19918445 12.8759537,3.66883775 12.8759537,4.24818445 L12.8759537,13.0411845 C12.8759537,13.6205312 12.4063004,14.0901845 11.8269537,14.0901845 L3.03395367,14.0901845 C2.45460697,14.0901845 1.98495367,13.6205312 1.98495367,13.0411845 L1.98495367,4.24918445 C1.98495367,3.66928547 2.45505468,3.19918445 3.03495367,3.19918445 Z" id="Rectangle_236" transform="translate(7.430454, 8.644684) rotate(-29.765000) translate(-7.430454, -8.644684) "></path>
                            <rect id="Rectangle_237" transform="translate(7.430683, 8.644795) rotate(-29.766000) translate(-7.430683, -8.644795) " x="2.33168311" y="3.54579493" width="10.198" height="10.198" rx="0.841"></rect>
                        </g>
                    </g>
                    <g id="tecla-49" transform="translate(66.433000, 115.455000)">
                        <g id="Group_203">
                            <rect id="Rectangle_238" opacity="0.34" transform="translate(8.223130, 8.796745) rotate(-29.745000) translate(-8.223130, -8.796745) " x="2.50763019" y="3.08124542" width="11.431" height="11.431" rx="1.142"></rect>
                            <rect id="Rectangle_239" transform="translate(7.430560, 8.644295) rotate(-29.768000) translate(-7.430560, -8.644295) " x="1.98505962" y="3.19879539" width="10.891" height="10.891" rx="1.049"></rect>
                            <rect id="Rectangle_240" transform="translate(7.430716, 8.644673) rotate(-29.767000) translate(-7.430716, -8.644673) " x="2.33171617" y="3.54567349" width="10.198" height="10.198" rx="0.841"></rect>
                        </g>
                    </g>
                    <g id="tecla-50" transform="translate(48.534000, 126.687000)">
                        <g id="Group_204">
                            <rect id="Rectangle_241" opacity="0.34" transform="translate(8.223946, 7.798751) rotate(-29.767000) translate(-8.223946, -7.798751) " x="2.50844622" y="2.083251" width="11.431" height="11.431" rx="1.142"></rect>
                            <rect id="Rectangle_242" transform="translate(7.430560, 7.649295) rotate(-29.768000) translate(-7.430560, -7.649295) " x="1.98505962" y="2.20379539" width="10.891" height="10.891" rx="1.049"></rect>
                            <rect id="Rectangle_243" transform="translate(7.430716, 7.649673) rotate(-29.767000) translate(-7.430716, -7.649673) " x="2.33171617" y="2.55067349" width="10.198" height="10.198" rx="0.841"></rect>
                        </g>
                    </g>
                    <g id="tecla-51" transform="translate(16.762000, 135.937000)">
                        <g id="Group_205">
                            <rect id="Rectangle_244" opacity="0.34" transform="translate(15.161253, 12.759085) rotate(-29.745000) translate(-15.161253, -12.759085) " x="1.45475292" y="7.04358479" width="27.413" height="11.431" rx="0.426"></rect>
                            <rect id="Rectangle_245" transform="translate(14.367435, 12.609865) rotate(-29.745000) translate(-14.367435, -12.609865) " x="0.931435431" y="7.16436549" width="26.872" height="10.891" rx="0.391"></rect>
                            <rect id="Rectangle_246" transform="translate(14.366882, 12.604597) rotate(-29.767000) translate(-14.366882, -12.604597) " x="1.27738205" y="7.50559734" width="26.179" height="10.198" rx="0.314"></rect>
                        </g>
                    </g>
                    <g id="tecla-52" transform="translate(197.241000, 78.485000)">
                        <g id="Group_206">
                            <rect id="Rectangle_247" opacity="0.34" transform="translate(8.223946, 7.798751) rotate(-29.767000) translate(-8.223946, -7.798751) " x="2.50844622" y="2.083251" width="11.431" height="11.431" rx="1.142"></rect>
                            <path d="M3.03349492,2.20671229 L11.8264949,2.20671229 C12.4058416,2.20671229 12.8754949,2.67636559 12.8754949,3.25571229 L12.8754949,12.0487123 C12.8754949,12.6286113 12.4053939,13.0987123 11.8254949,13.0987123 L3.03349492,13.0987123 C2.75510947,13.0987124 2.48814056,12.9880558 2.29138613,12.7911138 C2.0946317,12.5941718 1.98422954,12.3270976 1.98449492,12.0487123 L1.98449492,3.25571229 C1.98449492,2.67636559 2.45414822,2.20671229 3.03349492,2.20671229 Z" id="Rectangle_248" transform="translate(7.429995, 7.652712) rotate(-29.745000) translate(-7.429995, -7.652712) "></path>
                            <rect id="Rectangle_249" transform="translate(7.430716, 7.649673) rotate(-29.767000) translate(-7.430716, -7.649673) " x="2.33171617" y="2.55067349" width="10.198" height="10.198" rx="0.841"></rect>
                        </g>
                    </g>
                    <g id="tecla-53" transform="translate(231.429000, 58.931000)">
                        <g id="Group_207">
                            <rect id="Rectangle_250" opacity="0.34" transform="translate(8.223946, 7.798751) rotate(-29.767000) translate(-8.223946, -7.798751) " x="2.50844622" y="2.083251" width="11.431" height="11.431" rx="1.142"></rect>
                            <path d="M3.03449492,2.20671229 L11.8264949,2.20671229 C12.4058416,2.20671229 12.8754949,2.67636559 12.8754949,3.25571229 L12.8754949,12.0487123 C12.8754949,12.6286113 12.4053939,13.0987123 11.8254949,13.0987123 L3.03349492,13.0987123 C2.75510947,13.0987124 2.48814056,12.9880558 2.29138613,12.7911138 C2.0946317,12.5941718 1.98422954,12.3270976 1.98449492,12.0487123 L1.98449492,3.25671229 C1.98449492,2.6768133 2.45459593,2.20671229 3.03449492,2.20671229 Z" id="Rectangle_251" transform="translate(7.429995, 7.652712) rotate(-29.745000) translate(-7.429995, -7.652712) "></path>
                            <rect id="Rectangle_252" transform="translate(7.431641, 7.646273) rotate(-29.795000) translate(-7.431641, -7.646273) " x="2.33264126" y="2.54727308" width="10.198" height="10.198" rx="0.841"></rect>
                        </g>
                    </g>
                    <g id="tecla-54" transform="translate(214.335000, 68.708000)">
                        <g id="Group_208">
                            <rect id="Rectangle_253" opacity="0.34" transform="translate(8.223946, 7.798751) rotate(-29.767000) translate(-8.223946, -7.798751) " x="2.50844622" y="2.083251" width="11.431" height="11.431" rx="1.142"></rect>
                            <rect id="Rectangle_254" transform="translate(7.429747, 7.652278) rotate(-29.745000) translate(-7.429747, -7.652278) " x="1.98424682" y="2.20677805" width="10.891" height="10.891" rx="1.049"></rect>
                            <rect id="Rectangle_255" transform="translate(7.430716, 7.649673) rotate(-29.767000) translate(-7.430716, -7.649673) " x="2.33171617" y="2.55067349" width="10.198" height="10.198" rx="0.841"></rect>
                        </g>
                    </g>
                    <g id="tecla-55" transform="translate(109.564000, 87.157000)">
                        <g id="Group_209">
                            <rect id="Rectangle_256" opacity="0.34" transform="translate(44.482025, 28.536277) rotate(-29.767000) translate(-44.482025, -28.536277) " x="-3.00297473" y="22.8207768" width="94.97" height="11.431" rx="1.142"></rect>
                            <path d="M-2.46996609,22.9581618 L89.8620339,22.9581618 C90.4413806,22.9581618 90.9110339,23.4278151 90.9110339,24.0071618 L90.9110339,32.8001618 C90.9110339,33.3800608 90.4409329,33.8501618 89.8610339,33.8501618 L-2.46996609,33.8501618 C-2.74835154,33.8501619 -3.01532045,33.7395053 -3.21207488,33.5425633 C-3.40882931,33.3456213 -3.51923147,33.0785471 -3.51896609,32.8001618 L-3.51896609,24.0071618 C-3.51896609,23.4278151 -3.04931279,22.9581618 -2.46996609,22.9581618 Z" id="Rectangle_257" transform="translate(43.696034, 28.404162) rotate(-29.745000) translate(-43.696034, -28.404162) "></path>
                            <rect id="Rectangle_258" transform="translate(43.696027, 28.402794) rotate(-29.745000) translate(-43.696027, -28.402794) " x="-3.17247285" y="23.3037944" width="93.737" height="10.198" rx="0.841"></rect>
                        </g>
                    </g>
                    <g id="tecla-56" transform="translate(94.677000, 137.146000)">
                        <g id="Group_210">
                            <rect id="Rectangle_259" opacity="0.34" transform="translate(8.223946, 7.798751) rotate(-29.767000) translate(-8.223946, -7.798751) " x="2.50844622" y="2.083251" width="11.431" height="11.431" rx="1.142"></rect>
                            <path d="M3.0348877,2.20393623 L11.8268877,2.20393623 C12.4067867,2.20393623 12.8768877,2.67403725 12.8768877,3.25393623 L12.8768877,12.0459362 C12.8768877,12.6252829 12.4072344,13.0949362 11.8278877,13.0949362 L3.0348877,13.0949362 C2.45537902,13.0949365 1.98543962,12.6254447 1.9848877,12.0459362 L1.9848877,3.25393623 C1.9848877,2.67403725 2.45498872,2.20393623 3.0348877,2.20393623 Z" id="Rectangle_260" transform="translate(7.430888, 7.649436) rotate(-29.765000) translate(-7.430888, -7.649436) "></path>
                            <rect id="Rectangle_261" transform="translate(7.430683, 7.649795) rotate(-29.766000) translate(-7.430683, -7.649795) " x="2.33168311" y="2.55079493" width="10.198" height="10.198" rx="0.841"></rect>
                        </g>
                    </g>
                    <g id="tecla-57" transform="translate(77.583000, 146.923000)">
                        <g id="Group_211">
                            <rect id="Rectangle_262" opacity="0.34" transform="translate(8.223946, 7.798751) rotate(-29.767000) translate(-8.223946, -7.798751) " x="2.50844622" y="2.083251" width="11.431" height="11.431" rx="1.142"></rect>
                            <rect id="Rectangle_263" transform="translate(7.430454, 7.649684) rotate(-29.765000) translate(-7.430454, -7.649684) " x="1.98495367" y="2.20418445" width="10.891" height="10.891" rx="1.049"></rect>
                            <rect id="Rectangle_264" transform="translate(7.430683, 7.649795) rotate(-29.766000) translate(-7.430683, -7.649795) " x="2.33168311" y="2.55079493" width="10.198" height="10.198" rx="0.841"></rect>
                        </g>
                    </g>
                    <g id="tecla-58" transform="translate(60.489000, 155.705000)">
                        <g id="Group_212">
                            <rect id="Rectangle_265" opacity="0.34" transform="translate(8.223130, 8.796745) rotate(-29.745000) translate(-8.223130, -8.796745) " x="2.50763019" y="3.08124542" width="11.431" height="11.431" rx="1.142"></rect>
                            <rect id="Rectangle_266" transform="translate(7.430560, 8.644295) rotate(-29.768000) translate(-7.430560, -8.644295) " x="1.98505962" y="3.19879539" width="10.891" height="10.891" rx="1.049"></rect>
                            <rect id="Rectangle_267" transform="translate(7.428036, 8.646828) rotate(-29.744881) translate(-7.428036, -8.646828) " x="2.33046392" y="3.54925592" width="10.1951442" height="10.1951442" rx="0.841"></rect>
                        </g>
                    </g>
                    <g id="tecla-59" transform="translate(32.644000, 164.691000)">
                        <g id="Group_213">
                            <rect id="Rectangle_268" opacity="0.34" transform="translate(15.160546, 11.766427) rotate(-29.767000) translate(-15.160546, -11.766427) " x="1.45404613" y="6.05092661" width="27.413" height="11.431" rx="0.426"></rect>
                            <rect id="Rectangle_269" transform="translate(14.367870, 11.622617) rotate(-29.745000) translate(-14.367870, -11.622617) " x="0.931369552" y="6.17711742" width="26.873" height="10.891" rx="0.391"></rect>
                            <rect id="Rectangle_270" transform="translate(14.367677, 11.622932) rotate(-29.745000) translate(-14.367677, -11.622932) " x="1.27817677" y="6.52393236" width="26.179" height="10.198" rx="0.314"></rect>
                        </g>
                    </g>
                    <g id="tecla-60" transform="translate(208.879000, 30.907000)">
                        <g id="Group_214">
                            <path d="M18.216,0.571 C18.110969,0.388953681 17.8786076,0.325947994 17.696,0.43 L1.021,9.966 C0.838953681,10.071031 0.775947994,10.3033924 0.88,10.486 L5.909,19.278 C5.95907068,19.3655803 6.04191211,19.4296559 6.13926634,19.4561048 C6.23662056,19.4825536 6.34049641,19.4692047 6.428,19.419 L11.894,16.294 L19.508,29.606 C19.613031,29.7880463 19.8453924,29.851052 20.028,29.747 L30.92,23.517 C31.1019195,23.4123599 31.1649626,23.1803075 31.061,22.998 L18.216,0.571 Z" id="Path_115" opacity="0.34"></path>
                            <path d="M17.386,0.192 C17.335927,0.104148221 17.2529037,0.0398772064 17.155308,0.0134137468 C17.0577123,-0.0130497127 16.9535938,0.000477121536 16.866,0.051 L0.192,9.588 C0.104148221,9.63807302 0.0398772064,9.72109626 0.0134137468,9.818692 C-0.0130497127,9.91628773 0.000477121536,10.0204062 0.051,10.108 L5.079,18.9 C5.18403097,19.0820463 5.41639237,19.145052 5.599,19.041 L11.064,15.915 L18.678,29.228 C18.783031,29.4100463 19.0153924,29.473052 19.198,29.369 L30.091,23.136 C30.2730463,23.030969 30.336052,22.7986076 30.232,22.616 L17.386,0.192 Z" id="Path_116"></path>
                            <path d="M17.156,0.636 C17.1169426,0.564405164 17.0504202,0.511797237 16.9717515,0.490290677 C16.8930827,0.468784117 16.8090485,0.480232676 16.739,0.522 L0.539,9.79 C0.392985957,9.87414894 0.342103603,10.0602712 0.425,10.207 L5.185,18.529 C5.2240574,18.6005948 5.2905798,18.6532028 5.36924853,18.6747093 C5.44791726,18.6962159 5.5319515,18.6847673 5.602,18.643 L11.147,15.471 L18.71,28.694 C18.7490574,28.7655948 18.8155798,28.8182028 18.8942485,28.8397093 C18.9729173,28.8612159 19.0569515,28.8497673 19.127,28.808 L29.649,22.79 C29.7954824,22.7062132 29.8464839,22.5196552 29.763,22.373 L21.763,8.382 C21.702,8.287 17.156,0.636 17.156,0.636 Z" id="Path_117"></path>
                        </g>
                    </g>
                </g>
            </g>
        </g>
    </g>
</svg>