<?xml version="1.0" encoding="UTF-8"?>
<svg width="144px" height="202px" viewBox="0 0 144 202" version="1.1" xmlns="http://www.w3.org/2000/svg" xmlns:xlink="http://www.w3.org/1999/xlink">
    <!-- Generator: Sketch 53.1 (72631) - https://sketchapp.com -->
    <title>Artboard</title>
    <desc>Created with Sketch.</desc>
    <defs>
        <linearGradient x1="50%" y1="0%" x2="50%" y2="100%" id="linearGradient-1">
            <stop stop-color="#FEDBA1" offset="0%"></stop>
            <stop stop-color="#FFC564" offset="100%"></stop>
        </linearGradient>
        <linearGradient x1="50%" y1="0%" x2="50%" y2="100%" id="linearGradient-2">
            <stop stop-color="#FEDBA1" offset="0%"></stop>
            <stop stop-color="#FFC564" offset="100%"></stop>
        </linearGradient>
    </defs>
    <g id="Artboard" stroke="none" stroke-width="1" fill="none" fill-rule="evenodd">
        <g id="2" transform="translate(72.000000, 101.500000) rotate(13.500000) translate(-72.000000, -101.500000) translate(-20.000000, -12.000000)" fill-rule="nonzero">
            <g id="Group" fill="#FFFFFF">
                <rect id="Rectangle_62-2" transform="translate(91.759795, 113.268185) rotate(-13.339249) translate(-91.759795, -113.268185) " x="20.9832279" y="14.0437186" width="141.553134" height="198.448933"></rect>
            </g>
            <path d="M49.7582061,35.4435803 L51.6912061,35.4435803 C66.0439711,35.4496522 77.6768952,47.0848144 77.6802061,61.4375803 L77.6802061,83.7435803 C77.6802061,98.1029838 66.0396096,109.74358 51.6802061,109.74358 L49.7522061,109.74358 C42.857129,109.74358 36.244544,107.004111 31.3695508,102.127993 C26.4945577,97.2518743 23.7566146,90.6386572 23.7582061,83.7435803 L23.7582061,61.4435803 C23.7582061,47.0841768 35.3988026,35.4435803 49.7582061,35.4435803 Z" id="Rectangle_63" fill="#AE9AD9" transform="translate(50.719206, 72.593580) rotate(-13.459000) translate(-50.719206, -72.593580) "></path>
            <g id="Group_135" transform="translate(30.218000, 40.992000)">
                <path d="M13.107,0.7 C-4.12,4.822 -0.586,19.72 2.793,31.349 L6.415,32.717 L19.991,29.468 L33.567,26.219 L36.179,23.361 C33.926,11.466 30.334,-3.418 13.107,0.7 Z" id="Path_77" fill="#5546C5"></path>
                <path d="M33.52,45.642 L15.249,50.014 L17.274,58.478 L17.274,58.478 C17.2745499,58.4879924 17.2745499,58.4980076 17.274,58.508 C18.089,61.914 22.84,63.697 27.885,62.49 C32.93,61.283 36.36,57.542 35.544,54.136 C35.5405223,54.1264514 35.5365161,54.1171036 35.532,54.108 L35.532,54.108 L33.52,45.642 Z" id="Path_78" fill="url(#linearGradient-1)"></path>
                <path d="M36.179,23.364 C35.408129,23.7553513 34.6632549,24.1959293 33.949,24.683 C30.214,9.073 24.043,7.608 15.33,9.693 C5.186,12.121 1.583,15.514 5.413,31.523 C4.54450574,31.4107856 3.66971356,31.3543366 2.794,31.354 C2.308,31.43 1.294,33.047 3.311,38.366 C5.328,43.685 7.537,43.65 8.688,43.197 L8.688,43.197 C12.619,51.436 19.631,56.417 26.137,54.86 C32.643,53.303 36.637,45.692 36.416,36.568 C37.65,36.395 39.484,35.315 38.891,29.851 C38.28,24.198 36.648,23.214 36.179,23.364 Z" id="Path_79" fill="url(#linearGradient-2)"></path>
            </g>
            <path d="M86.160704,27.1017263 L129.212704,27.1017263 C130.372502,27.1017263 131.312704,28.0419283 131.312704,29.2017263 L131.312704,29.2237263 C131.312704,29.7822722 131.090823,30.3179415 130.695871,30.7128932 C130.300919,31.1078448 129.76525,31.3297263 129.206704,31.3297263 L86.160704,31.3297263 C85.0009061,31.3297263 84.060704,30.3895243 84.060704,29.2297263 L84.060704,29.2017263 C84.060704,28.0419283 85.0009061,27.1017263 86.160704,27.1017263 Z" id="Rectangle_64" fill="#AE9AD9" transform="translate(107.686704, 29.215726) rotate(-13.467000) translate(-107.686704, -29.215726) "></path>
            <rect id="Rectangle_65" fill="#AE9AD9" transform="translate(110.612142, 41.429776) rotate(-13.458000) translate(-110.612142, -41.429776) " x="86.9836419" y="39.313776" width="47.257" height="4.232" rx="2.105"></rect>
            <path d="M92.0110601,51.5228447 L135.05706,51.5228447 C136.219619,51.5228447 137.16206,52.4652853 137.16206,53.6278447 L137.16206,53.6498447 C137.16206,54.2067993 136.940811,54.7409425 136.546984,55.1347689 C136.153158,55.5285953 135.619015,55.7498447 135.06206,55.7498447 L92.0050601,55.7498447 C90.8460427,55.7498452 89.9061639,54.8108615 89.9050601,53.6518447 L89.9050601,53.6288447 C89.9050601,52.465733 90.8479484,51.5228447 92.0110601,51.5228447 Z" id="Rectangle_66" fill="#AE9AD9" transform="translate(113.533560, 53.636345) rotate(-13.458000) translate(-113.533560, -53.636345) "></path>
            <path d="M38.5544571,112.654392 L147.720457,112.654392 C148.883017,112.654392 149.825457,113.596833 149.825457,114.759392 L149.825457,114.782392 C149.825457,115.94219 148.885255,116.882392 147.725457,116.882392 L38.5594571,116.882392 C37.398458,116.882394 36.4566633,115.942389 36.4544571,114.781392 L36.4544571,114.754392 C36.4544571,113.594594 37.3946592,112.654392 38.5544571,112.654392 Z" id="Rectangle_67" fill="#C9C3CC" transform="translate(93.139957, 114.768392) rotate(-13.458000) translate(-93.139957, -114.768392) "></path>
            <path d="M150.031,117.745 L43.76,143.172 C42.6592834,143.432069 41.5552022,142.754249 41.289,141.655 L41.258,141.527 C40.9978876,140.426044 41.6756134,139.321668 42.775,139.055 L149.045,113.624 C150.145862,113.364471 151.249854,114.041961 151.517,115.141 L151.547,115.27 C151.810231,116.371832 151.132138,117.478878 150.031,117.745 L150.031,117.745 Z" id="Path_80" fill="#C9C3CC"></path>
            <path d="M45.7016965,145.195754 L109.479696,145.195754 C110.642256,145.195754 111.584696,146.138195 111.584696,147.300754 L111.584696,147.323754 C111.584696,148.483552 110.644494,149.423754 109.484696,149.423754 L45.7066965,149.423754 C44.5456974,149.423756 43.6039026,148.483751 43.6016965,147.322754 L43.6016965,147.295754 C43.6016965,146.135956 44.5418985,145.195754 45.7016965,145.195754 Z" id="Rectangle_68" fill="#C9C3CC" transform="translate(77.593196, 147.309754) rotate(-13.467000) translate(-77.593196, -147.309754) "></path>
        </g>
    </g>
</svg>