<?xml version="1.0" encoding="UTF-8"?>
<svg width="144px" height="202px" viewBox="0 0 144 202" version="1.1" xmlns="http://www.w3.org/2000/svg" xmlns:xlink="http://www.w3.org/1999/xlink">
    <!-- Generator: Sketch 53.1 (72631) - https://sketchapp.com -->
    <title>Artboard</title>
    <desc>Created with Sketch.</desc>
    <g id="Artboard" stroke="none" stroke-width="1" fill="none" fill-rule="evenodd">
        <g id="3" transform="translate(72.500000, 101.500000) rotate(18.000000) translate(-72.500000, -101.500000) translate(-26.000000, -15.000000)" fill-rule="nonzero">
            <g id="Group" fill="#FFFFFF">
                <rect id="Rectangle_69-2" transform="translate(98.003142, 116.448790) rotate(-17.800000) translate(-98.003142, -116.448790) " x="27.0221419" y="16.9377896" width="141.962" height="199.022"></rect>
            </g>
            <path d="M52.6049577,41.8183321 L54.5249,41.8183321 C68.8776639,41.8199886 80.5124639,53.4547886 80.5141203,67.8075524 L80.5141203,90.0958837 C80.5108082,104.450171 68.8751871,116.085792 54.5209002,116.089104 L52.6049577,116.089104 C38.2483277,116.089104 26.6090507,104.452513 26.6057377,90.0958837 L26.6057377,67.8175521 C26.6057377,53.4585794 38.2459849,41.8183321 52.6049577,41.8183321 Z" id="Rectangle_70" fill="#AE9AD9" transform="translate(53.559929, 78.953718) rotate(-17.818889) translate(-53.559929, -78.953718) "></path>
            <rect id="Rectangle_71" fill="#AE9AD9" transform="translate(107.065760, 31.417386) rotate(-17.801000) translate(-107.065760, -31.417386) " x="83.4427602" y="29.3018857" width="47.246" height="4.231" rx="2.104"></rect>
            <rect id="Rectangle_72" fill="#AE9AD9" transform="translate(110.902760, 43.368386) rotate(-17.801000) translate(-110.902760, -43.368386) " x="87.2797602" y="41.2528857" width="47.246" height="4.231" rx="2.104"></rect>
            <rect id="Rectangle_73" fill="#AE9AD9" transform="translate(114.739760, 55.318386) rotate(-17.801000) translate(-114.739760, -55.318386) " x="91.1167602" y="53.2028857" width="47.246" height="4.231" rx="2.104"></rect>
            <path d="M153.669,109.275 L49.653,142.675 C48.5752234,143.017861 47.4228991,142.425837 47.074,141.35 L47.034,141.225 C46.691139,140.147223 47.2831629,138.994899 48.359,138.646 L152.375,105.246 C153.453018,104.903814 154.605071,105.496145 154.954,106.572 L154.994,106.697 C155.336214,107.774469 154.74432,108.926093 153.669,109.275 L153.669,109.275 Z" id="Path_81" fill="#C9C3CC"></path>
            <path d="M157.953,122.618 L53.938,156.018 C52.8599818,156.360186 51.7079286,155.767855 51.359,154.692 L51.319,154.567 C50.976139,153.489223 51.5681629,152.336899 52.644,151.988 L156.66,118.588 C157.737518,118.245196 158.889544,118.837296 159.238,119.913 L159.279,120.038 C159.621833,121.116326 159.029371,122.269079 157.953,122.618 Z" id="Path_82" fill="#C9C3CC"></path>
            <rect id="Rectangle_74" fill="#C9C3CC" transform="translate(120.319039, 184.085018) rotate(-17.818889) translate(-120.319039, -184.085018) " x="63.6477392" y="181.969581" width="113.3426" height="4.23087307" rx="2.104"></rect>
            <rect id="Rectangle_75" fill="#C9C3CC" transform="translate(87.977111, 157.571852) rotate(-17.818889) translate(-87.977111, -157.571852) " x="53.9941305" y="155.456415" width="67.9659609" height="4.23087307" rx="2.104"></rect>
            <path d="M62.2555904,174.650207 L126.01959,174.650207 C127.179388,174.650207 128.11959,175.590409 128.11959,176.750207 L128.11959,176.773207 C128.11959,177.933005 127.179388,178.873207 126.01959,178.873207 L62.2555904,178.873207 C61.0977423,178.873211 60.1583472,177.936052 60.1555904,176.778207 L60.1555904,176.750207 C60.1555904,175.590409 61.0957925,174.650207 62.2555904,174.650207 Z" id="Rectangle_76" fill="#C9C3CC" transform="translate(94.137590, 176.761707) rotate(-17.801000) translate(-94.137590, -176.761707) "></path>
            <g id="Group_138" transform="translate(29.288000, 39.443000)">
                <path d="M35.698,53.112 L17.815,58.854 L20.476,67.139 L20.476,67.139 L20.476,67.169 C21.547,70.503 26.418,71.92 31.356,70.335 C36.294,68.75 39.429,64.761 38.356,61.427 C38.356,61.417 38.345,61.409 38.342,61.4 L38.342,61.4 L35.698,53.112 Z" id="Path_83" fill="#F0A79E"></path>
                <g id="Group_137">
                    <path d="M9.061,11.881 C6.33,7.381 9.754,-3.401 22.461,1.069 C35.168,5.539 46.899,41.123 46.899,41.123 C46.899,41.123 40.599,42.944 32.388,37.407 C24.177,31.87 9.061,11.881 9.061,11.881 Z" id="Path_84" fill="#4E40B5"></path>
                    <path d="M11.947,9.86 C-4.915,15.274 -0.263,29.86 3.986,41.195 L7.701,42.284 L20.988,38.017 L34.276,33.751 L36.662,30.703 C33.516,19.012 28.809,4.445 11.947,9.86 Z" id="Path_85" fill="#5546C5"></path>
                    <path d="M36.663,30.704 C35.9244354,31.1532904 35.2153249,31.6493003 34.54,32.189 C29.634,16.91 23.372,15.917 14.84,18.655 C4.911,21.843 1.576,25.498 6.607,41.168 C5.73262917,41.121462 4.85617866,41.1308144 3.983,41.196 C3.504,41.309 2.619,42.996 5.029,48.149 C7.439,53.302 9.643,53.096 10.755,52.557 L10.755,52.557 C15.298,60.473 22.666,64.908 29.033,62.863 C35.4,60.818 38.807,52.928 37.896,43.849 C39.114,43.583 40.86,42.368 39.855,36.965 C38.821,31.376 37.119,30.52 36.663,30.704 Z" id="Path_86" fill="#F5B1A8"></path>
                    <path d="M14.843,18.653 C14.843,18.653 20.151,35.772 6.61,41.166 C2.31,32.922 2.333,29.257 2.333,29.257 L3.921,20.257 L14.869,16.174 L14.843,18.653 Z" id="Path_87" fill="#5546C5"></path>
                    <path d="M14.566,18.742 C14.566,18.742 20.389,35.684 34.539,32.187 C33.239,22.982 30.911,20.08 30.911,20.08 L24.383,13.69 L13.104,16.744 L14.566,18.742 Z" id="Path_88" fill="#5546C5"></path>
                </g>
            </g>
        </g>
    </g>
</svg>