<svg xmlns="http://www.w3.org/2000/svg" xmlns:xlink="http://www.w3.org/1999/xlink" width="437.635" height="520.097" viewBox="0 0 437.635 520.097">
  <defs>
    <clipPath id="clip-path">
      <circle id="Ellipse_7" data-name="Ellipse 7" cx="68.005" cy="68.005" r="68.005" transform="translate(0 96.174) rotate(-45)" fill="none"/>
    </clipPath>
    <linearGradient id="linear-gradient" x1="0.5" x2="0.5" y2="1" gradientUnits="objectBoundingBox">
      <stop offset="0" stop-color="#fedba1"/>
      <stop offset="1" stop-color="#ffc564"/>
    </linearGradient>
    <linearGradient id="linear-gradient-2" x1="0.203" y1="-2.926" xlink:href="#linear-gradient"/>
    <filter id="Path_102" x="92.256" y="137.094" width="345.379" height="383.003" filterUnits="userSpaceOnUse">
      <feOffset dy="3" input="SourceAlpha"/>
      <feGaussianBlur stdDeviation="25" result="blur"/>
      <feFlood flood-opacity="0.161"/>
      <feComposite operator="in" in2="blur"/>
      <feComposite in="SourceGraphic"/>
    </filter>
    <linearGradient id="linear-gradient-6" x1="1.272" y1="0.932" x2="-0.174" y2="0.259" xlink:href="#linear-gradient"/>
  </defs>
  <g id="Group_1" data-name="Group 1" transform="translate(-1211.737 -239.904)">
    <g id="Group_145" data-name="Group 145" transform="translate(1211.737 239.904)">
      <g id="Group_144" data-name="Group 144" clip-path="url(#clip-path)">
        <g id="Group_143" data-name="Group 143" transform="translate(-40.128 -3.011)">
          <rect id="Rectangle_87" data-name="Rectangle 87" width="235.008" height="329.467" transform="matrix(0.981, 0.194, -0.194, 0.981, 64.078, 0)" fill="#f8f1fc"/>
          <rect id="Rectangle_88" data-name="Rectangle 88" width="89.244" height="122.955" rx="25.995" transform="matrix(0.981, 0.194, -0.194, 0.981, 81.231, 25.509)" fill="#ae9ad9"/>
          <g id="Group_142" data-name="Group 142" transform="translate(82.43 42.096)">
            <path id="Path_93" data-name="Path 93" d="M843.206,126.47c-28.756-5.7-33.733,19.145-36.687,38.969l4.5,4.559,22.661,4.493,22.662,4.494,5.9-2.5C867.083,157.038,871.964,132.172,843.206,126.47Z" transform="translate(-802.368 -125.641)" fill="#5546c5"/>
            <path id="Path_94" data-name="Path 94" d="M842.935,210.178l-30.5-6.047-2.8,14.129h.008c0,.017-.015.031-.018.048-1.127,5.686,4.785,11.649,13.208,13.32s16.163-1.586,17.292-7.273v-.05h.008Z" transform="translate(-802.445 -127.664)" fill="#f0a79e"/>
            <path id="Path_95" data-name="Path 95" d="M862.139,176.879a33.236,33.236,0,0,0-4.265.443c5.167-26.058-3.1-32.525-17.646-35.408-16.934-3.357-24.7-.744-30,25.981a34.027,34.027,0,0,0-3.822-2.066c-.783-.22-3.421,1.514-4.067,10.9s2.706,10.867,4.748,10.98h0c.22,15.107,7.325,27.444,18.185,29.6s22.128-6.534,28.1-20.408c1.976.592,5.478.235,8.364-8.392C864.723,179.584,862.949,176.975,862.139,176.879Z" transform="translate(-802.258 -126.031)" fill="#f5b1a8"/>
            <path id="Path_96" data-name="Path 96" d="M852.308,146.213c-3.816,2.065-31.082,10.39-38.5,9,10.587-4.229,10.451-5.312,10.451-5.312l-10.451,3.791s2.734-14.351,11.669-15.976,28.838,1.833,28.838,1.833l.948,6.777Z" transform="translate(-802.556 -125.941)" fill="#5546c5"/>
          </g>
          <path id="Rectangle_89" data-name="Rectangle 89" d="M2.582,0H75.631a2.581,2.581,0,0,1,2.581,2.581V4.423A2.582,2.582,0,0,1,75.631,7H2.581A2.581,2.581,0,0,1,0,4.423V2.582A2.582,2.582,0,0,1,2.582,0Z" transform="matrix(0.981, 0.194, -0.194, 0.981, 191.012, 57.588)" fill="#ae9ad9"/>
          <path id="Rectangle_90" data-name="Rectangle 90" d="M2.581,0h73.05a2.582,2.582,0,0,1,2.582,2.582V4.423A2.582,2.582,0,0,1,75.631,7H2.581A2.581,2.581,0,0,1,0,4.423V2.581A2.581,2.581,0,0,1,2.581,0Z" transform="matrix(0.981, 0.194, -0.194, 0.981, 186.971, 77.969)" fill="#ae9ad9"/>
          <path id="Rectangle_91" data-name="Rectangle 91" d="M2.582,0H75.631a2.581,2.581,0,0,1,2.581,2.581V4.423A2.581,2.581,0,0,1,75.631,7H2.581A2.581,2.581,0,0,1,0,4.423V2.582A2.582,2.582,0,0,1,2.582,0Z" transform="matrix(0.981, 0.194, -0.194, 0.981, 182.929, 98.35)" fill="#ae9ad9"/>
          <path id="Path_97" data-name="Path 97" d="M955.694,295.257,776.576,259.741a2.523,2.523,0,0,1-1.978-2.956l.385-1.938a2.522,2.522,0,0,1,2.956-1.978l179.119,35.517a2.522,2.522,0,0,1,1.978,2.956l-.384,1.937A2.523,2.523,0,0,1,955.694,295.257Z" transform="translate(-719.114 -86.824)" fill="#c9c3cc"/>
          <path id="Rectangle_92" data-name="Rectangle 92" d="M2.581,0H185.054a2.582,2.582,0,0,1,2.582,2.582V4.423A2.581,2.581,0,0,1,185.055,7H2.581A2.581,2.581,0,0,1,0,4.423V2.581A2.581,2.581,0,0,1,2.581,0Z" transform="matrix(0.981, 0.194, -0.194, 0.981, 51.845, 188.314)" fill="#c9c3cc"/>
          <path id="Rectangle_93" data-name="Rectangle 93" d="M2.582,0H109.935a2.581,2.581,0,0,1,2.581,2.581V4.423A2.581,2.581,0,0,1,109.935,7H2.581A2.581,2.581,0,0,1,0,4.423V2.582A2.582,2.582,0,0,1,2.582,0Z" transform="matrix(0.981, 0.194, -0.194, 0.981, 47.333, 211.07)" fill="#c9c3cc"/>
          <path id="Rectangle_94" data-name="Rectangle 94" d="M2.581,0H185.055a2.581,2.581,0,0,1,2.581,2.581V4.423A2.581,2.581,0,0,1,185.055,7H2.582A2.582,2.582,0,0,1,0,4.423V2.581A2.581,2.581,0,0,1,2.581,0Z" transform="matrix(0.981, 0.194, -0.194, 0.981, 41.667, 237.864)" fill="#c9c3cc"/>
          <path id="Rectangle_95" data-name="Rectangle 95" d="M2.581,0H109.935a2.581,2.581,0,0,1,2.581,2.581V4.423A2.581,2.581,0,0,1,109.935,7H2.582A2.582,2.582,0,0,1,0,4.423V2.581A2.581,2.581,0,0,1,2.581,0Z" transform="translate(37.155 260.621) rotate(11.186)" fill="#c9c3cc"/>
        </g>
      </g>
    </g>
    <path id="Path_98" data-name="Path 98" d="M921.413,369.256c1.011,4.174,6.427,13.389,13.171,18.967s14.279,9.863,16.443,7.259,5.436-8.139.186-14.8A155.846,155.846,0,0,0,937.9,366.5Z" transform="translate(452.339 147.139)" fill="url(#linear-gradient)"/>
    <path id="Path_99" data-name="Path 99" d="M921.413,369.256c.055.222.127.467.206.716,1.189,2.122,2.163,3.775,2.163,3.775s16.214,10.786,19.035,8.841,3.416-4.141,3.153-5.767a24.774,24.774,0,0,0-2.1-4.411c-3.278-3.4-5.964-5.912-5.964-5.912Z" transform="translate(451.493 147.139)" opacity="0.46" fill="url(#linear-gradient-2)"/>
    <path id="Path_100" data-name="Path 100" d="M915.283,342.914s-1.317,10.39-.328,13.4,6.283,11.994,6.283,11.994,16.214,10.786,19.035,8.84,3.416-4.141,3.152-5.767-5.969-11.01-9.545-18.221-9.063-23.471-9.063-23.471Z" transform="translate(451.283 148.088)" fill="url(#linear-gradient)"/>
    <path id="Path_101" data-name="Path 101" d="M933.89,353.16c-3.576-7.211-9.063-23.471-9.063-23.471l-9.367,12.994-.423,2.552h0c2.021,3.145,8.824,1.522,10.265-4.261,1.813,3.459,2.347,20.891,7.621,24.226a39.706,39.706,0,0,0,9.169,4.456l.266-.751C940.485,365.256,936.584,358.593,933.89,353.16Z" transform="translate(451.161 148.088)" opacity="0.46" fill="url(#linear-gradient-2)"/>
    <g transform="matrix(1, 0, 0, 1, 1211.74, 239.9)" filter="url(#Path_102)">
      <path id="Path_102-2" data-name="Path 102" d="M1016.413,372.262s-31.6-39-37.6-48.2S970.376,309.08,956.23,306.2s-30.733-11.53-38.1-.909-14.079,19.135-8.774,28.7,6.207,14.092,10.116,11.456,4.9-5.8,4.293-13.126,7.91,11.73,6.756,18.506,17.939,37.046,39.533,45.721,132.778,136.6,132.778,136.6V431.037S1018.332,374.637,1016.413,372.262Z" transform="translate(-740.2 -91.05)" fill="url(#linear-gradient)"/>
    </g>
    <path id="Path_103" data-name="Path 103" d="M958.822,336.3s-9.777-6.794-13.3-12.668-14.737-23.367-14.778-23.43c-5.142-.312-9.559.85-12.5,5.093-2.226,3.209-4.386,6.223-6.179,9.134-.371,2.062,11.217,20.991,11.973,21.788.016-1.153-.038-2.437-.159-3.891-.249-3.032,1.062-1.54,2.6,1.723Z" transform="translate(452.938 148.849)" fill="#ee8b7c" opacity="0.46"/>
    <path id="Path_104" data-name="Path 104" d="M953.59,367.442h0a12.683,12.683,0,0,1-17.069-5.333L880.873,255.89c-3.228-6.161,3.854-4.426,10.015-7.654l2.089-.654c6.161-3.228,7.071-9.59,10.3-3.429l55.648,106.218a12.683,12.683,0,0,1-5.335,17.071Z" transform="translate(453.386 150.359)" fill="#41ffe5"/>
    <g id="Group_147" data-name="Group 147" transform="translate(1358.771 434.086)">
      <path id="Path_105" data-name="Path 105" d="M943.56,322.175c-7.161-9.182-8.256-18.494-20.739-31.17-11.122-11.294-18.969-5.348-18.469,4.091s10.262,25.342,18.183,37.654c6.114,9.506,8.916,15.335,10.7,21.811l3.911,8.664a12.724,12.724,0,0,0,.678,1.141,39.741,39.741,0,0,0,8.508,5.446,12.55,12.55,0,0,0,7.883-1.254h0a12.683,12.683,0,0,0,5.333-17.07l-14.331-27.355C944.661,323.518,944.108,322.877,943.56,322.175Z" transform="translate(-904.329 -284.842)" fill="#ffdca2" opacity="0.41"/>
      <path id="Path_106" data-name="Path 106" d="M935.841,362.983c-3.487-8.981-2.977-15.783-10.9-28.1s-18.51-27.341-19.01-36.779,7.88-15.887,18.469-4.091,13.577,21.987,20.738,31.169,15.1,10.312,21.035,16.024,8.547,26.974.979,33.29S938.435,369.663,935.841,362.983Z" transform="translate(-904.37 -284.914)" fill="url(#linear-gradient-6)"/>
      <path id="Path_107" data-name="Path 107" d="M913.254,306.877c-4.043-7.435-5.82-12.883-2.329-15.388,4.855-3.484,11.313.834,16.377,9.939-2.537,4.416-11.778,8.6-12.308,8.176a15.405,15.405,0,0,1-1.74-2.727Z" transform="translate(-904.451 -284.982)" fill="#fff" opacity="0.2"/>
      <path id="Path_108" data-name="Path 108" d="M924.4,323.947s7.531-5.714,11.153-6.835C931.226,320.149,924.4,323.947,924.4,323.947Z" transform="translate(-904.846 -285.674)" fill="#ffdca2" opacity="0.46"/>
      <path id="Path_109" data-name="Path 109" d="M925.716,326.464s7.531-5.714,11.154-6.836C932.545,322.666,925.716,326.464,925.716,326.464Z" transform="translate(-904.88 -285.739)" fill="#ffdca2" opacity="0.46"/>
    </g>
    <circle id="Ellipse_8" data-name="Ellipse 8" cx="68.005" cy="68.005" r="68.005" transform="translate(1211.737 336.078) rotate(-45)" fill="#fff" opacity="0.67"/>
    <path id="Path_110" data-name="Path 110" d="M803.566,216.516a67.988,67.988,0,0,1,76.449-97.588,67.991,67.991,0,1,0-40.472,129.543,67.731,67.731,0,0,1-35.977-31.955Z" transform="translate(445.001 153.636)" fill="#e8e8e8" opacity="0.35"/>
    <path id="Path_111" data-name="Path 111" d="M819.084,112.7a78.425,78.425,0,1,0,105.864,33.075A78.425,78.425,0,0,0,819.084,112.7Zm67.954,129.7a68,68,0,1,1,28.679-91.8A68,68,0,0,1,887.038,242.4Z" transform="translate(450.824 153.912)" fill="#41ffe5"/>
    <path id="Path_112" data-name="Path 112" d="M910.466,257.9l-4.911-9.375a67.7,67.7,0,0,1-22.366,11.808l4.911,9.375A78.218,78.218,0,0,0,910.466,257.9Z" transform="translate(446.956 153.18)" fill="#41ebd4"/>
  </g>
</svg>
