<?xml version="1.0" encoding="UTF-8"?>
<svg width="349px" height="428px" viewBox="0 0 349 428" version="1.1" xmlns="http://www.w3.org/2000/svg" xmlns:xlink="http://www.w3.org/1999/xlink">
    <!-- Generator: Sketch 53.1 (72631) - https://sketchapp.com -->
    <title>Artboard</title>
    <desc>Created with Sketch.</desc>
    <defs>
        <circle id="path-1" cx="96.1735933" cy="96.174" r="68.005"></circle>
        <linearGradient x1="50%" y1="0%" x2="50%" y2="100%" id="linearGradient-3">
            <stop stop-color="#FEDBA1" offset="0%"></stop>
            <stop stop-color="#FFC564" offset="100%"></stop>
        </linearGradient>
        <linearGradient x1="20.3%" y1="-292.6%" x2="100%" y2="1.11022302e-14%" id="linearGradient-4">
            <stop stop-color="#FEDBA1" offset="0%"></stop>
            <stop stop-color="#FFC564" offset="100%"></stop>
        </linearGradient>
        <linearGradient x1="50%" y1="0%" x2="50%" y2="100%" id="linearGradient-5">
            <stop stop-color="#FEDBA1" offset="0%"></stop>
            <stop stop-color="#FFC564" offset="100%"></stop>
        </linearGradient>
        <linearGradient x1="20.3%" y1="-292.6%" x2="100%" y2="0%" id="linearGradient-6">
            <stop stop-color="#FEDBA1" offset="0%"></stop>
            <stop stop-color="#FFC564" offset="100%"></stop>
        </linearGradient>
        <linearGradient x1="50%" y1="0%" x2="50%" y2="100%" id="linearGradient-7">
            <stop stop-color="#FEDBA1" offset="0%"></stop>
            <stop stop-color="#FFC564" offset="100%"></stop>
        </linearGradient>
        <linearGradient x1="127.2%" y1="93.2%" x2="-17.4%" y2="25.9%" id="linearGradient-8">
            <stop stop-color="#FEDBA1" offset="0%"></stop>
            <stop stop-color="#FFC564" offset="100%"></stop>
        </linearGradient>
    </defs>
    <g id="Artboard" stroke="none" stroke-width="1" fill="none" fill-rule="evenodd">
        <g id="5" transform="translate(-15.000000, -15.000000)">
            <g id="Group_145">
                <g id="Group_144-Clipped">
                    <mask id="mask-2" fill="white">
                        <use xlink:href="#path-1"></use>
                    </mask>
                    <g id="Ellipse_7" transform="translate(96.173593, 96.174000) rotate(-45.000000) translate(-96.173593, -96.174000) "></g>
                    <g id="Group_144" mask="url(#mask-2)">
                        <g transform="translate(-41.000000, -4.000000)" id="Group_143">
                            <g transform="translate(0.872000, 0.989000)">
                                <rect id="Rectangle_87" fill="#F8F1FC" fill-rule="nonzero" transform="translate(147.391125, 184.399339) rotate(11.186329) translate(-147.391125, -184.399339) " x="29.8873013" y="19.6660866" width="235.007647" height="329.466506"></rect>
                                <rect id="Rectangle_88" fill="#AE9AD9" fill-rule="nonzero" transform="translate(113.078547, 94.475096) rotate(11.186329) translate(-113.078547, -94.475096) " x="68.4566139" y="32.9976877" width="89.2438661" height="122.954816" rx="25.995"></rect>
                                <g id="Group_142" transform="translate(82.430000, 42.096000)" fill-rule="nonzero">
                                    <path d="M40.838,0.829 C12.082,-4.871 7.105,19.974 4.151,39.798 L8.651,44.357 L31.312,48.85 L53.974,53.344 L59.874,50.844 C64.715,31.397 69.596,6.531 40.838,0.829 Z" id="Path_93" fill="#5546C5"></path>
                                    <path d="M40.49,82.514 L9.99,76.467 L7.19,90.596 L7.198,90.596 C7.198,90.613 7.183,90.627 7.18,90.644 C6.053,96.33 11.965,102.293 20.388,103.964 C28.811,105.635 36.551,102.378 37.68,96.691 L37.68,96.641 L37.688,96.641 L40.49,82.514 Z" id="Path_94" fill="#F0A79E"></path>
                                    <path d="M59.881,50.848 C58.4512798,50.9037089 57.0266491,51.0516834 55.616,51.291 C60.783,25.233 52.516,18.766 37.97,15.883 C21.036,12.526 13.27,15.139 7.97,41.864 C6.74131104,41.0946196 5.4647095,40.4045467 4.148,39.798 C3.365,39.578 0.727,41.312 0.081,50.698 C-0.565,60.084 2.787,61.565 4.829,61.678 L4.829,61.678 C5.049,76.785 12.154,89.122 23.014,91.278 C33.874,93.434 45.142,84.744 51.114,70.87 C53.09,71.462 56.592,71.105 59.478,62.478 C62.465,53.553 60.691,50.944 59.881,50.848 Z" id="Path_95" fill="#F5B1A8"></path>
                                    <path d="M49.752,20.272 C45.936,22.337 18.67,30.662 11.252,29.272 C21.839,25.043 21.703,23.96 21.703,23.96 L11.252,27.751 C11.252,27.751 13.986,13.4 22.921,11.775 C31.856,10.15 51.759,13.608 51.759,13.608 L52.707,20.385 L49.752,20.272 Z" id="Path_96" fill="#5546C5"></path>
                                </g>
                                <path d="M192.172041,65.1080693 L265.220931,65.1080693 C266.646376,65.1080693 267.801927,66.2636206 267.801927,67.6890654 L267.801927,69.5310626 C267.799171,70.9547164 266.644588,72.10751 265.220931,72.1080587 L192.171041,72.1080587 C190.747157,72.1080605 189.592251,70.9549451 189.590045,69.5310626 L189.590045,67.6900654 C189.590045,66.2640683 190.746044,65.1080693 192.172041,65.1080693 Z" id="Rectangle_89" fill="#AE9AD9" fill-rule="nonzero" transform="translate(228.695986, 68.608064) rotate(11.186329) translate(-228.695986, -68.608064) "></path>
                                <path d="M188.130031,85.4891663 L261.179922,85.4891663 C262.605919,85.4891663 263.761918,86.6451653 263.761918,88.0711624 L263.761918,89.9121596 C263.75916,91.3362037 262.603968,92.4891584 261.179922,92.4891557 L188.130031,92.4891557 C186.706147,92.4891575 185.551242,91.3360421 185.549035,89.9121596 L185.549035,88.0701624 C185.549035,86.6447176 186.704586,85.4891663 188.130031,85.4891663 Z" id="Rectangle_90" fill="#AE9AD9" fill-rule="nonzero" transform="translate(224.655476, 88.989161) rotate(11.186329) translate(-224.655476, -88.989161) "></path>
                                <path d="M184.089041,105.870069 L257.137931,105.870069 C258.563376,105.870069 259.718927,107.025621 259.718927,108.451065 L259.718927,110.293063 C259.716721,111.716945 258.561815,112.87006 257.137931,112.870059 L184.088041,112.870059 C182.664157,112.87006 181.509251,111.716945 181.507045,110.293063 L181.507045,108.452065 C181.507045,107.026068 182.663044,105.870069 184.089041,105.870069 Z" id="Rectangle_91" fill="#AE9AD9" fill-rule="nonzero" transform="translate(220.612986, 109.370064) rotate(11.186329) translate(-220.612986, -109.370064) "></path>
                                <path d="M236.58,208.433 L57.462,172.917 C56.1021567,172.642978 55.2185967,171.322552 55.484,169.961 L55.869,168.023 C56.1425305,166.662828 57.4633317,165.779017 58.825,166.045 L237.944,201.562 C239.304172,201.835531 240.187983,203.156332 239.922,204.518 L239.538,206.455 C239.264004,207.815781 237.942242,208.699637 236.58,208.433 L236.58,208.433 Z" id="Path_97" fill="#C9C3CC" fill-rule="nonzero"></path>
                                <path d="M51.9645949,206.448197 L234.437321,206.448197 C235.863318,206.448197 237.019317,207.604196 237.019317,209.030193 L237.019317,210.871191 C237.017111,212.295073 235.862205,213.448188 234.438321,213.448187 L51.9645949,213.448187 C50.5407107,213.448188 49.3858054,212.295073 49.3835987,210.871191 L49.3835987,209.029193 C49.3835987,207.603749 50.5391501,206.448197 51.9645949,206.448197 Z" id="Rectangle_92" fill="#C9C3CC" fill-rule="nonzero" transform="translate(143.201458, 209.948192) rotate(11.186329) translate(-143.201458, -209.948192) "></path>
                                <path d="M48.1671785,221.917557 L155.520017,221.917557 C156.945462,221.917557 158.101014,223.073109 158.101014,224.498553 L158.101014,226.340551 C158.098807,227.764433 156.943902,228.917548 155.520017,228.917547 L48.1661785,228.917547 C46.7422943,228.917548 45.5873891,227.764433 45.5851824,226.340551 L45.5851824,224.499553 C45.5851824,223.073556 46.7411814,221.917557 48.1671785,221.917557 Z" id="Rectangle_93" fill="#C9C3CC" fill-rule="nonzero" transform="translate(101.843098, 225.417552) rotate(11.186329) translate(-101.843098, -225.417552) "></path>
                                <path d="M41.7865949,255.998197 L224.260321,255.998197 C225.685766,255.998197 226.841317,257.153749 226.841317,258.579193 L226.841317,260.421191 C226.839111,261.845073 225.684205,262.998188 224.260321,262.998187 L41.7875949,262.998187 C40.3635481,262.998189 39.2083564,261.845235 39.2055987,260.421191 L39.2055987,258.579193 C39.2055987,257.153749 40.3611501,255.998197 41.7865949,255.998197 Z" id="Rectangle_94" fill="#C9C3CC" fill-rule="nonzero" transform="translate(133.023458, 259.498192) rotate(11.186329) translate(-133.023458, -259.498192) "></path>
                                <path d="M37.9882622,271.46826 L145.342262,271.46826 C146.767709,271.46826 147.923262,272.623813 147.923262,274.04926 L147.923262,275.89126 C147.921056,277.315145 146.766149,278.468262 145.342262,278.46826 L37.9892622,278.46826 C36.5652133,278.468263 35.4100199,277.315306 35.4072622,275.89126 L35.4072622,274.04926 C35.4072622,272.623813 36.5628153,271.46826 37.9882622,271.46826 Z" id="Rectangle_95" fill="#C9C3CC" fill-rule="nonzero" transform="translate(91.665262, 274.968260) rotate(11.186000) translate(-91.665262, -274.968260) "></path>
                            </g>
                        </g>
                    </g>
                </g>
            </g>
            <path d="M162.015,276.491 C163.026,280.665 168.442,289.88 175.186,295.458 C181.93,301.036 189.465,305.321 191.629,302.717 C193.793,300.113 197.065,294.578 191.815,287.917 C187.676967,282.917069 183.230642,278.180512 178.502,273.735 L162.015,276.491 Z" id="Path_98" fill="url(#linearGradient-3)" fill-rule="nonzero"></path>
            <path d="M161.169,276.491 C161.224,276.713 161.296,276.958 161.375,277.207 C162.564,279.329 163.538,280.982 163.538,280.982 C163.538,280.982 179.752,291.768 182.573,289.823 C185.394,287.878 185.989,285.682 185.726,284.056 C185.173037,282.52007 184.469618,281.042555 183.626,279.645 C180.348,276.245 177.662,273.733 177.662,273.733 L161.169,276.491 Z" id="Path_99" fill="url(#linearGradient-4)" fill-rule="nonzero" opacity="0.46"></path>
            <path d="M154.829,251.098 C154.829,251.098 153.512,261.488 154.501,264.498 C155.49,267.508 160.784,276.492 160.784,276.492 C160.784,276.492 176.998,287.278 179.819,285.332 C182.64,283.386 183.235,281.191 182.971,279.565 C182.707,277.939 177.002,268.555 173.426,261.344 C169.85,254.133 164.363,237.873 164.363,237.873 L154.829,251.098 Z" id="Path_100" fill="url(#linearGradient-5)" fill-rule="nonzero"></path>
            <path d="M173.314,261.344 C169.738,254.133 164.251,237.873 164.251,237.873 L154.884,250.867 L154.461,253.419 L154.461,253.419 C156.482,256.564 163.285,254.941 164.726,249.158 C166.539,252.617 167.073,270.049 172.347,273.384 C175.199166,275.257146 178.280893,276.754821 181.516,277.84 L181.782,277.089 C179.909,273.44 176.008,266.777 173.314,261.344 Z" id="Path_101" fill="url(#linearGradient-6)" fill-rule="nonzero" opacity="0.46"></path>
            <g id="Group" transform="translate(167.003000, 208.996000)" fill="url(#linearGradient-7)" fill-rule="nonzero">
                <path d="M109.213,72.212 C109.213,72.212 77.613,33.212 71.613,24.012 C65.613,14.812 63.176,9.03 49.03,6.15 C34.884,3.27 18.297,-5.38 10.93,5.241 C3.563,15.862 -3.149,24.376 2.156,33.941 C7.461,43.506 8.363,48.033 12.272,45.397 C16.181,42.761 17.172,39.597 16.565,32.271 C15.958,24.945 24.475,44.001 23.321,50.777 C22.167,57.553 41.26,87.823 62.854,96.498 C84.448,105.173 195.632,233.098 195.632,233.098 L195.632,130.987 C195.632,130.987 111.132,74.587 109.213,72.212 Z" id="Path_102-2"></path>
            </g>
            <path d="M200.023,245.245 C200.023,245.245 190.246,238.451 186.723,232.577 C183.2,226.703 171.986,209.21 171.945,209.147 C166.803,208.835 162.386,209.997 159.445,214.24 C157.219,217.449 155.059,220.463 153.266,223.374 C152.895,225.436 164.483,244.365 165.239,245.162 C165.255,244.009 165.201,242.725 165.08,241.271 C164.831,238.239 166.142,239.731 167.68,242.994 L200.023,245.245 Z" id="Path_103" fill="#EE8B7C" fill-rule="nonzero" opacity="0.46"></path>
            <path d="M195.239,277.897 L195.239,277.897 C189.050847,281.115299 181.425274,278.732782 178.17,272.564 L122.522,166.345 C119.294,160.184 126.376,161.919 132.537,158.691 L134.626,158.037 C140.787,154.809 141.697,148.447 144.926,154.608 L200.574,260.826 C203.793342,267.015163 201.409693,274.642395 195.239,277.897 L195.239,277.897 Z" id="Path_104" fill="#41FFE5" fill-rule="nonzero"></path>
            <g id="Group_147" transform="translate(147.034000, 194.182000)" fill-rule="nonzero">
                <path d="M39.231,37.333 C32.07,28.151 30.975,18.839 18.492,6.163 C7.37,-5.131 -0.477,0.815 0.023,10.254 C0.523,19.693 10.285,35.596 18.206,47.908 C24.32,57.414 27.122,63.243 28.906,69.719 L32.817,78.383 C33.0229963,78.7748694 33.2493041,79.1557207 33.495,79.524 C36.0877957,81.6938504 38.9468876,83.5239649 42.003,84.97 C44.697115,85.4210386 47.4648283,84.9807605 49.886,83.716 L49.886,83.716 C56.0553647,80.4607051 58.4379725,72.8343941 55.219,66.646 L40.888,39.291 C40.332,38.676 39.779,38.035 39.231,37.333 Z" id="Path_105" fill="#FFDCA2" opacity="0.41"></path>
                <path d="M31.471,78.069 C27.984,69.088 28.494,62.286 20.571,49.969 C12.648,37.652 2.061,22.628 1.561,13.19 C1.061,3.752 9.441,-2.697 20.03,9.099 C30.619,20.895 33.607,31.086 40.768,40.268 C47.929,49.45 55.868,50.58 61.803,56.292 C67.738,62.004 70.35,83.266 62.782,89.582 C55.214,95.898 34.065,84.749 31.471,78.069 Z" id="Path_106" fill="url(#linearGradient-8)"></path>
                <path d="M8.803,21.895 C4.76,14.46 2.983,9.012 6.474,6.507 C11.329,3.023 17.787,7.341 22.851,16.446 C20.314,20.862 11.073,25.046 10.543,24.622 C9.86890428,23.7765836 9.28568972,22.8625456 8.803,21.895 L8.803,21.895 Z" id="Path_107" fill="#FFFFFF" opacity="0.2"></path>
                <path d="M19.554,38.273 C19.554,38.273 27.085,32.559 30.707,31.438 C26.38,34.475 19.554,38.273 19.554,38.273 Z" id="Path_108" fill="#FFDCA2" opacity="0.46"></path>
                <path d="M20.836,40.725 C20.836,40.725 28.367,35.011 31.99,33.889 C27.665,36.927 20.836,40.725 20.836,40.725 Z" id="Path_109" fill="#FFDCA2" opacity="0.46"></path>
            </g>
            <circle id="Ellipse_8" fill="#FFFFFF" fill-rule="nonzero" opacity="0.67" transform="translate(96.173593, 96.174000) rotate(-45.000000) translate(-96.173593, -96.174000) " cx="96.1735933" cy="96.174" r="68.005"></circle>
            <path d="M36.83,130.248 C24.4148809,106.565092 27.0348949,77.8039997 43.524972,56.7542327 C60.015049,35.7044657 87.3126293,26.2754152 113.279,32.66 C89.6441346,23.6248679 62.9470571,28.4618516 43.984483,45.2147993 C25.021909,61.967747 16.9310501,87.8650126 22.9839763,112.433337 C29.0369025,137.001661 48.2322037,156.176404 72.807,162.203 C57.3076438,156.313942 44.5068227,144.944171 36.83,130.248 L36.83,130.248 Z" id="Path_110" fill="#E8E8E8" fill-rule="nonzero" opacity="0.35"></path>
            <path d="M58.171,26.708 C19.8046174,46.808192 4.99683916,94.2046432 25.0968431,132.571124 C45.196847,170.937606 92.5932257,185.745616 130.959805,165.6458 C169.326385,145.545984 184.134628,98.1496782 164.035,59.783 C154.382692,41.3584306 137.806524,27.5228995 117.953128,21.3201198 C98.0997321,15.1173401 76.5954275,17.0554213 58.171,26.708 L58.171,26.708 Z M126.125,156.408 C92.8585825,173.832889 51.7651544,160.992193 34.3381974,127.726859 C16.9112404,94.4615249 29.7493812,53.3672984 63.0136315,35.9382731 C96.2778819,18.5092478 137.372906,31.3448334 154.804,64.608 C163.176094,80.5841848 164.85792,99.232067 159.47941,116.448399 C154.100901,133.664731 142.102746,148.038886 126.125,156.408 L126.125,156.408 Z" id="Path_111" fill="#41FFE5" fill-rule="nonzero"></path>
            <path d="M145.685,171.176 L140.774,161.801 C134.126599,167.107015 126.538883,171.112906 118.408,173.609 L123.319,182.984 C131.365531,180.287377 138.919594,176.299253 145.685,171.176 L145.685,171.176 Z" id="Path_112" fill="#41EBD4" fill-rule="nonzero"></path>
        </g>
    </g>
</svg>