<?xml version="1.0" encoding="UTF-8"?>
<svg width="258px" height="256px" viewBox="0 0 258 256" version="1.1" xmlns="http://www.w3.org/2000/svg" xmlns:xlink="http://www.w3.org/1999/xlink">
    <!-- Generator: Sketch 52.2 (67145) - http://www.bohemiancoding.com/sketch -->
    <title>QR</title>
    <desc>Created with Sketch.</desc>
    <g id="Авторизация" stroke="none" stroke-width="1" fill="none" fill-rule="evenodd">
        <g id="Вкансия-1--1" transform="translate(-486.000000, -1185.000000)" fill="#000000">
            <g id="QR" transform="translate(432.000000, 1092.000000)">
                <g transform="translate(54.000000, 93.000000)" id="Combined-Shape">
                    <path d="M82.7175573,0 L82.7175573,30.2900763 L113.244275,30.2900763 L113.244275,20.1933842 L92.8905203,20.1933842 L92.8905203,0 L82.7175573,0 Z M103.396947,9.77099237 L124.076336,9.77099237 L124.076336,0 L103.396947,0 L103.396947,9.77099237 Z M144.755725,9.77099237 L154.603053,9.77099237 L154.603053,0 L144.755725,0 L144.755725,9.77099237 Z M165.435115,9.77099237 L175.282443,9.77099237 L175.282443,0 L165.435115,0 L165.435115,9.77099237 Z M0,71.3282443 L71.8854962,71.3282443 L71.8854962,0 L0,0 L0,71.3282443 Z M10.2733064,61.1424142 L61.6240391,61.1424142 L61.6240391,10.1936683 L10.2733064,10.1936683 L10.2733064,61.1424142 Z M133.923664,19.5419847 L143.770992,19.5419847 L143.770992,9.77099237 L133.923664,9.77099237 L133.923664,19.5419847 Z M186.114504,71.3282443 L258,71.3282443 L258,0 L186.114504,0 L186.114504,71.3282443 Z M196.38781,61.1424142 L247.730643,61.1424142 L247.730643,10.1936683 L196.38781,10.1936683 L196.38781,61.1424142 Z M20.6793893,50.8091603 L51.2061069,50.8091603 L51.2061069,20.519084 L20.6793893,20.519084 L20.6793893,50.8091603 Z M123.879389,20.519084 L134.120611,20.519084 L134.120611,40.8466565 L154.603053,40.8466565 L154.603053,71.3282443 L144.361832,71.3282443 L144.361832,61.1703206 L134.120611,61.1703206 L134.120611,51.0084885 L103.396947,51.0084885 L103.396947,40.8466565 L123.879389,40.8466565 L123.879389,20.519084 Z M154.603053,30.2900763 L175.282443,30.2900763 L175.282443,20.519084 L154.603053,20.519084 L154.603053,30.2900763 Z M206.793893,50.8091603 L237.320611,50.8091603 L237.320611,20.519084 L206.793893,20.519084 L206.793893,50.8091603 Z M82.7175573,50.8091603 L103.394958,50.8091603 L103.394958,61.0148551 L93.054269,61.0148551 L93.054269,71.2166247 L103.394958,71.2166247 L103.394958,81.4262448 L113.735647,81.4262448 L113.735647,91.6280144 L124.076336,91.6280144 L124.076336,101.833709 L113.735647,101.833709 L113.735647,122.245099 L103.394958,122.245099 L103.394958,132.454719 L93.054269,132.454719 L93.054269,142.656489 L82.7175573,142.656489 L82.7175573,122.245099 L93.054269,122.245099 L93.054269,91.6280144 L82.7175573,91.6280144 L82.7175573,50.8091603 Z M103.396947,71.3282443 L113.244275,71.3282443 L113.244275,61.5572519 L103.396947,61.5572519 L103.396947,71.3282443 Z M124.076336,82.0763359 L133.923664,82.0763359 L133.923664,61.5572519 L124.076336,61.5572519 L124.076336,82.0763359 Z M165.435115,71.3282443 L175.282443,71.3282443 L175.282443,61.5572519 L165.435115,61.5572519 L165.435115,71.3282443 Z M154.996159,71.3282443 L165.240531,71.3282443 L165.240531,91.7077426 L175.480965,91.7077426 L175.480965,101.897492 L185.71746,101.897492 L185.71746,122.27699 L195.961832,122.27699 L195.961832,132.470659 L175.480965,132.470659 L175.480965,112.087241 L165.240531,112.087241 L165.240531,132.470659 L175.480965,132.470659 L175.480965,142.656489 L144.755725,142.656489 L144.755725,132.470659 L154.996159,132.470659 L154.996159,112.087241 L144.755725,112.087241 L144.755725,101.897492 L154.996159,101.897492 L154.996159,71.3282443 Z M20.6793893,82.0763359 L51.2061069,82.0763359 L51.2061069,112.366412 L41.0318387,112.366412 L41.0318387,92.1704388 L20.6793893,92.1704388 L20.6793893,82.0763359 Z M62.0381679,91.8473282 L71.8854962,91.8473282 L71.8854962,82.0763359 L62.0381679,82.0763359 L62.0381679,91.8473282 Z M175.282443,82.0763359 L205.80916,82.0763359 L205.80916,112.366412 L195.636197,112.366412 L195.636197,92.1704388 L175.282443,92.1704388 L175.282443,82.0763359 Z M227.473282,82.0763359 L227.473282,92.2342595 L237.652769,92.2342595 L237.652769,112.557924 L247.824427,112.557924 L247.824427,132.885496 L258,132.885496 L258,102.392183 L247.824427,102.392183 L247.824427,92.2342595 L258,92.2342595 L258,82.0763359 L227.473282,82.0763359 Z M71.8854962,101.618321 L81.7328244,101.618321 L81.7328244,91.8473282 L71.8854962,91.8473282 L71.8854962,101.618321 Z M216.641221,112.366412 L226.48855,112.366412 L226.48855,91.8473282 L216.641221,91.8473282 L216.641221,112.366412 Z M9.84732824,112.366412 L19.6946565,112.366412 L19.6946565,102.59542 L9.84732824,102.59542 L9.84732824,112.366412 Z M62.0381679,112.366412 L71.8854962,112.366412 L71.8854962,102.59542 L62.0381679,102.59542 L62.0381679,112.366412 Z M124.076336,112.366412 L133.923664,112.366412 L133.923664,102.59542 L124.076336,102.59542 L124.076336,112.366412 Z M20.6793893,122.137405 L30.5267176,122.137405 L30.5267176,112.366412 L20.6793893,112.366412 L20.6793893,122.137405 Z M51.5356559,112.366412 L61.7125331,112.366412 L61.7125331,122.623982 L71.8854962,122.623982 L71.8854962,132.885496 L41.3587786,132.885496 L41.3587786,122.623982 L51.5356559,122.623982 L51.5356559,112.366412 Z M71.8854962,122.137405 L81.7328244,122.137405 L81.7328244,112.366412 L71.8854962,112.366412 L71.8854962,122.137405 Z M206.793893,112.366412 L206.793893,132.780855 L227.272397,132.780855 L227.272397,142.982188 L237.517557,142.982188 L237.517557,163.396631 L247.758779,163.396631 L247.758779,183.803223 L237.517557,183.803223 L237.517557,204.21374 L247.758779,204.21374 L247.758779,194.016332 L258,194.016332 L258,142.982188 L247.758779,142.982188 L247.758779,132.780855 L237.517557,132.780855 L237.517557,122.571671 L217.035115,122.571671 L217.035115,112.366412 L206.793893,112.366412 Z M123.28855,123.114504 L143.770992,123.114504 L143.770992,133.377005 L133.529771,133.377005 L133.529771,153.890171 L102.806107,153.890171 L102.806107,164.152672 L92.5648855,164.152672 L92.5648855,143.631615 L113.047328,143.631615 L113.047328,133.377005 L123.28855,133.377005 L123.28855,123.114504 Z M0,173.923664 L9.84732824,173.923664 L9.84732824,132.885496 L0,132.885496 L0,173.923664 Z M30.5267176,132.885496 L40.7048989,132.885496 L40.7048989,143.141092 L50.879167,143.141092 L50.879167,153.400634 L61.0534351,153.400634 L61.0534351,163.664122 L50.879167,163.664122 L50.879167,173.923664 L40.7048989,173.923664 L40.7048989,153.400634 L30.5267176,153.400634 L30.5267176,132.885496 Z M195.961832,142.656489 L205.80916,142.656489 L205.80916,132.885496 L195.961832,132.885496 L195.961832,142.656489 Z M62.0381679,153.40458 L71.8854962,153.40458 L71.8854962,143.633588 L62.0381679,143.633588 L62.0381679,153.40458 Z M175.282443,153.40458 L185.129771,153.40458 L185.129771,143.633588 L175.282443,143.633588 L175.282443,153.40458 Z M216.641221,153.40458 L226.48855,153.40458 L226.48855,143.633588 L216.641221,143.633588 L216.641221,153.40458 Z M20.6793893,173.923664 L30.5267176,173.923664 L30.5267176,153.40458 L20.6793893,153.40458 L20.6793893,173.923664 Z M72.3738858,153.40458 L82.7175573,153.40458 L82.7175573,173.923664 L62.0381679,173.923664 L62.0381679,163.67004 L72.3738858,163.67004 L72.3738858,153.40458 Z M133.923664,173.923664 L143.770992,173.923664 L143.770992,153.40458 L133.923664,153.40458 L133.923664,173.923664 Z M103.396947,173.923664 L113.244275,173.923664 L113.244275,164.152672 L103.396947,164.152672 L103.396947,173.923664 Z M82.7175573,183.694656 L92.5648855,183.694656 L92.5648855,173.923664 L82.7175573,173.923664 L82.7175573,183.694656 Z M175.613324,204.430874 L206.463012,204.430874 L206.463012,173.819023 L175.613324,173.819023 L175.613324,204.430874 Z M237.320611,184.020356 L237.320611,163.613764 L206.463012,163.613764 L206.463012,153.40458 L196.18242,153.40458 L196.18242,163.613764 L175.613324,163.613764 L175.613324,153.40458 L165.324821,153.40458 L165.324821,184.020356 L155.040273,184.020356 L155.040273,194.233465 L144.755725,194.233465 L144.755725,204.430874 L155.040273,204.430874 L155.040273,214.640057 L185.893916,214.640057 L185.893916,235.050575 L196.186375,235.050575 L196.186375,245.251908 L206.463012,245.251908 L206.463012,224.841391 L227.028152,224.841391 L227.028152,214.640057 L237.320611,214.640057 L237.320611,204.430874 L216.751515,204.430874 L216.751515,184.020356 L237.320611,184.020356 Z M103.396947,194.442748 L113.244275,194.442748 L113.244275,184.671756 L103.396947,184.671756 L103.396947,194.442748 Z M124.076336,184.671756 L144.755725,184.671756 L144.755725,194.93919 L134.416031,194.93919 L134.416031,205.19084 L124.076336,205.19084 L124.076336,184.671756 Z M186.114504,194.442748 L195.961832,194.442748 L195.961832,184.671756 L186.114504,184.671756 L186.114504,194.442748 Z M0,256 L71.8854962,256 L71.8854962,184.671756 L0,184.671756 L0,256 Z M10.2733064,245.806892 L61.6240391,245.806892 L61.6240391,194.868783 L10.2733064,194.868783 L10.2733064,245.806892 Z M20.6793893,235.480916 L51.2061069,235.480916 L51.2061069,205.19084 L20.6793893,205.19084 L20.6793893,235.480916 Z M82.7175573,205.19084 L103.396947,205.19084 L103.396947,215.294003 L93.0552631,215.294003 L93.0552631,235.480916 L82.7175573,235.480916 L82.7175573,205.19084 Z M113.244275,214.961832 L123.091603,214.961832 L123.091603,205.19084 L113.244275,205.19084 L113.244275,214.961832 Z M133.923664,205.19084 L144.267336,205.19084 L144.267336,215.294003 L154.603053,215.294003 L154.603053,225.377753 L144.267336,225.377753 L144.267336,235.480916 L133.923664,235.480916 L133.923664,205.19084 Z M103.396947,235.480916 L113.244275,235.480916 L113.244275,214.961832 L103.396947,214.961832 L103.396947,235.480916 Z M247.659311,214.961832 L247.659311,245.735525 L216.641221,245.735525 L216.641221,256 L258,256 L258,214.961832 L247.659311,214.961832 Z M154.603053,246.229008 L164.450382,246.229008 L164.450382,225.709924 L154.603053,225.709924 L154.603053,246.229008 Z M227.473282,235.480916 L237.320611,235.480916 L237.320611,225.709924 L227.473282,225.709924 L227.473282,235.480916 Z M175.282443,245.251908 L185.129771,245.251908 L185.129771,235.480916 L175.282443,235.480916 L175.282443,245.251908 Z M103.396947,256 L133.923664,256 L133.923664,246.229008 L103.396947,246.229008 L103.396947,256 Z M144.755725,256 L154.603053,256 L154.603053,246.229008 L144.755725,246.229008 L144.755725,256 Z M165.435115,256 L175.282443,256 L175.282443,246.229008 L165.435115,246.229008 L165.435115,256 Z"></path>
                </g>
            </g>
        </g>
    </g>
</svg>