<svg xmlns="http://www.w3.org/2000/svg" xmlns:xlink="http://www.w3.org/1999/xlink" viewBox="0 0 225.32 52.06"><defs><style>.cls-1{isolation:isolate;}.cls-2{fill:#6562dd;}.cls-3{fill:url(#Безымянный_градиент_171);}.cls-4{fill:url(#Безымянный_градиент_108);}.cls-5{fill:url(#Безымянный_градиент_108-2);}.cls-6{fill:url(#Ѕезым_нный_градиент_12);}.cls-10,.cls-16,.cls-18,.cls-7{mix-blend-mode:screen;}.cls-7{fill:url(#Ѕезым_нный_градиент_18);}.cls-8{fill:#eefdff;}.cls-9{fill:url(#Ѕезым_нный_градиент_12-2);}.cls-10{fill:url(#Ѕезым_нный_градиент_18-2);}.cls-11{fill:url(#Ѕезым_нный_градиент_12-3);}.cls-12{fill:url(#Безымянный_градиент_151);}.cls-13,.cls-14{fill:#fff;}.cls-13{opacity:0.8;}.cls-14{opacity:0.6;}.cls-15{fill:url(#Безымянный_градиент_80);}.cls-16{fill:url(#Безымянный_градиент_175);}.cls-17{fill:url(#Безымянный_градиент_80-2);}.cls-18{fill:url(#Безымянный_градиент_175-2);}.cls-19{fill:url(#Безымянный_градиент_80-3);}.cls-20{fill:url(#Безымянный_градиент_80-4);}</style><linearGradient id="Безымянный_градиент_171" x1="157.72" y1="7.61" x2="158.89" y2="7.61" gradientUnits="userSpaceOnUse"><stop offset="0" stop-color="#7d6bff"/><stop offset="0.58" stop-color="#b788d8"/><stop offset="0.8" stop-color="#b686d9"/><stop offset="0.87" stop-color="#b27fdd"/><stop offset="0.93" stop-color="#ab74e5"/><stop offset="0.97" stop-color="#a263ef"/><stop offset="1" stop-color="#9954f8"/></linearGradient><linearGradient id="Безымянный_градиент_108" x1="153.93" y1="19.65" x2="162.03" y2="10.51" gradientUnits="userSpaceOnUse"><stop offset="0" stop-color="#736cfa"/><stop offset="0.75" stop-color="#9750fa"/><stop offset="1" stop-color="#b788d8"/></linearGradient><linearGradient id="Безымянный_градиент_108-2" x1="142.37" y1="46.94" x2="174.79" y2="22.43" xlink:href="#Безымянный_градиент_108"/><linearGradient id="Ѕезым_нный_градиент_12" x1="158.11" y1="39.33" x2="158.4" y2="26.49" gradientUnits="userSpaceOnUse"><stop offset="0" stop-color="#030d14"/><stop offset="1" stop-color="#0b2f45"/></linearGradient><radialGradient id="Ѕезым_нный_градиент_18" cx="150.66" cy="32.81" r="5.34" gradientUnits="userSpaceOnUse"><stop offset="0.13" stop-color="#3280fc"/><stop offset="1"/></radialGradient><linearGradient id="Ѕезым_нный_градиент_12-2" x1="147.41" y1="32.81" x2="153.91" y2="32.81" xlink:href="#Ѕезым_нный_градиент_12"/><radialGradient id="Ѕезым_нный_градиент_18-2" cx="165.23" cy="32.81" r="5.34" xlink:href="#Ѕезым_нный_градиент_18"/><linearGradient id="Ѕезым_нный_градиент_12-3" x1="161.98" y1="32.81" x2="168.48" y2="32.81" xlink:href="#Ѕезым_нный_градиент_12"/><radialGradient id="Безымянный_градиент_151" cx="159.06" cy="1.12" r="2.39" gradientUnits="userSpaceOnUse"><stop offset="0" stop-color="#b788d8"/><stop offset="0.25" stop-color="#9750fa"/><stop offset="1" stop-color="#736cfa"/></radialGradient><linearGradient id="Безымянный_градиент_80" x1="158.11" y1="39.33" x2="158.4" y2="26.49" gradientUnits="userSpaceOnUse"><stop offset="0" stop-color="#070d14"/><stop offset="1" stop-color="#131755"/></linearGradient><radialGradient id="Безымянный_градиент_175" cx="150.66" cy="32.81" r="5.34" gradientUnits="userSpaceOnUse"><stop offset="0.13" stop-color="#f459ff"/><stop offset="1"/></radialGradient><linearGradient id="Безымянный_градиент_80-2" x1="147.41" y1="32.81" x2="153.91" y2="32.81" xlink:href="#Безымянный_градиент_80"/><radialGradient id="Безымянный_градиент_175-2" cx="165.23" cy="32.81" r="5.34" xlink:href="#Безымянный_градиент_175"/><linearGradient id="Безымянный_градиент_80-3" x1="161.98" y1="32.81" x2="168.48" y2="32.81" xlink:href="#Безымянный_градиент_80"/><linearGradient id="Безымянный_градиент_80-4" x1="154.01" y1="45.11" x2="163.29" y2="45.11" xlink:href="#Безымянный_градиент_80"/></defs><title>Ресурс 4</title><g class="cls-1"><g id="Слой_2" data-name="Слой 2"><g id="_лой_5" data-name="—лой_5"><path class="cls-2" d="M35.91,14.07v20.5a19.6,19.6,0,0,1-1.14,6.67,15.53,15.53,0,0,1-3.45,5.59,16.39,16.39,0,0,1-5.79,3.82,21.93,21.93,0,0,1-8.24,1.41,18.88,18.88,0,0,1-10.66-3A17.55,17.55,0,0,1,0,40.87l8.51-4a8.71,8.71,0,0,0,3.38,4.66,9.31,9.31,0,0,0,5.46,1.71,11,11,0,0,0,4.19-.71,7,7,0,0,0,2.75-1.93,7.7,7.7,0,0,0,1.5-2.95,13.85,13.85,0,0,0,.47-3.77V14.07Z"/><path class="cls-2" d="M83.48,32.63a18.22,18.22,0,0,1-1.71,7.94,19.06,19.06,0,0,1-4.55,6.13,20.49,20.49,0,0,1-6.62,3.95,23,23,0,0,1-15.85,0,20.49,20.49,0,0,1-6.62-3.95,19.21,19.21,0,0,1-4.55-6.13,18.22,18.22,0,0,1-1.71-7.94,18.22,18.22,0,0,1,1.71-7.94,19.21,19.21,0,0,1,4.55-6.13,20.31,20.31,0,0,1,6.62-3.95,23,23,0,0,1,15.85,0,20.31,20.31,0,0,1,6.62,3.95,19.06,19.06,0,0,1,4.55,6.13A18.22,18.22,0,0,1,83.48,32.63Zm-31.76,0a12,12,0,0,0,.84,4.59A10.07,10.07,0,0,0,54.9,40.7a10.52,10.52,0,0,0,3.49,2.21,12.42,12.42,0,0,0,8.61,0,10,10,0,0,0,3.48-2.21,10.29,10.29,0,0,0,2.31-3.48,12,12,0,0,0,.84-4.59A12,12,0,0,0,72.79,28a10.29,10.29,0,0,0-2.31-3.48A10.16,10.16,0,0,0,67,22.34a12.42,12.42,0,0,0-8.61,0,10.71,10.71,0,0,0-3.49,2.22A10.07,10.07,0,0,0,52.56,28,12,12,0,0,0,51.72,32.63Z"/><path class="cls-2" d="M113.56,14.07a14.16,14.16,0,0,1,4.62.74,11.05,11.05,0,0,1,3.69,2.07,9.57,9.57,0,0,1,2.41,3.22,9.92,9.92,0,0,1,.87,4.22,8.87,8.87,0,0,1-.63,3.32,5.55,5.55,0,0,1-2,2.51,10.44,10.44,0,0,1,3.75,3.59,10.83,10.83,0,0,1,1.34,5.72,11.18,11.18,0,0,1-.94,4.56,11.3,11.3,0,0,1-2.58,3.72,12.14,12.14,0,0,1-3.85,2.48,12.49,12.49,0,0,1-4.76.9h-26v-37Zm-14.2,13.8H113.5a1.78,1.78,0,0,0,1.37-.77,2.62,2.62,0,0,0,.63-1.71,3.18,3.18,0,0,0-.5-1.6,1.94,1.94,0,0,0-1.84-.88H99.36Zm0,14.41h15.88a2.74,2.74,0,0,0,1.94-.75,2.69,2.69,0,0,0,.8-2.1,2.88,2.88,0,0,0-3-3H99.36Z"/><path class="cls-2" d="M225.32,14.07v8.84H210.91V51.12h-9.85V22.91h-14.4V14.07Z"/><rect class="cls-3" x="157.44" y="2.62" width="1.52" height="9.99"/><rect class="cls-4" x="151.54" y="11.55" width="13.31" height="6.56" rx="1.4"/><path class="cls-5" d="M153.92,14.69h8.56A19.54,19.54,0,0,1,182,34.24v5.71a11,11,0,0,1-11,11H145.36a11,11,0,0,1-11-11V34.24a19.54,19.54,0,0,1,19.54-19.54Z"/><path class="cls-6" d="M174.53,38.9h0a4.62,4.62,0,0,1-2,.47H143.9a4.55,4.55,0,0,1-2-.47h0a3.75,3.75,0,0,1-2.18-3.85l0-.12c.73-5.31,5.54-9.39,11.43-9.7q3.75-.19,7.85-.18c2.14,0,4.21.08,6.2.18,5.92.3,10.76,4.37,11.5,9.7v.12A3.75,3.75,0,0,1,174.53,38.9Z"/><circle class="cls-7" cx="150.66" cy="32.81" r="5.39"/><circle class="cls-8" cx="150.66" cy="32.81" r="3.87"/><circle class="cls-9" cx="150.66" cy="32.81" r="3.25"/><path class="cls-8" d="M152.74,32a1.2,1.2,0,1,1-1.2-1.21A1.2,1.2,0,0,1,152.74,32Z"/><circle class="cls-8" cx="150.18" cy="35.3" r="0.48"/><path class="cls-8" d="M149,34.58a.24.24,0,1,1-.24-.24A.24.24,0,0,1,149,34.58Z"/><circle class="cls-10" cx="165.23" cy="32.81" r="5.39"/><circle class="cls-8" cx="165.23" cy="32.81" r="3.87"/><circle class="cls-11" cx="165.23" cy="32.81" r="3.25"/><path class="cls-8" d="M167.31,32a1.21,1.21,0,1,1-1.21-1.21A1.21,1.21,0,0,1,167.31,32Z"/><circle class="cls-8" cx="164.75" cy="35.3" r="0.48"/><path class="cls-8" d="M163.55,34.58a.24.24,0,0,1-.24.24.24.24,0,0,1,0-.48A.24.24,0,0,1,163.55,34.58Z"/><path class="cls-12" d="M160.15,2a2,2,0,1,1-2-1.95A2,2,0,0,1,160.15,2Z"/><path class="cls-13" d="M159.55,1.19a.58.58,0,0,1-.59.59.59.59,0,0,1-.6-.59.6.6,0,0,1,.6-.6A.59.59,0,0,1,159.55,1.19Z"/><path class="cls-14" d="M175,20.94a2.14,2.14,0,0,1-1.56,2.1c-.8.08-1.44-.73-2.1-1.57s-2.06-3-1.5-3.56C170.57,17.11,174.92,18.8,175,20.94Z"/><circle class="cls-14" cx="167.7" cy="16.8" r="0.68"/><path class="cls-14" d="M174.89,33.57c-.22.15-1.74-2.93-5.8-5.61-1.43-.94-2.85-1.61-2.76-1.81s1.67.17,2.95.76C173.33,28.79,175.15,33.39,174.89,33.57Z"/><path class="cls-14" d="M164.47,13.5c-.05,0-.08-.28-.32-.72a3.08,3.08,0,0,0-.24-.38c-.4-.56-1.79-.55-1.9-.55-2.15,0-3.54-.12-3.54-.11s1,0,1.75,0c2.09,0,3.34-.15,3.87.41a1.88,1.88,0,0,1,.34.53A1.12,1.12,0,0,1,164.47,13.5Z"/><path class="cls-15" d="M174.53,38.9h0a4.62,4.62,0,0,1-2,.47H143.9a4.55,4.55,0,0,1-2-.47h0a3.75,3.75,0,0,1-2.18-3.85l0-.12c.73-5.31,5.54-9.39,11.43-9.7q3.75-.19,7.85-.18c2.14,0,4.21.08,6.2.18,5.92.3,10.76,4.37,11.5,9.7v.12A3.75,3.75,0,0,1,174.53,38.9Z"/><circle class="cls-16" cx="150.66" cy="32.81" r="5.39"/><circle class="cls-8" cx="150.66" cy="32.81" r="3.87"/><circle class="cls-17" cx="150.66" cy="32.81" r="3.25"/><path class="cls-8" d="M152.74,32a1.2,1.2,0,1,1-1.2-1.21A1.2,1.2,0,0,1,152.74,32Z"/><circle class="cls-8" cx="150.18" cy="35.3" r="0.48"/><path class="cls-8" d="M149,34.58a.24.24,0,1,1-.24-.24A.24.24,0,0,1,149,34.58Z"/><circle class="cls-18" cx="165.23" cy="32.81" r="5.39"/><circle class="cls-8" cx="165.23" cy="32.81" r="3.87"/><circle class="cls-19" cx="165.23" cy="32.81" r="3.25"/><path class="cls-8" d="M167.31,32a1.21,1.21,0,1,1-1.21-1.21A1.21,1.21,0,0,1,167.31,32Z"/><circle class="cls-8" cx="164.75" cy="35.3" r="0.48"/><path class="cls-8" d="M163.55,34.58a.24.24,0,0,1-.24.24.24.24,0,0,1,0-.48A.24.24,0,0,1,163.55,34.58Z"/><path class="cls-14" d="M174.89,33.57c-.22.15-1.74-2.93-5.8-5.61-1.43-.94-2.85-1.61-2.76-1.81s1.67.17,2.95.76C173.33,28.79,175.15,33.39,174.89,33.57Z"/><path class="cls-8" d="M163.29,43a1.1,1.1,0,0,1-1,1l-7.14.69a1.1,1.1,0,0,1-1.17-.76,5.15,5.15,0,0,1-.15-.68.23.23,0,0,1,0-.18.19.19,0,0,1,.16-.09l9-.87a.23.23,0,0,1,.18.05.25.25,0,0,1,.08.17A5.4,5.4,0,0,1,163.29,43Z"/><path class="cls-20" d="M163.29,43A4.77,4.77,0,0,1,154,44a1.11,1.11,0,0,0,1.14.66l7.14-.68A1.1,1.1,0,0,0,163.29,43Z"/></g></g></g></svg>