<?xml version="1.0" encoding="UTF-8"?>
<svg width="714px" height="630px" viewBox="0 0 714 630" version="1.1" xmlns="http://www.w3.org/2000/svg" xmlns:xlink="http://www.w3.org/1999/xlink">
    <!-- Generator: Sketch 52.2 (67145) - http://www.bohemiancoding.com/sketch -->
    <title>astronaut_astronomy_robot_science_space_icon_128</title>
    <desc>Created with Sketch.</desc>
    <g id="Page-1" stroke="none" stroke-width="1" fill="none" fill-rule="evenodd">
        <g id="astronaut_astronomy_robot_science_space_icon_128" fill="#000000">
            <path d="M632.898,322.053 L632.898,313.845 C632.898,249.033 580.169,196.306 515.361,196.306 L375.936,196.306 L375.936,146.085 C407.57,137.697 430.954,108.833 430.954,74.602 C430.954,33.821 397.781,0.649 357.002,0.649 C316.224,0.649 283.046,33.821 283.046,74.602 C283.046,108.833 306.432,137.698 338.063,146.085 L338.063,196.306 L198.639,196.306 C133.828,196.306 81.1,249.034 81.1,313.845 L81.1,322.053 C35.2,330.924 0.425,371.404 0.425,419.85 C0.425,468.359 35.274,508.864 81.244,517.681 C84.311,579.774 135.794,629.352 198.639,629.352 L515.362,629.352 C578.205,629.352 629.685,579.774 632.754,517.681 C678.725,508.864 713.576,468.359 713.576,419.85 C713.575,371.402 678.801,330.924 632.898,322.053 Z M81.1,478.604 C56.297,470.591 38.303,447.289 38.303,419.849 C38.303,392.415 56.297,369.114 81.1,361.099 L81.1,478.604 Z M320.922,74.602 C320.922,54.709 337.105,38.524 357,38.524 C376.893,38.524 393.078,54.71 393.078,74.602 C393.078,94.494 376.893,110.68 357,110.68 C337.105,110.68 320.922,94.493 320.922,74.602 Z M595.026,511.813 C595.025,555.74 559.286,591.474 515.361,591.474 L198.639,591.474 C154.711,591.474 118.975,555.74 118.975,511.813 L118.975,313.845 C118.975,269.92 154.711,234.184 198.639,234.184 L515.362,234.184 C559.287,234.184 595.026,269.92 595.026,313.845 L595.026,511.813 Z M632.898,478.604 L632.898,361.1 C657.7,369.115 675.697,392.416 675.697,419.85 C675.697,447.288 657.7,470.592 632.898,478.604 Z" id="Shape" fill-rule="nonzero"></path>
            <path d="M495.119,315.611 C464.313,315.611 439.254,340.674 439.254,371.476 C439.254,402.282 464.315,427.342 495.119,427.342 C525.923,427.342 550.986,402.28 550.986,371.476 C550.986,340.675 525.923,315.611 495.119,315.611 Z M495.119,389.466 C485.199,389.466 477.129,381.401 477.129,371.478 C477.129,361.558 485.199,353.485 495.119,353.485 C505.04,353.485 513.111,361.558 513.111,371.478 C513.111,381.399 505.04,389.466 495.119,389.466 Z" id="Shape" fill-rule="nonzero"></path>
            <path d="M218.881,315.611 C188.074,315.611 163.015,340.674 163.015,371.476 C163.015,402.282 188.075,427.342 218.881,427.342 C249.684,427.342 274.747,402.28 274.747,371.476 C274.747,340.675 249.684,315.611 218.881,315.611 Z M218.881,389.466 C208.961,389.466 200.89,381.401 200.89,371.478 C200.89,361.558 208.961,353.485 218.881,353.485 C228.8,353.485 236.872,361.558 236.872,371.478 C236.872,381.399 228.8,389.466 218.881,389.466 Z" id="Shape" fill-rule="nonzero"></path>
            <path d="M408.604,486.221 L305.395,486.221 C294.935,486.221 286.456,494.7 286.456,505.155 C286.456,515.616 294.935,524.093 305.395,524.093 L408.606,524.093 C419.063,524.093 427.543,515.614 427.543,505.155 C427.542,494.698 419.063,486.221 408.604,486.221 Z" id="Path"></path>
        </g>
    </g>
</svg>