<?xml version="1.0" encoding="UTF-8"?>
<svg width="1404px" height="950px" viewBox="0 0 1404 950" version="1.1" xmlns="http://www.w3.org/2000/svg" xmlns:xlink="http://www.w3.org/1999/xlink">
    <!-- Generator: Sketch 53.1 (72631) - https://sketchapp.com -->
    <title>bg-header-right</title>
    <desc>Created with Sketch.</desc>
    <defs>
        <rect id="path-1" x="0" y="0" width="1408" height="967"></rect>
        <linearGradient x1="50%" y1="0%" x2="50%" y2="100%" id="linearGradient-3">
            <stop stop-color="#6B73FF" offset="0%"></stop>
            <stop stop-color="#9B4EFE" offset="100%"></stop>
        </linearGradient>
        <linearGradient x1="50%" y1="0%" x2="50%" y2="100%" id="linearGradient-4">
            <stop stop-color="#6B73FF" offset="0%"></stop>
            <stop stop-color="#9B4EFE" offset="100%"></stop>
        </linearGradient>
        <linearGradient x1="50%" y1="0%" x2="50%" y2="100%" id="linearGradient-5">
            <stop stop-color="#6B73FF" offset="0%"></stop>
            <stop stop-color="#9B4EFE" offset="100%"></stop>
        </linearGradient>
    </defs>
    <g id="Page-1" stroke="none" stroke-width="1" fill="none" fill-rule="evenodd">
        <g id="bg-header-right" transform="translate(-4.000000, 0.000000)">
            <g id="Mask_Group_2">
                <mask id="mask-2" fill="white">
                    <use xlink:href="#path-1"></use>
                </mask>
                <g id="Rectangle_297"></g>
                <g id="Group_228" mask="url(#mask-2)" fill-rule="nonzero">
                    <g transform="translate(-84.767000, -740.137000)">
                        <path d="M2057.02041,1208.67074 L2064.14664,1215.10699 L1492.9955,1663.66102 C1492.9955,1663.66102 1463.18609,1550.07847 1211.06679,1540.92527 C1074.22072,1535.95812 1041.72799,1414.42325 1001.02907,1285.4756 C966.750955,1176.85896 926.652558,1062.98454 813.453213,1009.1045 C565.883084,891.263819 421.471791,933.564068 256.192157,816.018343 C90.9125234,698.472619 0.852656032,747.557619 0.852656032,747.557619 L455.887796,401.932344 L433.013459,381.273602 L917.654081,0.661018541 C917.654081,0.661018541 956.200092,109.019542 1190.18339,134.889944 C1317.19123,148.939751 1358.98782,264.912645 1409.08659,388.386039 C1451.29187,492.396879 1499.38671,601.72775 1609.25571,659.925582 C1849.55346,787.21571 1978.9727,757.538549 2143.15878,878.900131 C2307.34487,1000.26171 2385.85266,960.499533 2385.85266,960.499533 L2057.02041,1208.67074 Z" id="Union_3" fill="url(#linearGradient-3)"></path>
                        <path d="M2061.64443,1261.73294 L2068.31372,1268.43006 L1516.33593,1708.66102 C1516.33593,1708.66102 1452.0315,1574.52028 1202.68499,1554.45053 C1067.34529,1543.55471 1042.60441,1421.5678 1010.19786,1291.88298 C982.894128,1182.63898 950.1505,1067.924 841.261036,1009.53437 C603.102055,881.833088 457.355655,917.498656 300.751529,793.683106 C144.147402,669.867556 51.852656,714.632209 51.852656,714.632209 L524.145388,391.599873 L502.745072,370.112242 L1006.54185,13.6610185 C1006.54185,13.6610185 1038.09051,122.833261 1268.42967,158.702651 C1393.45264,178.17217 1427.75944,295.050891 1469.83049,419.726748 C1505.27,524.74948 1546.22472,635.302674 1651.54836,697.830829 C1881.9123,834.585699 2012.02274,810.78672 2167.30645,938.341088 C2322.59017,1065.89546 2402.85266,1029.88088 2402.85266,1029.88088 L2061.64443,1261.73294 Z" id="Union_4" fill="url(#linearGradient-4)" opacity="0.5"></path>
                        <path d="M2061.64443,1275.99662 L2068.31372,1282.68978 L1516.33593,1722.66102 C1516.33593,1722.66102 1452.0315,1588.59942 1202.68499,1568.54151 C1067.34529,1557.65211 1042.60441,1435.73718 1010.19786,1306.12887 C982.894128,1196.94932 950.1505,1082.30201 841.261036,1023.94683 C603.102055,896.320892 457.355655,931.965419 300.751529,808.222916 C144.147402,684.480413 51.852656,729.218657 51.852656,729.218657 L524.145388,406.376901 L502.745072,384.901946 L1006.54185,28.6610185 C1006.54185,28.6610185 1038.09051,137.768852 1268.42967,173.617081 C1393.45264,193.075113 1427.75944,309.884879 1469.83049,434.487182 C1505.27,539.447953 1546.22472,649.935923 1651.54836,712.427189 C1881.9123,849.101378 2012.02274,825.316439 2167.30645,952.795554 C2322.59017,1080.27467 2402.85266,1044.28134 2402.85266,1044.28134 L2061.64443,1275.99662 Z" id="Union_5" fill="url(#linearGradient-5)" opacity="0.5"></path>
                    </g>
                </g>
            </g>
        </g>
    </g>
</svg>