<?xml version="1.0" encoding="UTF-8"?>
<svg width="394px" height="486px" viewBox="0 0 394 486" version="1.1" xmlns="http://www.w3.org/2000/svg" xmlns:xlink="http://www.w3.org/1999/xlink">
    <!-- Generator: Sketch 53.1 (72631) - https://sketchapp.com -->
    <title>iconfinder_construction-industry-building-50_4137143</title>
    <desc>Created with Sketch.</desc>
    <g id="Page-1" stroke="none" stroke-width="1" fill="none" fill-rule="evenodd">
        <g id="iconfinder_construction-industry-building-50_4137143" fill-rule="nonzero">
            <path d="M68.39,102.13 C66.54,102.13 64.74,101.38 63.44,100.08 C62.13,98.77 61.38,96.97 61.38,95.13 C61.38,94.67 61.43,94.21 61.52,93.76 C61.61,93.31 61.75,92.87 61.92,92.45 C62.1,92.03 62.31,91.62 62.57,91.24 C62.82,90.86 63.11,90.5 63.44,90.18 C63.76,89.86 64.12,89.56 64.5,89.31 C64.88,89.06 65.29,88.84 65.71,88.66 C66.13,88.49 66.57,88.36 67.02,88.27 C67.92,88.08 68.85,88.08 69.75,88.27 C70.2,88.36 70.64,88.49 71.06,88.66 C71.48,88.84 71.89,89.06 72.27,89.31 C72.65,89.56 73.01,89.86 73.33,90.18 C73.66,90.5 73.95,90.86 74.2,91.24 C74.46,91.62 74.67,92.03 74.85,92.45 C75.02,92.87 75.16,93.31 75.25,93.76 C75.34,94.21 75.38,94.67 75.38,95.13 C75.38,96.97 74.64,98.77 73.33,100.08 C73.01,100.4 72.65,100.69 72.27,100.95 C71.89,101.2 71.48,101.42 71.06,101.59 C70.64,101.77 70.2,101.9 69.75,101.99 C69.3,102.08 68.84,102.13 68.39,102.13 Z" id="Path" fill="#1B3954"></path>
            <path d="M386.33,485.5 L173.83,485.5 C169.96,485.5 166.83,482.37 166.83,478.5 L166.83,165.93 L68.38,165.93 C64.51,165.93 61.38,162.8 61.38,158.93 L61.38,126.83 C61.38,122.96 64.51,119.83 68.38,119.83 C72.25,119.83 75.38,122.96 75.38,126.83 L75.38,151.93 L173.83,151.93 C177.7,151.93 180.83,155.06 180.83,158.93 L180.83,471.5 L379.32,471.5 L379.32,389.02 C379.32,385.15 382.45,382.02 386.32,382.02 C390.19,382.02 393.32,385.15 393.32,389.02 L393.32,478.5 C393.33,482.37 390.19,485.5 386.33,485.5 Z" id="Path" fill="#1B3954"></path>
            <path d="M386.33,373.98 C385.87,373.98 385.41,373.93 384.96,373.84 C384.51,373.75 384.07,373.62 383.65,373.44 C383.23,373.27 382.82,373.05 382.44,372.8 C382.06,372.54 381.7,372.25 381.38,371.93 C381.05,371.61 380.76,371.25 380.51,370.86 C380.25,370.48 380.04,370.08 379.86,369.66 C379.69,369.23 379.55,368.79 379.46,368.35 C379.37,367.9 379.33,367.44 379.33,366.98 C379.33,366.52 379.37,366.06 379.46,365.61 C379.55,365.16 379.69,364.72 379.86,364.3 C380.04,363.88 380.25,363.47 380.51,363.09 C380.76,362.71 381.05,362.35 381.38,362.03 C381.7,361.7 382.06,361.41 382.44,361.16 C382.82,360.91 383.23,360.69 383.65,360.51 C384.07,360.34 384.51,360.2 384.96,360.11 C385.86,359.93 386.79,359.93 387.69,360.11 C388.14,360.2 388.58,360.34 389,360.51 C389.42,360.69 389.83,360.91 390.21,361.16 C390.59,361.41 390.95,361.7 391.27,362.03 C391.6,362.35 391.89,362.71 392.14,363.09 C392.4,363.47 392.61,363.88 392.79,364.3 C392.96,364.72 393.1,365.16 393.19,365.61 C393.28,366.06 393.32,366.52 393.32,366.98 C393.32,367.44 393.28,367.9 393.19,368.35 C393.1,368.79 392.96,369.23 392.79,369.66 C392.61,370.08 392.4,370.48 392.14,370.86 C391.89,371.25 391.6,371.61 391.27,371.93 C390.95,372.25 390.59,372.54 390.21,372.8 C389.83,373.05 389.42,373.27 389,373.44 C388.58,373.62 388.14,373.75 387.69,373.84 C387.24,373.93 386.78,373.98 386.33,373.98 Z" id="Path" fill="#1B3954"></path>
            <path d="M386.33,347.17 C382.46,347.17 379.33,344.04 379.33,340.17 L379.33,14.5 L75.38,14.5 L75.38,73.28 C75.38,77.15 72.25,80.28 68.38,80.28 C64.51,80.28 61.38,77.15 61.38,73.28 L61.38,7.5 C61.38,3.63 64.51,0.5 68.38,0.5 L386.32,0.5 C390.19,0.5 393.32,3.63 393.32,7.5 L393.32,340.17 C393.33,344.04 390.19,347.17 386.33,347.17 Z" id="Path" fill="#1B3954"></path>
            <g id="Group" transform="translate(36.000000, 206.000000)" fill="#5E57A7">
                <path d="M37.01,44.14 L7.39,44.14 C3.52,44.14 0.39,41.01 0.39,37.14 L0.39,7.52 C0.39,3.65 3.52,0.52 7.39,0.52 L37.01,0.52 C40.88,0.52 44.01,3.65 44.01,7.52 L44.01,37.14 C44.01,41.01 40.88,44.14 37.01,44.14 Z M14.39,30.14 L30.01,30.14 L30.01,14.52 L14.39,14.52 L14.39,30.14 Z" id="Shape"></path>
                <path d="M102.12,44.14 L72.5,44.14 C68.63,44.14 65.5,41.01 65.5,37.14 L65.5,7.52 C65.5,3.65 68.63,0.52 72.5,0.52 L102.12,0.52 C105.99,0.52 109.12,3.65 109.12,7.52 L109.12,37.14 C109.12,41.01 105.98,44.14 102.12,44.14 Z M79.5,30.14 L95.12,30.14 L95.12,14.52 L79.5,14.52 L79.5,30.14 Z" id="Shape"></path>
                <path d="M37.01,104.4 L7.39,104.4 C3.52,104.4 0.39,101.27 0.39,97.4 L0.39,67.78 C0.39,63.91 3.52,60.78 7.39,60.78 L37.01,60.78 C40.88,60.78 44.01,63.91 44.01,67.78 L44.01,97.4 C44.01,101.26 40.88,104.4 37.01,104.4 Z M14.39,90.4 L30.01,90.4 L30.01,74.78 L14.39,74.78 L14.39,90.4 Z" id="Shape"></path>
                <path d="M102.12,104.4 L72.5,104.4 C68.63,104.4 65.5,101.27 65.5,97.4 L65.5,67.78 C65.5,63.91 68.63,60.78 72.5,60.78 L102.12,60.78 C105.99,60.78 109.12,63.91 109.12,67.78 L109.12,97.4 C109.12,101.26 105.98,104.4 102.12,104.4 Z M79.5,90.4 L95.12,90.4 L95.12,74.78 L79.5,74.78 L79.5,90.4 Z" id="Shape"></path>
                <path d="M37.01,164.65 L7.39,164.65 C3.52,164.65 0.39,161.52 0.39,157.65 L0.39,128.03 C0.39,124.16 3.52,121.03 7.39,121.03 L37.01,121.03 C40.88,121.03 44.01,124.16 44.01,128.03 L44.01,157.65 C44.01,161.52 40.88,164.65 37.01,164.65 Z M14.39,150.65 L30.01,150.65 L30.01,135.03 L14.39,135.03 L14.39,150.65 Z" id="Shape"></path>
                <path d="M102.12,164.65 L72.5,164.65 C68.63,164.65 65.5,161.52 65.5,157.65 L65.5,128.03 C65.5,124.16 68.63,121.03 72.5,121.03 L102.12,121.03 C105.99,121.03 109.12,124.16 109.12,128.03 L109.12,157.65 C109.12,161.52 105.98,164.65 102.12,164.65 Z M79.5,150.65 L95.12,150.65 L95.12,135.03 L79.5,135.03 L79.5,150.65 Z" id="Shape"></path>
                <path d="M37.01,224.91 L7.39,224.91 C3.52,224.91 0.39,221.78 0.39,217.91 L0.39,188.29 C0.39,184.42 3.52,181.29 7.39,181.29 L37.01,181.29 C40.88,181.29 44.01,184.42 44.01,188.29 L44.01,217.91 C44.01,221.77 40.88,224.91 37.01,224.91 Z M14.39,210.91 L30.01,210.91 L30.01,195.29 L14.39,195.29 L14.39,210.91 Z" id="Shape"></path>
                <path d="M102.12,224.91 L72.5,224.91 C68.63,224.91 65.5,221.78 65.5,217.91 L65.5,188.29 C65.5,184.42 68.63,181.29 72.5,181.29 L102.12,181.29 C105.99,181.29 109.12,184.42 109.12,188.29 L109.12,217.91 C109.12,221.77 105.98,224.91 102.12,224.91 Z M79.5,210.91 L95.12,210.91 L95.12,195.29 L79.5,195.29 L79.5,210.91 Z" id="Shape"></path>
            </g>
            <g id="Group" transform="translate(213.000000, 272.000000)" fill="#1B3954">
                <path d="M36.11,43.1 L7.51,43.1 C3.64,43.1 0.51,39.97 0.51,36.1 L0.51,7.5 C0.51,3.63 3.64,0.5 7.51,0.5 L36.11,0.5 C39.98,0.5 43.11,3.63 43.11,7.5 L43.11,36.1 C43.11,39.97 39.97,43.1 36.11,43.1 Z M14.51,29.1 L29.11,29.1 L29.11,14.5 L14.51,14.5 L14.51,29.1 Z" id="Shape"></path>
                <path d="M36.11,108.8 L7.51,108.8 C3.64,108.8 0.51,105.67 0.51,101.8 L0.51,73.2 C0.51,69.33 3.64,66.2 7.51,66.2 L36.11,66.2 C39.98,66.2 43.11,69.33 43.11,73.2 L43.11,101.8 C43.11,105.67 39.97,108.8 36.11,108.8 Z M14.51,94.8 L29.11,94.8 L29.11,80.2 L14.51,80.2 L14.51,94.8 Z" id="Shape"></path>
                <path d="M36.11,174.5 L7.51,174.5 C3.64,174.5 0.51,171.37 0.51,167.5 L0.51,138.9 C0.51,135.03 3.64,131.9 7.51,131.9 L36.11,131.9 C39.98,131.9 43.11,135.03 43.11,138.9 L43.11,167.5 C43.11,171.36 39.97,174.5 36.11,174.5 Z M14.51,160.5 L29.11,160.5 L29.11,145.9 L14.51,145.9 L14.51,160.5 Z" id="Shape"></path>
            </g>
            <path d="M138.85,72.19 L109.32,72.19 C105.45,72.19 102.32,69.06 102.32,65.19 L102.32,35.66 C102.32,31.79 105.45,28.66 109.32,28.66 L138.85,28.66 C142.72,28.66 145.85,31.79 145.85,35.66 L145.85,65.19 C145.85,69.06 142.72,72.19 138.85,72.19 Z M116.32,58.19 L131.85,58.19 L131.85,42.66 L116.32,42.66 L116.32,58.19 Z" id="Shape" fill="#5E57A7"></path>
            <path d="M209.12,72.19 L179.59,72.19 C175.72,72.19 172.59,69.06 172.59,65.19 L172.59,35.66 C172.59,31.79 175.72,28.66 179.59,28.66 L209.12,28.66 C212.99,28.66 216.12,31.79 216.12,35.66 L216.12,65.19 C216.12,69.06 212.99,72.19 209.12,72.19 Z M186.59,58.19 L202.12,58.19 L202.12,42.66 L186.59,42.66 L186.59,58.19 Z" id="Shape" fill="#5E57A7"></path>
            <path d="M279.38,72.19 L249.85,72.19 C245.98,72.19 242.85,69.06 242.85,65.19 L242.85,35.66 C242.85,31.79 245.98,28.66 249.85,28.66 L279.38,28.66 C283.25,28.66 286.38,31.79 286.38,35.66 L286.38,65.19 C286.38,69.06 283.25,72.19 279.38,72.19 Z M256.85,58.19 L272.38,58.19 L272.38,42.66 L256.85,42.66 L256.85,58.19 Z" id="Shape" fill="#5E57A7"></path>
            <path d="M354.28,72.19 L324.75,72.19 C320.88,72.19 317.75,69.06 317.75,65.19 L317.75,35.66 C317.75,31.79 320.88,28.66 324.75,28.66 L354.28,28.66 C358.15,28.66 361.28,31.79 361.28,35.66 L361.28,65.19 C361.28,69.06 358.14,72.19 354.28,72.19 Z M331.75,58.19 L347.28,58.19 L347.28,42.66 L331.75,42.66 L331.75,58.19 Z" id="Shape" fill="#5E57A7"></path>
            <path d="M138.85,133.83 L109.32,133.83 C105.45,133.83 102.32,130.7 102.32,126.83 L102.32,97.3 C102.32,93.43 105.45,90.3 109.32,90.3 L138.85,90.3 C142.72,90.3 145.85,93.43 145.85,97.3 L145.85,126.83 C145.85,130.7 142.72,133.83 138.85,133.83 Z M116.32,119.83 L131.85,119.83 L131.85,104.3 L116.32,104.3 L116.32,119.83 Z" id="Shape" fill="#1B3954"></path>
            <path d="M209.12,133.83 L179.59,133.83 C175.72,133.83 172.59,130.7 172.59,126.83 L172.59,97.3 C172.59,93.43 175.72,90.3 179.59,90.3 L209.12,90.3 C212.99,90.3 216.12,93.43 216.12,97.3 L216.12,126.83 C216.12,130.7 212.99,133.83 209.12,133.83 Z M186.59,119.83 L202.12,119.83 L202.12,104.3 L186.59,104.3 L186.59,119.83 Z" id="Shape" fill="#1B3954"></path>
            <path d="M279.38,133.83 L249.85,133.83 C245.98,133.83 242.85,130.7 242.85,126.83 L242.85,97.3 C242.85,93.43 245.98,90.3 249.85,90.3 L279.38,90.3 C283.25,90.3 286.38,93.43 286.38,97.3 L286.38,126.83 C286.38,130.7 283.25,133.83 279.38,133.83 Z M256.85,119.83 L272.38,119.83 L272.38,104.3 L256.85,104.3 L256.85,119.83 Z" id="Shape" fill="#1B3954"></path>
            <path d="M354.28,133.83 L324.75,133.83 C320.88,133.83 317.75,130.7 317.75,126.83 L317.75,97.3 C317.75,93.43 320.88,90.3 324.75,90.3 L354.28,90.3 C358.15,90.3 361.28,93.43 361.28,97.3 L361.28,126.83 C361.28,130.7 358.14,133.83 354.28,133.83 Z M331.75,119.83 L347.28,119.83 L347.28,104.3 L331.75,104.3 L331.75,119.83 Z" id="Shape" fill="#1B3954"></path>
            <path d="M209.11,195.47 L198.17,195.47 C194.3,195.47 191.17,192.34 191.17,188.47 C191.17,184.6 194.3,181.47 198.17,181.47 L202.11,181.47 L202.11,165.93 L197.4,165.93 C193.53,165.93 190.4,162.8 190.4,158.93 C190.4,155.06 193.53,151.93 197.4,151.93 L209.11,151.93 C212.98,151.93 216.11,155.06 216.11,158.93 L216.11,188.47 C216.11,192.34 212.98,195.47 209.11,195.47 Z" id="Path" fill="#1B3954"></path>
            <path d="M279.38,195.47 L249.85,195.47 C245.98,195.47 242.85,192.34 242.85,188.47 L242.85,158.94 C242.85,155.07 245.98,151.94 249.85,151.94 L279.38,151.94 C283.25,151.94 286.38,155.07 286.38,158.94 L286.38,188.47 C286.38,192.33 283.25,195.47 279.38,195.47 Z M256.85,181.47 L272.38,181.47 L272.38,165.94 L256.85,165.94 L256.85,181.47 Z" id="Shape" fill="#1B3954"></path>
            <path d="M354.28,195.47 L324.75,195.47 C320.88,195.47 317.75,192.34 317.75,188.47 L317.75,158.94 C317.75,155.07 320.88,151.94 324.75,151.94 L354.28,151.94 C358.15,151.94 361.28,155.07 361.28,158.94 L361.28,188.47 C361.28,192.33 358.14,195.47 354.28,195.47 Z M331.75,181.47 L347.28,181.47 L347.28,165.94 L331.75,165.94 L331.75,181.47 Z" id="Shape" fill="#1B3954"></path>
            <path d="M354.28,257.1 L324.75,257.1 C320.88,257.1 317.75,253.97 317.75,250.1 L317.75,220.57 C317.75,216.7 320.88,213.57 324.75,213.57 L354.28,213.57 C358.15,213.57 361.28,216.7 361.28,220.57 L361.28,250.1 C361.28,253.97 358.14,257.1 354.28,257.1 Z M331.75,243.1 L347.28,243.1 L347.28,227.57 L331.75,227.57 L331.75,243.1 Z" id="Shape" fill="#1B3954"></path>
            <path d="M354.28,318.74 L324.75,318.74 C320.88,318.74 317.75,315.61 317.75,311.74 L317.75,282.21 C317.75,278.34 320.88,275.21 324.75,275.21 L354.28,275.21 C358.15,275.21 361.28,278.34 361.28,282.21 L361.28,311.74 C361.28,315.61 358.14,318.74 354.28,318.74 Z M331.75,304.74 L347.28,304.74 L347.28,289.21 L331.75,289.21 L331.75,304.74 Z" id="Shape" fill="#1B3954"></path>
            <path d="M354.28,380.38 L324.75,380.38 C320.88,380.38 317.75,377.25 317.75,373.38 L317.75,343.85 C317.75,339.98 320.88,336.85 324.75,336.85 L354.28,336.85 C358.15,336.85 361.28,339.98 361.28,343.85 L361.28,373.38 C361.28,377.24 358.14,380.38 354.28,380.38 Z M331.75,366.38 L347.28,366.38 L347.28,350.85 L331.75,350.85 L331.75,366.38 Z" id="Shape" fill="#1B3954"></path>
            <path d="M354.28,442.01 L324.75,442.01 C320.88,442.01 317.75,438.88 317.75,435.01 L317.75,405.48 C317.75,401.61 320.88,398.48 324.75,398.48 L354.28,398.48 C358.15,398.48 361.28,401.61 361.28,405.48 L361.28,435.01 C361.28,438.88 358.14,442.01 354.28,442.01 Z M331.75,428.01 L347.28,428.01 L347.28,412.48 L331.75,412.48 L331.75,428.01 Z" id="Shape" fill="#1B3954"></path>
            <path d="M295.79,485.5 L173.83,485.5 C169.96,485.5 166.83,482.37 166.83,478.5 L166.83,240.5 C166.83,236.63 169.96,233.5 173.83,233.5 L295.78,233.5 C299.65,233.5 302.78,236.63 302.78,240.5 C302.78,244.37 299.65,247.5 295.78,247.5 L180.83,247.5 L180.83,471.5 L288.78,471.5 L288.78,270.21 C288.78,266.34 291.91,263.21 295.78,263.21 C299.65,263.21 302.78,266.34 302.78,270.21 L302.78,478.5 C302.79,482.37 299.65,485.5 295.79,485.5 Z" id="Path" fill="#5E57A7"></path>
            <path d="M173.83,485.5 L7.67,485.5 C3.8,485.5 0.67,482.37 0.67,478.5 L0.67,158.93 C0.67,155.06 3.8,151.93 7.67,151.93 L173.83,151.93 C177.7,151.93 180.83,155.06 180.83,158.93 L180.83,478.5 C180.83,482.37 177.7,485.5 173.83,485.5 Z M14.67,471.5 L166.83,471.5 L166.83,165.93 L14.67,165.93 L14.67,471.5 Z" id="Shape" fill="#1B3954"></path>
        </g>
    </g>
</svg>